G04 EAGLE Gerber RS-274X export*
G75*
%MOMM*%
%FSLAX34Y34*%
%LPD*%
%INTop Copper*%
%IPPOS*%
%AMOC8*
5,1,8,0,0,1.08239X$1,22.5*%
G01*
%ADD10R,1.300000X1.500000*%
%ADD11R,1.500000X1.300000*%
%ADD12R,2.000000X2.400000*%
%ADD13R,0.500000X2.308000*%
%ADD14R,1.200000X1.200000*%
%ADD15C,2.540000*%
%ADD16R,1.524000X1.524000*%
%ADD17R,0.500000X0.350000*%
%ADD18R,0.400000X1.500000*%
%ADD19R,1.300000X1.600000*%
%ADD20R,1.000000X0.900000*%
%ADD21C,1.981200*%
%ADD22R,0.900000X0.700000*%
%ADD23C,1.790700*%
%ADD24R,2.000000X1.200000*%
%ADD25R,1.600000X1.300000*%
%ADD26R,1.000000X1.000000*%
%ADD27R,1.400000X1.000000*%
%ADD28C,1.308000*%
%ADD29R,1.000000X1.400000*%
%ADD30C,1.270000*%
%ADD31C,0.756400*%
%ADD32C,0.812800*%
%ADD33C,0.406400*%

G36*
X260355Y10162D02*
X260355Y10162D01*
X260360Y10161D01*
X260453Y10182D01*
X260547Y10200D01*
X260551Y10203D01*
X260556Y10204D01*
X260634Y10260D01*
X260712Y10313D01*
X260715Y10317D01*
X260719Y10320D01*
X260770Y10402D01*
X260822Y10481D01*
X260822Y10486D01*
X260825Y10491D01*
X260857Y10668D01*
X260857Y14226D01*
X260857Y14228D01*
X260857Y14229D01*
X260853Y14250D01*
X260855Y14274D01*
X260833Y14347D01*
X260818Y14423D01*
X260804Y14443D01*
X260797Y14466D01*
X260748Y14525D01*
X260705Y14589D01*
X260685Y14602D01*
X260670Y14620D01*
X260601Y14656D01*
X260537Y14698D01*
X260513Y14702D01*
X260492Y14713D01*
X260416Y14720D01*
X260340Y14733D01*
X260316Y14728D01*
X260292Y14730D01*
X260198Y14702D01*
X260144Y14690D01*
X260139Y14687D01*
X260139Y14686D01*
X260132Y14682D01*
X260120Y14678D01*
X258524Y13865D01*
X256661Y13260D01*
X254726Y12953D01*
X244855Y12953D01*
X244855Y24892D01*
X244854Y24897D01*
X244855Y24902D01*
X244834Y24995D01*
X244816Y25088D01*
X244813Y25093D01*
X244812Y25098D01*
X244756Y25176D01*
X244703Y25254D01*
X244699Y25257D01*
X244696Y25261D01*
X244614Y25312D01*
X244535Y25363D01*
X244530Y25364D01*
X244525Y25367D01*
X244348Y25399D01*
X243839Y25399D01*
X243839Y25401D01*
X244348Y25401D01*
X244353Y25402D01*
X244358Y25401D01*
X244451Y25422D01*
X244544Y25440D01*
X244549Y25443D01*
X244554Y25445D01*
X244632Y25500D01*
X244710Y25553D01*
X244713Y25558D01*
X244717Y25561D01*
X244768Y25642D01*
X244819Y25721D01*
X244820Y25726D01*
X244823Y25731D01*
X244855Y25908D01*
X244855Y37847D01*
X254726Y37847D01*
X256661Y37540D01*
X258524Y36935D01*
X260120Y36122D01*
X260143Y36115D01*
X260163Y36102D01*
X260239Y36088D01*
X260313Y36068D01*
X260337Y36071D01*
X260360Y36067D01*
X260435Y36083D01*
X260512Y36093D01*
X260533Y36105D01*
X260556Y36110D01*
X260619Y36155D01*
X260685Y36193D01*
X260700Y36212D01*
X260719Y36226D01*
X260760Y36291D01*
X260807Y36353D01*
X260813Y36376D01*
X260825Y36396D01*
X260843Y36493D01*
X260857Y36547D01*
X260855Y36559D01*
X260857Y36574D01*
X260857Y85853D01*
X305318Y85853D01*
X305323Y85854D01*
X305328Y85853D01*
X305421Y85874D01*
X305515Y85892D01*
X305519Y85895D01*
X305524Y85896D01*
X305602Y85952D01*
X305680Y86005D01*
X305683Y86009D01*
X305687Y86012D01*
X305738Y86094D01*
X305790Y86173D01*
X305790Y86178D01*
X305793Y86183D01*
X305825Y86360D01*
X305825Y92679D01*
X305824Y92687D01*
X305825Y92694D01*
X305804Y92784D01*
X305786Y92875D01*
X305781Y92882D01*
X305779Y92890D01*
X305677Y93038D01*
X300312Y98403D01*
X300305Y98407D01*
X300300Y98413D01*
X300222Y98462D01*
X300145Y98514D01*
X300137Y98515D01*
X300130Y98519D01*
X299953Y98551D01*
X129457Y98551D01*
X129449Y98550D01*
X129442Y98551D01*
X129352Y98530D01*
X129261Y98512D01*
X129254Y98507D01*
X129246Y98505D01*
X129098Y98403D01*
X105013Y74318D01*
X105009Y74311D01*
X105003Y74306D01*
X104954Y74228D01*
X104902Y74151D01*
X104901Y74143D01*
X104897Y74136D01*
X104865Y73959D01*
X104865Y64676D01*
X104543Y64355D01*
X104539Y64348D01*
X104533Y64344D01*
X104484Y64265D01*
X104432Y64188D01*
X104431Y64180D01*
X104427Y64174D01*
X104395Y63996D01*
X104395Y39878D01*
X104396Y39873D01*
X104395Y39868D01*
X104416Y39775D01*
X104434Y39681D01*
X104437Y39677D01*
X104438Y39672D01*
X104494Y39594D01*
X104547Y39516D01*
X104551Y39513D01*
X104554Y39509D01*
X104636Y39458D01*
X104715Y39406D01*
X104720Y39406D01*
X104725Y39403D01*
X104902Y39371D01*
X106665Y39371D01*
X111800Y37244D01*
X115730Y33314D01*
X117857Y28179D01*
X117857Y22621D01*
X115730Y17486D01*
X111800Y13556D01*
X110855Y13165D01*
X110854Y13165D01*
X109630Y12657D01*
X108405Y12150D01*
X107181Y11643D01*
X106665Y11429D01*
X81295Y11429D01*
X76160Y13556D01*
X72230Y17486D01*
X70103Y22621D01*
X70103Y28179D01*
X72230Y33314D01*
X76160Y37244D01*
X77000Y37592D01*
X78225Y38099D01*
X79450Y38606D01*
X80674Y39114D01*
X81295Y39371D01*
X83058Y39371D01*
X83063Y39372D01*
X83068Y39371D01*
X83161Y39392D01*
X83255Y39410D01*
X83259Y39413D01*
X83264Y39414D01*
X83342Y39470D01*
X83420Y39523D01*
X83423Y39527D01*
X83427Y39530D01*
X83478Y39612D01*
X83530Y39691D01*
X83530Y39696D01*
X83533Y39701D01*
X83565Y39878D01*
X83565Y62396D01*
X83564Y62404D01*
X83565Y62412D01*
X83544Y62502D01*
X83526Y62593D01*
X83521Y62599D01*
X83519Y62607D01*
X83417Y62755D01*
X81495Y64676D01*
X81495Y83284D01*
X83876Y85665D01*
X93159Y85665D01*
X93167Y85666D01*
X93174Y85665D01*
X93264Y85686D01*
X93355Y85704D01*
X93362Y85709D01*
X93370Y85711D01*
X93518Y85813D01*
X121275Y113571D01*
X121536Y113679D01*
X121537Y113679D01*
X122761Y114187D01*
X123986Y114694D01*
X124263Y114809D01*
X305147Y114809D01*
X308135Y113571D01*
X309611Y112095D01*
X309612Y112094D01*
X309612Y112093D01*
X309695Y112039D01*
X309778Y111984D01*
X309779Y111984D01*
X309780Y111983D01*
X309877Y111965D01*
X309974Y111947D01*
X309976Y111947D01*
X309977Y111947D01*
X310074Y111968D01*
X310171Y111988D01*
X310172Y111989D01*
X310173Y111989D01*
X310254Y112046D01*
X310335Y112102D01*
X310336Y112104D01*
X310337Y112104D01*
X310389Y112187D01*
X310443Y112272D01*
X310443Y112273D01*
X310444Y112274D01*
X310460Y112372D01*
X310476Y112469D01*
X310476Y112470D01*
X310476Y112472D01*
X310438Y112648D01*
X309371Y115223D01*
X309371Y121650D01*
X309370Y121658D01*
X309371Y121666D01*
X309350Y121756D01*
X309332Y121847D01*
X309327Y121853D01*
X309325Y121861D01*
X309223Y122009D01*
X308055Y123176D01*
X308055Y135544D01*
X310436Y137925D01*
X323804Y137925D01*
X325839Y135889D01*
X325843Y135886D01*
X325846Y135882D01*
X325926Y135831D01*
X326006Y135778D01*
X326011Y135777D01*
X326016Y135775D01*
X326109Y135759D01*
X326203Y135741D01*
X326208Y135742D01*
X326213Y135741D01*
X326306Y135763D01*
X326399Y135782D01*
X326403Y135786D01*
X326408Y135787D01*
X326556Y135890D01*
X326560Y135893D01*
X327139Y136228D01*
X327785Y136401D01*
X332105Y136401D01*
X332105Y129868D01*
X332105Y129865D01*
X332105Y129861D01*
X332105Y129860D01*
X332105Y129858D01*
X332126Y129765D01*
X332144Y129672D01*
X332147Y129667D01*
X332148Y129662D01*
X332204Y129584D01*
X332257Y129506D01*
X332261Y129503D01*
X332264Y129499D01*
X332346Y129448D01*
X332425Y129397D01*
X332430Y129396D01*
X332435Y129393D01*
X332612Y129361D01*
X333121Y129361D01*
X333121Y129359D01*
X332612Y129359D01*
X332607Y129358D01*
X332602Y129359D01*
X332509Y129338D01*
X332416Y129320D01*
X332411Y129317D01*
X332406Y129315D01*
X332328Y129260D01*
X332250Y129207D01*
X332247Y129203D01*
X332243Y129199D01*
X332192Y129118D01*
X332141Y129039D01*
X332140Y129034D01*
X332137Y129029D01*
X332105Y128852D01*
X332105Y122319D01*
X327785Y122319D01*
X327139Y122492D01*
X326560Y122827D01*
X326556Y122830D01*
X326552Y122833D01*
X326549Y122838D01*
X326468Y122889D01*
X326390Y122941D01*
X326384Y122942D01*
X326380Y122945D01*
X326286Y122961D01*
X326193Y122979D01*
X326187Y122978D01*
X326182Y122979D01*
X326090Y122957D01*
X325997Y122938D01*
X325992Y122935D01*
X325987Y122933D01*
X325839Y122831D01*
X325777Y122769D01*
X325773Y122762D01*
X325767Y122758D01*
X325718Y122679D01*
X325666Y122602D01*
X325665Y122594D01*
X325661Y122588D01*
X325629Y122410D01*
X325629Y115223D01*
X324391Y112235D01*
X322105Y109949D01*
X321123Y109542D01*
X319898Y109035D01*
X319117Y108711D01*
X315883Y108711D01*
X313308Y109778D01*
X313307Y109778D01*
X313306Y109779D01*
X313208Y109798D01*
X313111Y109817D01*
X313110Y109816D01*
X313109Y109817D01*
X313014Y109796D01*
X312915Y109776D01*
X312914Y109775D01*
X312913Y109775D01*
X312830Y109718D01*
X312750Y109662D01*
X312749Y109661D01*
X312748Y109661D01*
X312691Y109571D01*
X312641Y109494D01*
X312641Y109493D01*
X312640Y109491D01*
X312624Y109395D01*
X312607Y109296D01*
X312607Y109295D01*
X312607Y109294D01*
X312629Y109199D01*
X312651Y109101D01*
X312652Y109100D01*
X312652Y109099D01*
X312755Y108951D01*
X317512Y104193D01*
X317519Y104189D01*
X317524Y104183D01*
X317602Y104134D01*
X317679Y104082D01*
X317687Y104081D01*
X317694Y104077D01*
X317871Y104045D01*
X323574Y104045D01*
X326031Y101587D01*
X326036Y101584D01*
X326039Y101580D01*
X326119Y101529D01*
X326198Y101476D01*
X326203Y101475D01*
X326208Y101472D01*
X326302Y101456D01*
X326395Y101439D01*
X326400Y101440D01*
X326405Y101439D01*
X326498Y101460D01*
X326591Y101480D01*
X326596Y101483D01*
X326601Y101484D01*
X326749Y101587D01*
X329206Y104045D01*
X344574Y104045D01*
X346361Y102257D01*
X346368Y102253D01*
X346372Y102247D01*
X346451Y102198D01*
X346528Y102146D01*
X346536Y102145D01*
X346542Y102141D01*
X346720Y102109D01*
X360428Y102109D01*
X360433Y102110D01*
X360438Y102109D01*
X360531Y102130D01*
X360625Y102148D01*
X360629Y102151D01*
X360634Y102152D01*
X360712Y102208D01*
X360790Y102261D01*
X360793Y102265D01*
X360797Y102268D01*
X360848Y102350D01*
X360900Y102429D01*
X360900Y102434D01*
X360903Y102439D01*
X360935Y102616D01*
X360935Y103664D01*
X363316Y106045D01*
X379684Y106045D01*
X380641Y105087D01*
X380646Y105084D01*
X380649Y105080D01*
X380729Y105029D01*
X380808Y104976D01*
X380813Y104975D01*
X380818Y104972D01*
X380912Y104956D01*
X381005Y104939D01*
X381010Y104940D01*
X381016Y104939D01*
X381108Y104960D01*
X381201Y104980D01*
X381206Y104983D01*
X381211Y104984D01*
X381359Y105087D01*
X382223Y105951D01*
X382227Y105958D01*
X382233Y105962D01*
X382282Y106041D01*
X382334Y106118D01*
X382335Y106126D01*
X382339Y106132D01*
X382371Y106310D01*
X382371Y120530D01*
X382370Y120538D01*
X382371Y120546D01*
X382350Y120636D01*
X382332Y120727D01*
X382327Y120733D01*
X382325Y120741D01*
X382223Y120889D01*
X380281Y122831D01*
X380277Y122834D01*
X380274Y122838D01*
X380194Y122889D01*
X380114Y122942D01*
X380109Y122943D01*
X380104Y122945D01*
X380011Y122961D01*
X379917Y122979D01*
X379912Y122978D01*
X379907Y122979D01*
X379814Y122957D01*
X379721Y122938D01*
X379717Y122934D01*
X379712Y122933D01*
X379564Y122830D01*
X379560Y122827D01*
X378981Y122492D01*
X378335Y122319D01*
X374015Y122319D01*
X374015Y128852D01*
X374014Y128857D01*
X374015Y128862D01*
X373994Y128955D01*
X373976Y129048D01*
X373973Y129053D01*
X373971Y129058D01*
X373916Y129136D01*
X373863Y129214D01*
X373859Y129217D01*
X373855Y129221D01*
X373774Y129272D01*
X373695Y129323D01*
X373690Y129324D01*
X373685Y129327D01*
X373508Y129359D01*
X372999Y129359D01*
X372999Y129361D01*
X373508Y129361D01*
X373513Y129362D01*
X373518Y129361D01*
X373611Y129382D01*
X373704Y129400D01*
X373709Y129403D01*
X373714Y129405D01*
X373792Y129460D01*
X373870Y129513D01*
X373873Y129517D01*
X373877Y129521D01*
X373928Y129602D01*
X373979Y129681D01*
X373980Y129686D01*
X373983Y129691D01*
X374015Y129868D01*
X374015Y136401D01*
X378335Y136401D01*
X378981Y136228D01*
X379560Y135893D01*
X379564Y135890D01*
X379568Y135887D01*
X379571Y135882D01*
X379651Y135831D01*
X379730Y135779D01*
X379736Y135778D01*
X379740Y135775D01*
X379834Y135759D01*
X379927Y135741D01*
X379933Y135742D01*
X379938Y135741D01*
X380031Y135763D01*
X380123Y135782D01*
X380128Y135785D01*
X380133Y135787D01*
X380281Y135889D01*
X380723Y136331D01*
X380727Y136338D01*
X380733Y136342D01*
X380782Y136421D01*
X380834Y136498D01*
X380835Y136506D01*
X380839Y136512D01*
X380871Y136690D01*
X380871Y163030D01*
X380870Y163038D01*
X380871Y163046D01*
X380850Y163135D01*
X380832Y163227D01*
X380827Y163233D01*
X380825Y163241D01*
X380723Y163389D01*
X380281Y163831D01*
X380277Y163834D01*
X380274Y163838D01*
X380194Y163889D01*
X380114Y163942D01*
X380109Y163943D01*
X380104Y163945D01*
X380011Y163961D01*
X379917Y163979D01*
X379912Y163978D01*
X379907Y163979D01*
X379814Y163957D01*
X379721Y163938D01*
X379717Y163934D01*
X379712Y163933D01*
X379564Y163830D01*
X379560Y163827D01*
X378981Y163492D01*
X378335Y163319D01*
X374015Y163319D01*
X374015Y169852D01*
X374014Y169857D01*
X374015Y169862D01*
X373994Y169955D01*
X373976Y170048D01*
X373973Y170053D01*
X373971Y170058D01*
X373916Y170136D01*
X373863Y170214D01*
X373859Y170217D01*
X373855Y170221D01*
X373774Y170272D01*
X373695Y170323D01*
X373690Y170324D01*
X373685Y170327D01*
X373508Y170359D01*
X372999Y170359D01*
X372999Y170361D01*
X373508Y170361D01*
X373513Y170362D01*
X373518Y170361D01*
X373611Y170382D01*
X373704Y170400D01*
X373709Y170403D01*
X373714Y170405D01*
X373792Y170460D01*
X373870Y170513D01*
X373873Y170517D01*
X373877Y170521D01*
X373928Y170602D01*
X373979Y170681D01*
X373980Y170686D01*
X373983Y170691D01*
X374015Y170868D01*
X374015Y177401D01*
X378335Y177401D01*
X378981Y177228D01*
X379560Y176893D01*
X379564Y176890D01*
X379568Y176887D01*
X379571Y176882D01*
X379652Y176831D01*
X379730Y176779D01*
X379736Y176778D01*
X379740Y176775D01*
X379834Y176759D01*
X379927Y176741D01*
X379933Y176742D01*
X379938Y176741D01*
X380031Y176763D01*
X380123Y176782D01*
X380128Y176785D01*
X380133Y176787D01*
X380281Y176889D01*
X382316Y178925D01*
X395684Y178925D01*
X396711Y177897D01*
X396718Y177893D01*
X396722Y177887D01*
X396801Y177838D01*
X396878Y177786D01*
X396886Y177785D01*
X396892Y177781D01*
X397070Y177749D01*
X411550Y177749D01*
X411558Y177750D01*
X411566Y177749D01*
X411656Y177770D01*
X411747Y177788D01*
X411753Y177793D01*
X411761Y177795D01*
X411909Y177897D01*
X413273Y179261D01*
X413276Y179266D01*
X413280Y179269D01*
X413331Y179349D01*
X413384Y179428D01*
X413385Y179433D01*
X413388Y179438D01*
X413404Y179532D01*
X413421Y179625D01*
X413420Y179630D01*
X413421Y179636D01*
X413400Y179728D01*
X413380Y179821D01*
X413377Y179826D01*
X413376Y179831D01*
X413273Y179979D01*
X411909Y181343D01*
X411902Y181347D01*
X411898Y181353D01*
X411819Y181402D01*
X411742Y181454D01*
X411734Y181455D01*
X411728Y181459D01*
X411550Y181491D01*
X344703Y181491D01*
X341715Y182729D01*
X327729Y196715D01*
X327014Y198442D01*
X327010Y198448D01*
X327009Y198454D01*
X326954Y198530D01*
X326902Y198609D01*
X326896Y198612D01*
X326893Y198617D01*
X326813Y198667D01*
X326734Y198719D01*
X326728Y198720D01*
X326722Y198723D01*
X326545Y198755D01*
X326436Y198755D01*
X325479Y199713D01*
X325474Y199716D01*
X325471Y199720D01*
X325391Y199771D01*
X325312Y199824D01*
X325307Y199825D01*
X325302Y199828D01*
X325208Y199844D01*
X325115Y199861D01*
X325110Y199860D01*
X325105Y199861D01*
X325012Y199840D01*
X324919Y199820D01*
X324914Y199817D01*
X324909Y199816D01*
X324761Y199713D01*
X323804Y198755D01*
X307436Y198755D01*
X304919Y201273D01*
X304912Y201277D01*
X304908Y201283D01*
X304829Y201332D01*
X304752Y201384D01*
X304744Y201385D01*
X304738Y201389D01*
X304560Y201421D01*
X299373Y201421D01*
X296385Y202659D01*
X294099Y204945D01*
X292861Y207933D01*
X292861Y211167D01*
X294099Y214155D01*
X296385Y216441D01*
X296892Y216651D01*
X298117Y217158D01*
X299341Y217666D01*
X299373Y217679D01*
X304548Y217679D01*
X304553Y217680D01*
X304558Y217679D01*
X304651Y217700D01*
X304745Y217718D01*
X304749Y217721D01*
X304754Y217722D01*
X304832Y217778D01*
X304910Y217831D01*
X304913Y217835D01*
X304917Y217838D01*
X304968Y217920D01*
X305020Y217999D01*
X305020Y218004D01*
X305023Y218009D01*
X305055Y218186D01*
X305055Y220504D01*
X307436Y222885D01*
X323804Y222885D01*
X324761Y221927D01*
X324766Y221924D01*
X324769Y221920D01*
X324849Y221869D01*
X324928Y221816D01*
X324933Y221815D01*
X324938Y221812D01*
X325032Y221796D01*
X325125Y221779D01*
X325130Y221780D01*
X325136Y221779D01*
X325228Y221800D01*
X325321Y221820D01*
X325326Y221823D01*
X325331Y221824D01*
X325479Y221927D01*
X326436Y222885D01*
X342804Y222885D01*
X345185Y220504D01*
X345185Y202461D01*
X345186Y202453D01*
X345185Y202446D01*
X345206Y202356D01*
X345224Y202265D01*
X345229Y202258D01*
X345231Y202250D01*
X345333Y202102D01*
X349538Y197897D01*
X349545Y197893D01*
X349550Y197887D01*
X349628Y197838D01*
X349705Y197786D01*
X349713Y197785D01*
X349720Y197781D01*
X349897Y197749D01*
X382098Y197749D01*
X382101Y197749D01*
X382103Y197749D01*
X382198Y197769D01*
X382295Y197788D01*
X382297Y197790D01*
X382300Y197790D01*
X382380Y197846D01*
X382461Y197901D01*
X382462Y197903D01*
X382464Y197905D01*
X382517Y197988D01*
X382570Y198069D01*
X382570Y198072D01*
X382572Y198074D01*
X382588Y198170D01*
X382605Y198266D01*
X382605Y198269D01*
X382605Y198271D01*
X382583Y198365D01*
X382562Y198462D01*
X382560Y198464D01*
X382560Y198467D01*
X382457Y198615D01*
X380281Y200791D01*
X380277Y200794D01*
X380274Y200798D01*
X380194Y200849D01*
X380114Y200902D01*
X380109Y200903D01*
X380104Y200905D01*
X380011Y200921D01*
X379917Y200939D01*
X379912Y200938D01*
X379907Y200939D01*
X379814Y200917D01*
X379721Y200898D01*
X379717Y200894D01*
X379712Y200893D01*
X379564Y200790D01*
X379560Y200787D01*
X378981Y200452D01*
X378335Y200279D01*
X372515Y200279D01*
X372515Y210312D01*
X372514Y210317D01*
X372515Y210322D01*
X372494Y210415D01*
X372476Y210508D01*
X372473Y210513D01*
X372471Y210518D01*
X372416Y210596D01*
X372363Y210674D01*
X372359Y210677D01*
X372355Y210681D01*
X372274Y210732D01*
X372195Y210783D01*
X372190Y210784D01*
X372185Y210787D01*
X372008Y210819D01*
X371499Y210819D01*
X371499Y210821D01*
X372008Y210821D01*
X372013Y210822D01*
X372018Y210821D01*
X372111Y210842D01*
X372204Y210860D01*
X372209Y210863D01*
X372214Y210865D01*
X372292Y210920D01*
X372370Y210973D01*
X372373Y210977D01*
X372377Y210981D01*
X372428Y211062D01*
X372479Y211141D01*
X372480Y211146D01*
X372483Y211151D01*
X372515Y211328D01*
X372515Y221361D01*
X378335Y221361D01*
X378981Y221188D01*
X379560Y220853D01*
X379564Y220850D01*
X379568Y220847D01*
X379571Y220842D01*
X379652Y220791D01*
X379730Y220739D01*
X379736Y220738D01*
X379740Y220735D01*
X379834Y220719D01*
X379927Y220701D01*
X379933Y220702D01*
X379938Y220701D01*
X380031Y220723D01*
X380123Y220742D01*
X380128Y220745D01*
X380133Y220747D01*
X380281Y220849D01*
X382316Y222885D01*
X398684Y222885D01*
X401065Y220504D01*
X401065Y218256D01*
X401066Y218251D01*
X401065Y218246D01*
X401086Y218153D01*
X401104Y218059D01*
X401107Y218055D01*
X401108Y218050D01*
X401164Y217972D01*
X401217Y217894D01*
X401221Y217891D01*
X401224Y217887D01*
X401306Y217836D01*
X401385Y217784D01*
X401390Y217784D01*
X401395Y217781D01*
X401572Y217749D01*
X411550Y217749D01*
X411558Y217750D01*
X411566Y217749D01*
X411656Y217770D01*
X411747Y217788D01*
X411753Y217793D01*
X411761Y217795D01*
X411909Y217897D01*
X413696Y219685D01*
X437064Y219685D01*
X439445Y217304D01*
X439445Y201936D01*
X437487Y199979D01*
X437484Y199974D01*
X437480Y199971D01*
X437429Y199891D01*
X437376Y199812D01*
X437375Y199807D01*
X437372Y199802D01*
X437356Y199708D01*
X437339Y199615D01*
X437340Y199610D01*
X437339Y199605D01*
X437360Y199512D01*
X437380Y199419D01*
X437383Y199414D01*
X437384Y199409D01*
X437487Y199261D01*
X439445Y197304D01*
X439445Y181936D01*
X437487Y179979D01*
X437484Y179974D01*
X437480Y179971D01*
X437429Y179891D01*
X437376Y179812D01*
X437375Y179807D01*
X437372Y179802D01*
X437356Y179708D01*
X437339Y179615D01*
X437340Y179610D01*
X437339Y179605D01*
X437360Y179512D01*
X437380Y179419D01*
X437383Y179414D01*
X437384Y179409D01*
X437487Y179261D01*
X439445Y177304D01*
X439445Y161936D01*
X437487Y159979D01*
X437484Y159974D01*
X437480Y159971D01*
X437429Y159891D01*
X437376Y159812D01*
X437375Y159807D01*
X437372Y159802D01*
X437356Y159708D01*
X437339Y159615D01*
X437340Y159610D01*
X437339Y159605D01*
X437360Y159512D01*
X437380Y159419D01*
X437383Y159414D01*
X437384Y159409D01*
X437487Y159261D01*
X438851Y157897D01*
X438858Y157893D01*
X438862Y157887D01*
X438941Y157838D01*
X439018Y157786D01*
X439026Y157785D01*
X439032Y157781D01*
X439210Y157749D01*
X444493Y157749D01*
X444501Y157750D01*
X444508Y157749D01*
X444598Y157770D01*
X444689Y157788D01*
X444696Y157793D01*
X444704Y157795D01*
X444852Y157897D01*
X460215Y173261D01*
X460876Y173535D01*
X462101Y174042D01*
X463203Y174499D01*
X466437Y174499D01*
X469425Y173261D01*
X471711Y170975D01*
X471971Y170346D01*
X471973Y170344D01*
X471973Y170342D01*
X472028Y170263D01*
X472083Y170180D01*
X472085Y170179D01*
X472087Y170176D01*
X472169Y170124D01*
X472251Y170070D01*
X472253Y170070D01*
X472255Y170068D01*
X472352Y170051D01*
X472448Y170033D01*
X472450Y170034D01*
X472453Y170033D01*
X472549Y170055D01*
X472644Y170076D01*
X472646Y170077D01*
X472648Y170078D01*
X472728Y170135D01*
X472808Y170191D01*
X472809Y170193D01*
X472811Y170195D01*
X472909Y170346D01*
X473169Y170975D01*
X475455Y173261D01*
X476116Y173535D01*
X477341Y174042D01*
X478443Y174499D01*
X481677Y174499D01*
X484665Y173261D01*
X486951Y170975D01*
X487211Y170346D01*
X487213Y170344D01*
X487213Y170342D01*
X487269Y170261D01*
X487323Y170180D01*
X487325Y170179D01*
X487327Y170176D01*
X487409Y170123D01*
X487491Y170070D01*
X487493Y170070D01*
X487495Y170068D01*
X487592Y170051D01*
X487688Y170033D01*
X487690Y170034D01*
X487693Y170033D01*
X487789Y170055D01*
X487884Y170076D01*
X487886Y170077D01*
X487888Y170078D01*
X487967Y170135D01*
X488048Y170191D01*
X488049Y170193D01*
X488051Y170195D01*
X488149Y170346D01*
X488409Y170975D01*
X490695Y173261D01*
X491356Y173535D01*
X492581Y174042D01*
X493683Y174499D01*
X496917Y174499D01*
X499905Y173261D01*
X502191Y170975D01*
X502451Y170346D01*
X502453Y170344D01*
X502453Y170342D01*
X502508Y170263D01*
X502563Y170180D01*
X502565Y170179D01*
X502567Y170176D01*
X502649Y170124D01*
X502731Y170070D01*
X502733Y170070D01*
X502735Y170068D01*
X502832Y170051D01*
X502928Y170033D01*
X502930Y170034D01*
X502933Y170033D01*
X503029Y170055D01*
X503124Y170076D01*
X503126Y170077D01*
X503128Y170078D01*
X503208Y170135D01*
X503288Y170191D01*
X503289Y170193D01*
X503291Y170195D01*
X503389Y170346D01*
X503649Y170975D01*
X505935Y173261D01*
X506596Y173535D01*
X507821Y174042D01*
X508923Y174499D01*
X512157Y174499D01*
X515145Y173261D01*
X517431Y170975D01*
X517844Y169978D01*
X517845Y169976D01*
X517846Y169973D01*
X517901Y169893D01*
X517956Y169812D01*
X517958Y169810D01*
X517959Y169808D01*
X518042Y169755D01*
X518123Y169702D01*
X518126Y169701D01*
X518128Y169700D01*
X518225Y169683D01*
X518320Y169665D01*
X518323Y169666D01*
X518326Y169665D01*
X518422Y169687D01*
X518516Y169708D01*
X518518Y169709D01*
X518521Y169710D01*
X518601Y169767D01*
X518680Y169823D01*
X518682Y169825D01*
X518684Y169826D01*
X518781Y169978D01*
X519128Y170815D01*
X521335Y173022D01*
X521348Y173028D01*
X522573Y173535D01*
X523797Y174042D01*
X523798Y174042D01*
X524219Y174217D01*
X527341Y174217D01*
X530225Y173022D01*
X532432Y170815D01*
X533010Y169421D01*
X533015Y169413D01*
X533017Y169404D01*
X533120Y169256D01*
X544478Y157897D01*
X544485Y157893D01*
X544490Y157887D01*
X544568Y157838D01*
X544645Y157786D01*
X544653Y157785D01*
X544660Y157781D01*
X544837Y157749D01*
X561550Y157749D01*
X561558Y157750D01*
X561566Y157749D01*
X561656Y157770D01*
X561747Y157788D01*
X561753Y157793D01*
X561761Y157795D01*
X561909Y157897D01*
X563273Y159261D01*
X563276Y159266D01*
X563280Y159269D01*
X563331Y159349D01*
X563384Y159428D01*
X563385Y159433D01*
X563388Y159438D01*
X563404Y159532D01*
X563421Y159625D01*
X563420Y159630D01*
X563421Y159635D01*
X563400Y159728D01*
X563380Y159821D01*
X563377Y159826D01*
X563376Y159831D01*
X563273Y159979D01*
X561315Y161936D01*
X561315Y177304D01*
X563273Y179261D01*
X563276Y179266D01*
X563280Y179269D01*
X563331Y179349D01*
X563384Y179428D01*
X563385Y179433D01*
X563388Y179438D01*
X563403Y179531D01*
X563421Y179625D01*
X563420Y179630D01*
X563421Y179635D01*
X563400Y179728D01*
X563380Y179821D01*
X563377Y179826D01*
X563376Y179831D01*
X563273Y179979D01*
X561909Y181343D01*
X561902Y181347D01*
X561898Y181353D01*
X561819Y181402D01*
X561742Y181454D01*
X561734Y181455D01*
X561728Y181459D01*
X561550Y181491D01*
X452239Y181491D01*
X452230Y181489D01*
X452221Y181491D01*
X452045Y181453D01*
X452043Y181452D01*
X451197Y181101D01*
X447963Y181101D01*
X444975Y182339D01*
X442689Y184625D01*
X441451Y187613D01*
X441451Y190847D01*
X442689Y193835D01*
X445365Y196511D01*
X446228Y196868D01*
X447452Y197376D01*
X448353Y197749D01*
X561550Y197749D01*
X561558Y197750D01*
X561566Y197749D01*
X561656Y197770D01*
X561747Y197788D01*
X561753Y197793D01*
X561761Y197795D01*
X561909Y197897D01*
X563273Y199261D01*
X563276Y199266D01*
X563280Y199269D01*
X563331Y199349D01*
X563384Y199428D01*
X563385Y199433D01*
X563388Y199438D01*
X563404Y199532D01*
X563421Y199625D01*
X563420Y199630D01*
X563421Y199635D01*
X563400Y199728D01*
X563380Y199821D01*
X563377Y199826D01*
X563376Y199831D01*
X563273Y199979D01*
X561909Y201343D01*
X561902Y201347D01*
X561898Y201353D01*
X561819Y201402D01*
X561742Y201454D01*
X561734Y201455D01*
X561728Y201459D01*
X561550Y201491D01*
X544177Y201491D01*
X544168Y201489D01*
X544159Y201491D01*
X543983Y201453D01*
X543907Y201421D01*
X540673Y201421D01*
X537685Y202659D01*
X535399Y204945D01*
X534161Y207933D01*
X534161Y211167D01*
X535399Y214155D01*
X537755Y216511D01*
X538093Y216651D01*
X539318Y217158D01*
X540542Y217666D01*
X540743Y217749D01*
X561550Y217749D01*
X561558Y217750D01*
X561566Y217749D01*
X561656Y217770D01*
X561747Y217788D01*
X561753Y217793D01*
X561761Y217795D01*
X561909Y217897D01*
X563273Y219261D01*
X563276Y219266D01*
X563280Y219269D01*
X563331Y219349D01*
X563384Y219428D01*
X563385Y219433D01*
X563388Y219438D01*
X563404Y219532D01*
X563421Y219625D01*
X563420Y219630D01*
X563421Y219635D01*
X563400Y219728D01*
X563380Y219821D01*
X563377Y219826D01*
X563376Y219831D01*
X563273Y219979D01*
X561909Y221343D01*
X561902Y221347D01*
X561898Y221353D01*
X561819Y221402D01*
X561742Y221454D01*
X561734Y221455D01*
X561728Y221459D01*
X561550Y221491D01*
X554656Y221491D01*
X551669Y222729D01*
X517718Y256680D01*
X517711Y256684D01*
X517706Y256691D01*
X517628Y256740D01*
X517551Y256791D01*
X517543Y256792D01*
X517536Y256797D01*
X517359Y256829D01*
X509316Y256829D01*
X507281Y258864D01*
X507277Y258867D01*
X507274Y258871D01*
X507194Y258922D01*
X507114Y258975D01*
X507109Y258976D01*
X507104Y258979D01*
X507011Y258995D01*
X506917Y259012D01*
X506912Y259011D01*
X506907Y259012D01*
X506814Y258991D01*
X506721Y258971D01*
X506717Y258968D01*
X506712Y258967D01*
X506564Y258864D01*
X506560Y258860D01*
X505981Y258526D01*
X505335Y258353D01*
X499515Y258353D01*
X499515Y267885D01*
X499514Y267890D01*
X499515Y267896D01*
X499494Y267989D01*
X499476Y268082D01*
X499473Y268086D01*
X499471Y268091D01*
X499416Y268169D01*
X499363Y268248D01*
X499359Y268250D01*
X499355Y268255D01*
X499274Y268305D01*
X499195Y268357D01*
X499190Y268358D01*
X499185Y268360D01*
X499008Y268392D01*
X498499Y268392D01*
X498499Y268394D01*
X499008Y268394D01*
X499013Y268395D01*
X499018Y268394D01*
X499111Y268415D01*
X499204Y268434D01*
X499209Y268437D01*
X499214Y268438D01*
X499292Y268493D01*
X499370Y268546D01*
X499373Y268551D01*
X499377Y268554D01*
X499428Y268635D01*
X499479Y268714D01*
X499480Y268720D01*
X499483Y268724D01*
X499515Y268901D01*
X499515Y278434D01*
X505335Y278434D01*
X505981Y278261D01*
X506560Y277926D01*
X506564Y277923D01*
X506568Y277920D01*
X506571Y277916D01*
X506652Y277864D01*
X506730Y277812D01*
X506736Y277811D01*
X506740Y277808D01*
X506834Y277792D01*
X506927Y277774D01*
X506933Y277775D01*
X506938Y277774D01*
X507030Y277796D01*
X507123Y277816D01*
X507128Y277819D01*
X507133Y277820D01*
X507281Y277923D01*
X509223Y279864D01*
X509227Y279871D01*
X509233Y279876D01*
X509282Y279954D01*
X509334Y280031D01*
X509335Y280039D01*
X509339Y280046D01*
X509371Y280223D01*
X509371Y297204D01*
X509370Y297211D01*
X509371Y297219D01*
X509350Y297309D01*
X509332Y297400D01*
X509327Y297407D01*
X509325Y297414D01*
X509223Y297562D01*
X507281Y299504D01*
X507277Y299507D01*
X507274Y299511D01*
X507194Y299562D01*
X507114Y299615D01*
X507109Y299616D01*
X507104Y299619D01*
X507011Y299635D01*
X506917Y299652D01*
X506912Y299651D01*
X506907Y299652D01*
X506814Y299631D01*
X506721Y299611D01*
X506717Y299608D01*
X506712Y299607D01*
X506564Y299504D01*
X506560Y299500D01*
X505981Y299166D01*
X505335Y298993D01*
X499515Y298993D01*
X499515Y308525D01*
X499514Y308530D01*
X499515Y308536D01*
X499494Y308629D01*
X499476Y308722D01*
X499473Y308726D01*
X499471Y308731D01*
X499416Y308809D01*
X499363Y308888D01*
X499359Y308890D01*
X499355Y308895D01*
X499274Y308945D01*
X499195Y308997D01*
X499190Y308998D01*
X499185Y309000D01*
X499008Y309032D01*
X498499Y309032D01*
X498499Y309034D01*
X499008Y309034D01*
X499013Y309035D01*
X499018Y309034D01*
X499111Y309055D01*
X499204Y309074D01*
X499209Y309077D01*
X499214Y309078D01*
X499292Y309133D01*
X499370Y309186D01*
X499373Y309191D01*
X499377Y309194D01*
X499428Y309275D01*
X499479Y309354D01*
X499480Y309360D01*
X499483Y309364D01*
X499515Y309541D01*
X499515Y319074D01*
X505335Y319074D01*
X505981Y318901D01*
X506560Y318566D01*
X506564Y318563D01*
X506568Y318560D01*
X506571Y318556D01*
X506652Y318504D01*
X506730Y318452D01*
X506736Y318451D01*
X506740Y318448D01*
X506834Y318432D01*
X506927Y318414D01*
X506933Y318415D01*
X506938Y318414D01*
X507031Y318436D01*
X507123Y318456D01*
X507128Y318459D01*
X507133Y318460D01*
X507281Y318563D01*
X509316Y320598D01*
X525684Y320598D01*
X528065Y318217D01*
X528065Y299850D01*
X525777Y297562D01*
X525773Y297556D01*
X525767Y297551D01*
X525718Y297472D01*
X525666Y297395D01*
X525665Y297388D01*
X525661Y297381D01*
X525629Y297204D01*
X525629Y280223D01*
X525630Y280215D01*
X525629Y280208D01*
X525650Y280118D01*
X525668Y280027D01*
X525673Y280020D01*
X525675Y280012D01*
X525777Y279864D01*
X528065Y277577D01*
X528065Y269534D01*
X528066Y269527D01*
X528065Y269519D01*
X528086Y269429D01*
X528104Y269338D01*
X528109Y269331D01*
X528111Y269324D01*
X528213Y269176D01*
X559492Y237897D01*
X559498Y237893D01*
X559503Y237887D01*
X559582Y237838D01*
X559659Y237786D01*
X559666Y237785D01*
X559673Y237781D01*
X559850Y237749D01*
X561550Y237749D01*
X561558Y237750D01*
X561566Y237749D01*
X561656Y237770D01*
X561747Y237788D01*
X561753Y237793D01*
X561761Y237795D01*
X561909Y237897D01*
X563696Y239685D01*
X573739Y239685D01*
X573747Y239686D01*
X573754Y239685D01*
X573844Y239706D01*
X573935Y239724D01*
X573942Y239729D01*
X573950Y239731D01*
X574098Y239833D01*
X586265Y252001D01*
X586645Y252159D01*
X587870Y252666D01*
X589095Y253173D01*
X589253Y253239D01*
X619074Y253239D01*
X619079Y253240D01*
X619084Y253239D01*
X619177Y253260D01*
X619271Y253278D01*
X619275Y253281D01*
X619280Y253282D01*
X619358Y253338D01*
X619436Y253391D01*
X619439Y253395D01*
X619443Y253398D01*
X619494Y253480D01*
X619546Y253559D01*
X619546Y253564D01*
X619549Y253569D01*
X619581Y253746D01*
X619581Y255821D01*
X619580Y255826D01*
X619581Y255832D01*
X619560Y255925D01*
X619542Y256018D01*
X619539Y256022D01*
X619538Y256027D01*
X619482Y256105D01*
X619429Y256184D01*
X619425Y256186D01*
X619422Y256191D01*
X619340Y256241D01*
X619261Y256293D01*
X619256Y256294D01*
X619251Y256297D01*
X619074Y256329D01*
X618536Y256329D01*
X617579Y257286D01*
X617574Y257289D01*
X617571Y257293D01*
X617491Y257345D01*
X617412Y257397D01*
X617407Y257398D01*
X617402Y257401D01*
X617308Y257417D01*
X617215Y257435D01*
X617210Y257434D01*
X617204Y257435D01*
X617112Y257413D01*
X617019Y257393D01*
X617014Y257390D01*
X617009Y257389D01*
X616861Y257286D01*
X615904Y256329D01*
X599536Y256329D01*
X597155Y258710D01*
X597155Y277412D01*
X597154Y277420D01*
X597155Y277428D01*
X597134Y277518D01*
X597116Y277609D01*
X597111Y277615D01*
X597109Y277623D01*
X597007Y277771D01*
X550315Y324463D01*
X550308Y324467D01*
X550304Y324473D01*
X550225Y324522D01*
X550148Y324574D01*
X550140Y324575D01*
X550133Y324579D01*
X549956Y324611D01*
X467013Y324611D01*
X464025Y325849D01*
X457929Y331945D01*
X456691Y334933D01*
X456691Y338167D01*
X457929Y341155D01*
X460215Y343441D01*
X460269Y343464D01*
X460270Y343464D01*
X461494Y343971D01*
X462719Y344478D01*
X463203Y344679D01*
X466437Y344679D01*
X469425Y343441D01*
X471848Y341017D01*
X471855Y341013D01*
X471860Y341007D01*
X471938Y340958D01*
X472015Y340906D01*
X472023Y340905D01*
X472030Y340901D01*
X472207Y340869D01*
X555150Y340869D01*
X558138Y339631D01*
X560496Y337273D01*
X596289Y301480D01*
X596292Y301478D01*
X596293Y301476D01*
X596374Y301424D01*
X596456Y301369D01*
X596459Y301368D01*
X596461Y301367D01*
X596557Y301350D01*
X596653Y301331D01*
X596656Y301332D01*
X596658Y301331D01*
X596755Y301353D01*
X596849Y301373D01*
X596851Y301374D01*
X596854Y301375D01*
X596934Y301431D01*
X597014Y301487D01*
X597015Y301489D01*
X597017Y301491D01*
X597069Y301574D01*
X597121Y301656D01*
X597122Y301659D01*
X597123Y301661D01*
X597155Y301838D01*
X597155Y307892D01*
X597154Y307900D01*
X597155Y307908D01*
X597134Y307998D01*
X597116Y308089D01*
X597111Y308095D01*
X597109Y308103D01*
X597007Y308251D01*
X561745Y343513D01*
X561738Y343517D01*
X561734Y343523D01*
X561655Y343572D01*
X561578Y343624D01*
X561570Y343625D01*
X561563Y343629D01*
X561386Y343661D01*
X478443Y343661D01*
X475455Y344899D01*
X473169Y347185D01*
X471931Y350173D01*
X471931Y353407D01*
X473169Y356395D01*
X475455Y358681D01*
X476680Y359188D01*
X477904Y359696D01*
X478443Y359919D01*
X566580Y359919D01*
X569568Y358681D01*
X607002Y321247D01*
X607005Y321245D01*
X607007Y321243D01*
X607010Y321241D01*
X607014Y321236D01*
X607092Y321187D01*
X607169Y321136D01*
X607177Y321134D01*
X607184Y321130D01*
X607361Y321098D01*
X615904Y321098D01*
X616861Y320140D01*
X616866Y320137D01*
X616869Y320133D01*
X616949Y320082D01*
X617028Y320029D01*
X617033Y320028D01*
X617038Y320026D01*
X617132Y320010D01*
X617225Y319992D01*
X617230Y319993D01*
X617235Y319992D01*
X617328Y320014D01*
X617421Y320033D01*
X617426Y320036D01*
X617431Y320038D01*
X617579Y320140D01*
X617833Y320394D01*
X617837Y320401D01*
X617843Y320406D01*
X617892Y320484D01*
X617944Y320561D01*
X617945Y320569D01*
X617949Y320576D01*
X617981Y320753D01*
X617981Y376597D01*
X617980Y376602D01*
X617981Y376608D01*
X617960Y376701D01*
X617942Y376794D01*
X617939Y376798D01*
X617938Y376803D01*
X617882Y376881D01*
X617829Y376960D01*
X617825Y376962D01*
X617822Y376967D01*
X617740Y377017D01*
X617661Y377069D01*
X617656Y377070D01*
X617651Y377073D01*
X617474Y377105D01*
X461603Y377105D01*
X461598Y377104D01*
X461592Y377104D01*
X461499Y377084D01*
X461406Y377065D01*
X461402Y377062D01*
X461397Y377061D01*
X461319Y377006D01*
X461240Y376952D01*
X461238Y376948D01*
X461233Y376945D01*
X461183Y376864D01*
X461131Y376784D01*
X461130Y376779D01*
X461127Y376775D01*
X461095Y376597D01*
X461095Y360950D01*
X459858Y357962D01*
X457500Y355604D01*
X411153Y309258D01*
X411149Y309251D01*
X411143Y309246D01*
X411094Y309168D01*
X411042Y309091D01*
X411041Y309083D01*
X411037Y309076D01*
X411005Y308899D01*
X411005Y307891D01*
X409390Y303993D01*
X406407Y301010D01*
X405841Y300775D01*
X404617Y300268D01*
X403392Y299761D01*
X402509Y299395D01*
X398291Y299395D01*
X394393Y301010D01*
X391410Y303993D01*
X389795Y307891D01*
X389795Y312109D01*
X391410Y316007D01*
X394393Y318990D01*
X394695Y319116D01*
X395920Y319623D01*
X397145Y320130D01*
X398291Y320605D01*
X399242Y320605D01*
X399251Y320607D01*
X399260Y320605D01*
X399436Y320643D01*
X399439Y320644D01*
X399533Y320683D01*
X399540Y320688D01*
X399549Y320690D01*
X399697Y320793D01*
X444689Y365785D01*
X444694Y365792D01*
X444700Y365796D01*
X444749Y365875D01*
X444800Y365952D01*
X444802Y365960D01*
X444806Y365967D01*
X444838Y366144D01*
X444838Y381656D01*
X444836Y381664D01*
X444838Y381672D01*
X444817Y381762D01*
X444798Y381853D01*
X444794Y381859D01*
X444792Y381867D01*
X444689Y382015D01*
X417924Y408780D01*
X416686Y411768D01*
X416686Y451104D01*
X416685Y451109D01*
X416686Y451114D01*
X416665Y451207D01*
X416647Y451301D01*
X416644Y451305D01*
X416643Y451310D01*
X416587Y451388D01*
X416534Y451466D01*
X416530Y451469D01*
X416527Y451473D01*
X416445Y451524D01*
X416366Y451576D01*
X416361Y451576D01*
X416356Y451579D01*
X416179Y451611D01*
X410462Y451611D01*
X410457Y451610D01*
X410452Y451611D01*
X410359Y451590D01*
X410265Y451572D01*
X410261Y451569D01*
X410256Y451568D01*
X410178Y451512D01*
X410100Y451459D01*
X410097Y451455D01*
X410093Y451452D01*
X410042Y451370D01*
X409990Y451291D01*
X409990Y451286D01*
X409987Y451281D01*
X409955Y451104D01*
X409955Y450056D01*
X407574Y447675D01*
X397638Y447675D01*
X397635Y447675D01*
X397633Y447675D01*
X397538Y447655D01*
X397441Y447636D01*
X397439Y447634D01*
X397436Y447634D01*
X397356Y447578D01*
X397275Y447523D01*
X397274Y447521D01*
X397272Y447519D01*
X397219Y447436D01*
X397166Y447355D01*
X397166Y447352D01*
X397164Y447350D01*
X397148Y447254D01*
X397131Y447158D01*
X397131Y447155D01*
X397131Y447153D01*
X397153Y447058D01*
X397174Y446962D01*
X397176Y446960D01*
X397176Y446957D01*
X397279Y446809D01*
X398955Y445134D01*
X398955Y427766D01*
X396574Y425385D01*
X388428Y425385D01*
X388425Y425385D01*
X388423Y425385D01*
X388328Y425365D01*
X388231Y425346D01*
X388229Y425344D01*
X388226Y425344D01*
X388146Y425288D01*
X388065Y425233D01*
X388064Y425231D01*
X388062Y425229D01*
X388009Y425146D01*
X387956Y425065D01*
X387956Y425062D01*
X387954Y425060D01*
X387938Y424964D01*
X387921Y424868D01*
X387921Y424865D01*
X387921Y424863D01*
X387943Y424768D01*
X387964Y424672D01*
X387966Y424670D01*
X387966Y424667D01*
X388069Y424519D01*
X389455Y423134D01*
X389455Y405766D01*
X388667Y404979D01*
X388663Y404972D01*
X388657Y404968D01*
X388608Y404889D01*
X388556Y404812D01*
X388555Y404804D01*
X388551Y404798D01*
X388519Y404620D01*
X388519Y389520D01*
X388520Y389512D01*
X388519Y389504D01*
X388540Y389415D01*
X388558Y389323D01*
X388563Y389317D01*
X388565Y389309D01*
X388667Y389161D01*
X389531Y388297D01*
X389536Y388294D01*
X389539Y388290D01*
X389619Y388239D01*
X389698Y388186D01*
X389703Y388185D01*
X389708Y388182D01*
X389802Y388166D01*
X389895Y388149D01*
X389900Y388150D01*
X389905Y388149D01*
X389998Y388170D01*
X390091Y388190D01*
X390096Y388193D01*
X390101Y388194D01*
X390249Y388297D01*
X391206Y389255D01*
X407574Y389255D01*
X409955Y386874D01*
X409955Y367506D01*
X407667Y365219D01*
X407663Y365212D01*
X407657Y365208D01*
X407608Y365129D01*
X407556Y365052D01*
X407555Y365044D01*
X407551Y365038D01*
X407519Y364860D01*
X407519Y358173D01*
X406281Y355185D01*
X403923Y352827D01*
X385753Y334658D01*
X385749Y334651D01*
X385743Y334646D01*
X385694Y334568D01*
X385642Y334491D01*
X385641Y334483D01*
X385637Y334476D01*
X385605Y334299D01*
X385605Y333291D01*
X383990Y329393D01*
X381007Y326410D01*
X380351Y326138D01*
X379126Y325631D01*
X377902Y325123D01*
X377109Y324795D01*
X372891Y324795D01*
X368993Y326410D01*
X366010Y329393D01*
X364395Y333291D01*
X364395Y337509D01*
X366010Y341407D01*
X368993Y344390D01*
X369205Y344478D01*
X370429Y344985D01*
X370430Y344985D01*
X371654Y345493D01*
X372879Y346000D01*
X372891Y346005D01*
X373899Y346005D01*
X373907Y346006D01*
X373914Y346005D01*
X374004Y346026D01*
X374095Y346044D01*
X374102Y346049D01*
X374110Y346051D01*
X374258Y346153D01*
X391113Y363008D01*
X391117Y363015D01*
X391123Y363020D01*
X391172Y363098D01*
X391224Y363175D01*
X391225Y363183D01*
X391229Y363190D01*
X391261Y363367D01*
X391261Y364860D01*
X391260Y364868D01*
X391261Y364876D01*
X391240Y364966D01*
X391222Y365057D01*
X391217Y365063D01*
X391215Y365071D01*
X391113Y365219D01*
X390249Y366083D01*
X390244Y366086D01*
X390241Y366090D01*
X390161Y366141D01*
X390082Y366194D01*
X390077Y366195D01*
X390072Y366198D01*
X389978Y366214D01*
X389885Y366231D01*
X389880Y366230D01*
X389874Y366231D01*
X389782Y366210D01*
X389689Y366190D01*
X389684Y366187D01*
X389679Y366186D01*
X389531Y366083D01*
X388574Y365125D01*
X372206Y365125D01*
X369825Y367506D01*
X369825Y386874D01*
X372113Y389161D01*
X372117Y389168D01*
X372123Y389172D01*
X372172Y389251D01*
X372224Y389328D01*
X372225Y389336D01*
X372229Y389342D01*
X372261Y389520D01*
X372261Y404620D01*
X372260Y404628D01*
X372261Y404636D01*
X372240Y404726D01*
X372222Y404817D01*
X372217Y404823D01*
X372215Y404831D01*
X372113Y404979D01*
X371325Y405766D01*
X371325Y423134D01*
X373706Y425515D01*
X381852Y425515D01*
X381855Y425515D01*
X381857Y425515D01*
X381952Y425535D01*
X382049Y425554D01*
X382051Y425556D01*
X382054Y425556D01*
X382134Y425612D01*
X382215Y425667D01*
X382216Y425669D01*
X382218Y425671D01*
X382271Y425754D01*
X382324Y425835D01*
X382324Y425838D01*
X382326Y425840D01*
X382342Y425936D01*
X382359Y426032D01*
X382359Y426035D01*
X382359Y426037D01*
X382337Y426132D01*
X382316Y426228D01*
X382314Y426230D01*
X382314Y426233D01*
X382211Y426381D01*
X380825Y427766D01*
X380825Y433809D01*
X380824Y433817D01*
X380825Y433824D01*
X380804Y433914D01*
X380786Y434005D01*
X380781Y434012D01*
X380779Y434020D01*
X380677Y434168D01*
X379105Y435739D01*
X379100Y435743D01*
X379096Y435748D01*
X379017Y435798D01*
X378938Y435850D01*
X378932Y435851D01*
X378926Y435855D01*
X378833Y435870D01*
X378741Y435888D01*
X378735Y435886D01*
X378728Y435887D01*
X378552Y435849D01*
X378202Y435704D01*
X376977Y435197D01*
X376747Y435101D01*
X371763Y435101D01*
X368775Y436339D01*
X367643Y437472D01*
X367640Y437473D01*
X367639Y437475D01*
X367559Y437527D01*
X367476Y437583D01*
X367473Y437583D01*
X367471Y437584D01*
X367375Y437602D01*
X367279Y437620D01*
X367276Y437620D01*
X367274Y437620D01*
X367177Y437599D01*
X367083Y437579D01*
X367081Y437577D01*
X367078Y437576D01*
X366998Y437520D01*
X366918Y437464D01*
X366917Y437462D01*
X366915Y437460D01*
X366862Y437377D01*
X366811Y437295D01*
X366810Y437293D01*
X366809Y437290D01*
X366777Y437113D01*
X366777Y383670D01*
X366778Y383663D01*
X366777Y383655D01*
X366798Y383565D01*
X366816Y383474D01*
X366821Y383467D01*
X366823Y383460D01*
X366925Y383312D01*
X367332Y382905D01*
X368527Y380021D01*
X368527Y376899D01*
X367332Y374015D01*
X365125Y371808D01*
X365083Y371790D01*
X363858Y371283D01*
X362634Y370776D01*
X362633Y370776D01*
X362241Y370613D01*
X359119Y370613D01*
X356235Y371808D01*
X354028Y374015D01*
X352833Y376899D01*
X352833Y380021D01*
X354028Y382905D01*
X354435Y383312D01*
X354439Y383318D01*
X354445Y383323D01*
X354494Y383401D01*
X354546Y383479D01*
X354547Y383486D01*
X354551Y383493D01*
X354583Y383670D01*
X354583Y492458D01*
X354582Y492466D01*
X354583Y492474D01*
X354562Y492564D01*
X354544Y492655D01*
X354539Y492661D01*
X354537Y492669D01*
X354435Y492817D01*
X351935Y495316D01*
X351935Y512269D01*
X351935Y512271D01*
X351935Y512274D01*
X351915Y512369D01*
X351896Y512465D01*
X351894Y512467D01*
X351894Y512470D01*
X351838Y512551D01*
X351783Y512631D01*
X351781Y512632D01*
X351779Y512635D01*
X351696Y512688D01*
X351615Y512740D01*
X351612Y512741D01*
X351610Y512742D01*
X351514Y512758D01*
X351418Y512776D01*
X351415Y512775D01*
X351413Y512776D01*
X351319Y512754D01*
X351222Y512732D01*
X351220Y512731D01*
X351217Y512730D01*
X351069Y512627D01*
X346605Y508163D01*
X346601Y508157D01*
X346595Y508152D01*
X346546Y508073D01*
X346494Y507996D01*
X346493Y507989D01*
X346489Y507982D01*
X346457Y507805D01*
X346457Y398910D01*
X346458Y398903D01*
X346457Y398895D01*
X346478Y398805D01*
X346496Y398714D01*
X346501Y398707D01*
X346503Y398700D01*
X346605Y398552D01*
X347012Y398145D01*
X348207Y395261D01*
X348207Y392139D01*
X347012Y389255D01*
X344805Y387048D01*
X344708Y387008D01*
X343484Y386501D01*
X342259Y385993D01*
X341921Y385853D01*
X338799Y385853D01*
X335915Y387048D01*
X333708Y389255D01*
X332513Y392139D01*
X332513Y395261D01*
X333708Y398145D01*
X334115Y398552D01*
X334119Y398558D01*
X334125Y398563D01*
X334174Y398641D01*
X334226Y398719D01*
X334227Y398726D01*
X334231Y398733D01*
X334263Y398910D01*
X334263Y511753D01*
X335191Y513993D01*
X345867Y524669D01*
X346809Y525059D01*
X348034Y525566D01*
X348107Y525597D01*
X352638Y525597D01*
X352646Y525598D01*
X352654Y525597D01*
X352744Y525618D01*
X352835Y525636D01*
X352841Y525641D01*
X352849Y525643D01*
X352997Y525745D01*
X354316Y527065D01*
X366684Y527065D01*
X368957Y524791D01*
X368960Y524790D01*
X368961Y524787D01*
X369042Y524735D01*
X369124Y524680D01*
X369127Y524680D01*
X369129Y524678D01*
X369225Y524661D01*
X369321Y524643D01*
X369324Y524643D01*
X369326Y524643D01*
X369423Y524664D01*
X369517Y524684D01*
X369519Y524686D01*
X369522Y524686D01*
X369602Y524743D01*
X369682Y524798D01*
X369683Y524801D01*
X369685Y524802D01*
X369737Y524885D01*
X369789Y524968D01*
X369790Y524970D01*
X369791Y524972D01*
X369823Y525150D01*
X369823Y645273D01*
X369822Y645280D01*
X369823Y645288D01*
X369802Y645378D01*
X369784Y645469D01*
X369779Y645476D01*
X369777Y645483D01*
X369675Y645631D01*
X367424Y647882D01*
X365442Y652667D01*
X365442Y675753D01*
X367424Y680538D01*
X371086Y684200D01*
X371413Y684336D01*
X371414Y684336D01*
X372638Y684843D01*
X373863Y685350D01*
X375087Y685857D01*
X375870Y686182D01*
X381050Y686182D01*
X385834Y684200D01*
X389496Y680538D01*
X391478Y675753D01*
X391478Y652667D01*
X389496Y647882D01*
X385834Y644220D01*
X385746Y644184D01*
X384521Y643676D01*
X383297Y643169D01*
X382330Y642769D01*
X382324Y642765D01*
X382318Y642764D01*
X382241Y642709D01*
X382163Y642657D01*
X382160Y642651D01*
X382155Y642648D01*
X382105Y642568D01*
X382053Y642489D01*
X382052Y642483D01*
X382049Y642477D01*
X382017Y642300D01*
X382017Y524807D01*
X382030Y524740D01*
X382035Y524671D01*
X382050Y524642D01*
X382056Y524611D01*
X382095Y524554D01*
X382126Y524492D01*
X382151Y524472D01*
X382169Y524445D01*
X382227Y524407D01*
X382279Y524363D01*
X382310Y524353D01*
X382337Y524336D01*
X382405Y524324D01*
X382471Y524303D01*
X382503Y524306D01*
X382534Y524300D01*
X382602Y524315D01*
X382670Y524322D01*
X382699Y524337D01*
X382730Y524344D01*
X382786Y524384D01*
X382847Y524416D01*
X382869Y524443D01*
X382893Y524460D01*
X382920Y524503D01*
X382963Y524554D01*
X382967Y524560D01*
X383440Y525033D01*
X384019Y525368D01*
X384665Y525541D01*
X388485Y525541D01*
X388485Y520008D01*
X388486Y520003D01*
X388485Y519998D01*
X388506Y519905D01*
X388524Y519812D01*
X388527Y519807D01*
X388528Y519802D01*
X388584Y519724D01*
X388637Y519646D01*
X388641Y519643D01*
X388644Y519639D01*
X388726Y519588D01*
X388805Y519537D01*
X388810Y519536D01*
X388815Y519533D01*
X388992Y519501D01*
X389501Y519501D01*
X389501Y519499D01*
X388992Y519499D01*
X388987Y519498D01*
X388982Y519499D01*
X388889Y519478D01*
X388796Y519460D01*
X388791Y519457D01*
X388786Y519455D01*
X388708Y519400D01*
X388630Y519347D01*
X388627Y519343D01*
X388623Y519339D01*
X388572Y519258D01*
X388521Y519179D01*
X388520Y519174D01*
X388517Y519169D01*
X388485Y518992D01*
X388485Y510508D01*
X388486Y510503D01*
X388485Y510498D01*
X388506Y510405D01*
X388524Y510312D01*
X388527Y510307D01*
X388528Y510302D01*
X388584Y510224D01*
X388637Y510146D01*
X388641Y510143D01*
X388644Y510139D01*
X388726Y510088D01*
X388805Y510037D01*
X388810Y510036D01*
X388815Y510033D01*
X388992Y510001D01*
X389501Y510001D01*
X389501Y509492D01*
X389502Y509487D01*
X389501Y509482D01*
X389522Y509389D01*
X389540Y509296D01*
X389543Y509291D01*
X389545Y509286D01*
X389600Y509208D01*
X389653Y509130D01*
X389657Y509127D01*
X389661Y509123D01*
X389742Y509072D01*
X389821Y509021D01*
X389826Y509020D01*
X389831Y509017D01*
X390008Y508985D01*
X396541Y508985D01*
X396541Y507418D01*
X396542Y507410D01*
X396541Y507402D01*
X396562Y507312D01*
X396580Y507221D01*
X396585Y507215D01*
X396587Y507207D01*
X396689Y507059D01*
X397003Y506745D01*
X397010Y506741D01*
X397014Y506735D01*
X397093Y506686D01*
X397170Y506634D01*
X397178Y506633D01*
X397184Y506629D01*
X397362Y506597D01*
X404488Y506597D01*
X404493Y506598D01*
X404498Y506597D01*
X404591Y506618D01*
X404685Y506636D01*
X404689Y506639D01*
X404694Y506640D01*
X404772Y506696D01*
X404850Y506749D01*
X404853Y506753D01*
X404857Y506756D01*
X404908Y506838D01*
X404960Y506917D01*
X404960Y506922D01*
X404963Y506927D01*
X404995Y507104D01*
X404995Y508684D01*
X407031Y510719D01*
X407034Y510723D01*
X407038Y510726D01*
X407089Y510806D01*
X407142Y510886D01*
X407143Y510891D01*
X407145Y510896D01*
X407161Y510989D01*
X407179Y511083D01*
X407178Y511088D01*
X407179Y511093D01*
X407157Y511186D01*
X407138Y511279D01*
X407134Y511283D01*
X407133Y511288D01*
X407030Y511436D01*
X407027Y511440D01*
X406692Y512019D01*
X406519Y512665D01*
X406519Y518485D01*
X416052Y518485D01*
X416057Y518486D01*
X416062Y518485D01*
X416155Y518506D01*
X416248Y518524D01*
X416253Y518527D01*
X416258Y518528D01*
X416336Y518584D01*
X416414Y518637D01*
X416417Y518641D01*
X416421Y518644D01*
X416472Y518726D01*
X416523Y518805D01*
X416524Y518810D01*
X416527Y518815D01*
X416559Y518992D01*
X416559Y519501D01*
X416561Y519501D01*
X416561Y518992D01*
X416562Y518987D01*
X416561Y518982D01*
X416582Y518889D01*
X416600Y518796D01*
X416603Y518791D01*
X416605Y518786D01*
X416660Y518708D01*
X416713Y518630D01*
X416717Y518627D01*
X416721Y518623D01*
X416802Y518572D01*
X416881Y518521D01*
X416886Y518520D01*
X416891Y518517D01*
X417068Y518485D01*
X426601Y518485D01*
X426601Y512665D01*
X426428Y512019D01*
X426093Y511440D01*
X426090Y511436D01*
X426087Y511432D01*
X426082Y511429D01*
X426031Y511348D01*
X425979Y511270D01*
X425978Y511264D01*
X425975Y511260D01*
X425959Y511166D01*
X425941Y511073D01*
X425942Y511067D01*
X425941Y511062D01*
X425963Y510969D01*
X425982Y510877D01*
X425985Y510872D01*
X425987Y510867D01*
X426089Y510719D01*
X428125Y508684D01*
X428125Y507104D01*
X428126Y507099D01*
X428125Y507094D01*
X428146Y507001D01*
X428164Y506907D01*
X428167Y506903D01*
X428168Y506898D01*
X428224Y506820D01*
X428277Y506742D01*
X428281Y506739D01*
X428284Y506735D01*
X428366Y506684D01*
X428445Y506632D01*
X428450Y506632D01*
X428455Y506629D01*
X428632Y506597D01*
X452248Y506597D01*
X452253Y506598D01*
X452258Y506597D01*
X452351Y506618D01*
X452445Y506636D01*
X452449Y506639D01*
X452454Y506640D01*
X452532Y506696D01*
X452610Y506749D01*
X452613Y506753D01*
X452617Y506756D01*
X452668Y506838D01*
X452720Y506917D01*
X452720Y506922D01*
X452723Y506927D01*
X452755Y507104D01*
X452755Y508684D01*
X453713Y509641D01*
X453716Y509646D01*
X453720Y509649D01*
X453771Y509729D01*
X453824Y509808D01*
X453825Y509813D01*
X453828Y509818D01*
X453844Y509912D01*
X453861Y510005D01*
X453860Y510010D01*
X453861Y510016D01*
X453840Y510108D01*
X453820Y510201D01*
X453817Y510206D01*
X453816Y510211D01*
X453713Y510359D01*
X452755Y511316D01*
X452755Y527684D01*
X455136Y530065D01*
X456184Y530065D01*
X456189Y530066D01*
X456194Y530065D01*
X456287Y530086D01*
X456381Y530104D01*
X456385Y530107D01*
X456390Y530108D01*
X456468Y530164D01*
X456546Y530217D01*
X456549Y530221D01*
X456553Y530224D01*
X456604Y530306D01*
X456656Y530385D01*
X456656Y530390D01*
X456659Y530395D01*
X456691Y530572D01*
X456691Y548987D01*
X457929Y551975D01*
X460215Y554261D01*
X460743Y554480D01*
X461967Y554987D01*
X463192Y555494D01*
X463203Y555499D01*
X466437Y555499D01*
X469425Y554261D01*
X471711Y551975D01*
X472949Y548987D01*
X472949Y530572D01*
X472950Y530567D01*
X472949Y530562D01*
X472970Y530469D01*
X472988Y530375D01*
X472991Y530371D01*
X472992Y530366D01*
X473048Y530288D01*
X473101Y530210D01*
X473105Y530207D01*
X473108Y530203D01*
X473190Y530152D01*
X473269Y530100D01*
X473274Y530100D01*
X473279Y530097D01*
X473456Y530065D01*
X474504Y530065D01*
X476885Y527684D01*
X476885Y511316D01*
X475927Y510359D01*
X475924Y510354D01*
X475920Y510351D01*
X475869Y510271D01*
X475816Y510192D01*
X475815Y510187D01*
X475812Y510182D01*
X475796Y510088D01*
X475779Y509995D01*
X475780Y509990D01*
X475779Y509985D01*
X475800Y509892D01*
X475820Y509799D01*
X475823Y509794D01*
X475824Y509789D01*
X475927Y509641D01*
X476885Y508684D01*
X476885Y507104D01*
X476886Y507099D01*
X476885Y507094D01*
X476906Y507001D01*
X476924Y506907D01*
X476927Y506903D01*
X476928Y506898D01*
X476984Y506820D01*
X477037Y506742D01*
X477041Y506739D01*
X477044Y506735D01*
X477126Y506684D01*
X477205Y506632D01*
X477210Y506632D01*
X477215Y506629D01*
X477392Y506597D01*
X492888Y506597D01*
X492893Y506598D01*
X492898Y506597D01*
X492991Y506618D01*
X493085Y506636D01*
X493089Y506639D01*
X493094Y506640D01*
X493172Y506696D01*
X493250Y506749D01*
X493253Y506753D01*
X493257Y506756D01*
X493308Y506838D01*
X493360Y506917D01*
X493360Y506922D01*
X493363Y506927D01*
X493395Y507104D01*
X493395Y508684D01*
X494353Y509641D01*
X494356Y509646D01*
X494360Y509649D01*
X494411Y509729D01*
X494464Y509808D01*
X494465Y509813D01*
X494468Y509818D01*
X494484Y509912D01*
X494501Y510005D01*
X494500Y510010D01*
X494501Y510016D01*
X494480Y510108D01*
X494460Y510201D01*
X494457Y510206D01*
X494456Y510211D01*
X494353Y510359D01*
X493395Y511316D01*
X493395Y527684D01*
X495776Y530065D01*
X496824Y530065D01*
X496829Y530066D01*
X496834Y530065D01*
X496927Y530086D01*
X497021Y530104D01*
X497025Y530107D01*
X497030Y530108D01*
X497108Y530164D01*
X497186Y530217D01*
X497189Y530221D01*
X497193Y530224D01*
X497244Y530306D01*
X497296Y530385D01*
X497296Y530390D01*
X497299Y530395D01*
X497331Y530572D01*
X497331Y644765D01*
X497330Y644772D01*
X497331Y644780D01*
X497310Y644870D01*
X497292Y644961D01*
X497287Y644968D01*
X497285Y644975D01*
X497183Y645123D01*
X494424Y647882D01*
X492442Y652667D01*
X492442Y675753D01*
X494424Y680538D01*
X498086Y684200D01*
X498413Y684336D01*
X498414Y684336D01*
X499638Y684843D01*
X500863Y685350D01*
X502087Y685857D01*
X502870Y686182D01*
X508050Y686182D01*
X512834Y684200D01*
X516496Y680538D01*
X518478Y675753D01*
X518478Y652667D01*
X516496Y647882D01*
X513737Y645123D01*
X513733Y645117D01*
X513727Y645112D01*
X513678Y645033D01*
X513626Y644956D01*
X513625Y644949D01*
X513621Y644942D01*
X513589Y644765D01*
X513589Y530572D01*
X513590Y530567D01*
X513589Y530562D01*
X513610Y530469D01*
X513628Y530375D01*
X513631Y530371D01*
X513632Y530366D01*
X513688Y530288D01*
X513741Y530210D01*
X513745Y530207D01*
X513748Y530203D01*
X513830Y530152D01*
X513909Y530100D01*
X513914Y530100D01*
X513919Y530097D01*
X514096Y530065D01*
X515144Y530065D01*
X517525Y527684D01*
X517525Y511316D01*
X516567Y510359D01*
X516564Y510354D01*
X516560Y510351D01*
X516509Y510271D01*
X516456Y510192D01*
X516455Y510187D01*
X516452Y510182D01*
X516436Y510088D01*
X516419Y509995D01*
X516420Y509990D01*
X516419Y509985D01*
X516440Y509892D01*
X516460Y509799D01*
X516463Y509794D01*
X516464Y509789D01*
X516567Y509641D01*
X517525Y508684D01*
X517525Y507104D01*
X517526Y507099D01*
X517525Y507094D01*
X517546Y507001D01*
X517564Y506907D01*
X517567Y506903D01*
X517568Y506898D01*
X517624Y506820D01*
X517677Y506742D01*
X517681Y506739D01*
X517684Y506735D01*
X517766Y506684D01*
X517845Y506632D01*
X517850Y506632D01*
X517855Y506629D01*
X518032Y506597D01*
X534028Y506597D01*
X534033Y506598D01*
X534038Y506597D01*
X534131Y506618D01*
X534225Y506636D01*
X534229Y506639D01*
X534234Y506640D01*
X534312Y506696D01*
X534390Y506749D01*
X534393Y506753D01*
X534397Y506756D01*
X534448Y506838D01*
X534500Y506917D01*
X534500Y506922D01*
X534503Y506927D01*
X534535Y507104D01*
X534535Y508684D01*
X536571Y510719D01*
X536574Y510723D01*
X536578Y510726D01*
X536629Y510806D01*
X536682Y510886D01*
X536683Y510891D01*
X536685Y510896D01*
X536701Y510989D01*
X536719Y511083D01*
X536718Y511088D01*
X536719Y511093D01*
X536697Y511186D01*
X536678Y511279D01*
X536674Y511283D01*
X536673Y511288D01*
X536570Y511436D01*
X536567Y511440D01*
X536232Y512019D01*
X536059Y512665D01*
X536059Y518485D01*
X545592Y518485D01*
X545597Y518486D01*
X545602Y518485D01*
X545695Y518506D01*
X545788Y518524D01*
X545793Y518527D01*
X545798Y518528D01*
X545876Y518584D01*
X545954Y518637D01*
X545957Y518641D01*
X545961Y518644D01*
X546012Y518726D01*
X546063Y518805D01*
X546064Y518810D01*
X546067Y518815D01*
X546099Y518992D01*
X546099Y519501D01*
X546101Y519501D01*
X546101Y518992D01*
X546102Y518987D01*
X546101Y518982D01*
X546122Y518889D01*
X546140Y518796D01*
X546143Y518791D01*
X546145Y518786D01*
X546200Y518708D01*
X546253Y518630D01*
X546257Y518627D01*
X546261Y518623D01*
X546342Y518572D01*
X546421Y518521D01*
X546426Y518520D01*
X546431Y518517D01*
X546608Y518485D01*
X556141Y518485D01*
X556141Y512665D01*
X555968Y512019D01*
X555633Y511440D01*
X555630Y511436D01*
X555627Y511432D01*
X555622Y511429D01*
X555571Y511348D01*
X555519Y511270D01*
X555518Y511264D01*
X555515Y511260D01*
X555499Y511166D01*
X555481Y511073D01*
X555482Y511067D01*
X555481Y511062D01*
X555503Y510969D01*
X555522Y510877D01*
X555525Y510872D01*
X555527Y510867D01*
X555629Y510719D01*
X557665Y508684D01*
X557665Y492316D01*
X557451Y492103D01*
X557450Y492100D01*
X557447Y492099D01*
X557395Y492018D01*
X557340Y491936D01*
X557340Y491933D01*
X557338Y491931D01*
X557321Y491835D01*
X557303Y491739D01*
X557303Y491736D01*
X557303Y491734D01*
X557324Y491637D01*
X557344Y491543D01*
X557346Y491541D01*
X557346Y491538D01*
X557404Y491457D01*
X557458Y491378D01*
X557461Y491377D01*
X557462Y491375D01*
X557546Y491322D01*
X557628Y491271D01*
X557630Y491270D01*
X557632Y491269D01*
X557810Y491237D01*
X558605Y491237D01*
X558612Y491238D01*
X558620Y491237D01*
X558710Y491258D01*
X558801Y491276D01*
X558808Y491281D01*
X558815Y491283D01*
X558963Y491385D01*
X570070Y502492D01*
X571857Y504279D01*
X573041Y504769D01*
X574097Y505207D01*
X604463Y505207D01*
X606703Y504279D01*
X616299Y494683D01*
X617227Y492443D01*
X617227Y485822D01*
X617228Y485817D01*
X617227Y485812D01*
X617248Y485719D01*
X617266Y485625D01*
X617269Y485621D01*
X617270Y485616D01*
X617326Y485538D01*
X617379Y485460D01*
X617383Y485457D01*
X617386Y485453D01*
X617468Y485402D01*
X617547Y485350D01*
X617552Y485350D01*
X617557Y485347D01*
X617734Y485315D01*
X621314Y485315D01*
X622689Y483939D01*
X622696Y483935D01*
X622700Y483929D01*
X622779Y483880D01*
X622856Y483828D01*
X622864Y483827D01*
X622870Y483823D01*
X623048Y483791D01*
X623131Y483791D01*
X623131Y483708D01*
X623132Y483700D01*
X623131Y483692D01*
X623152Y483603D01*
X623170Y483511D01*
X623175Y483505D01*
X623177Y483497D01*
X623279Y483349D01*
X623771Y482857D01*
X623776Y482854D01*
X623779Y482850D01*
X623859Y482799D01*
X623938Y482746D01*
X623943Y482745D01*
X623948Y482742D01*
X624042Y482726D01*
X624135Y482709D01*
X624140Y482710D01*
X624145Y482709D01*
X624238Y482730D01*
X624331Y482750D01*
X624335Y482753D01*
X624341Y482754D01*
X624489Y482857D01*
X624981Y483349D01*
X624985Y483356D01*
X624991Y483360D01*
X625040Y483439D01*
X625092Y483516D01*
X625093Y483524D01*
X625097Y483530D01*
X625129Y483708D01*
X625129Y483791D01*
X625212Y483791D01*
X625220Y483792D01*
X625228Y483791D01*
X625318Y483812D01*
X625409Y483830D01*
X625415Y483835D01*
X625423Y483837D01*
X625571Y483939D01*
X626946Y485315D01*
X673314Y485315D01*
X675695Y482934D01*
X675695Y464566D01*
X673314Y462185D01*
X626946Y462185D01*
X625571Y463561D01*
X625564Y463565D01*
X625560Y463571D01*
X625481Y463620D01*
X625404Y463672D01*
X625396Y463673D01*
X625390Y463677D01*
X625212Y463709D01*
X625129Y463709D01*
X625129Y463792D01*
X625128Y463800D01*
X625129Y463808D01*
X625108Y463898D01*
X625090Y463989D01*
X625085Y463995D01*
X625083Y464003D01*
X624981Y464151D01*
X624489Y464643D01*
X624484Y464646D01*
X624481Y464650D01*
X624401Y464701D01*
X624322Y464754D01*
X624317Y464755D01*
X624312Y464758D01*
X624218Y464774D01*
X624125Y464791D01*
X624120Y464790D01*
X624114Y464791D01*
X624022Y464770D01*
X623929Y464750D01*
X623924Y464747D01*
X623919Y464746D01*
X623771Y464643D01*
X623279Y464151D01*
X623275Y464144D01*
X623268Y464140D01*
X623219Y464061D01*
X623168Y463984D01*
X623167Y463976D01*
X623163Y463969D01*
X623131Y463792D01*
X623131Y463709D01*
X623048Y463709D01*
X623040Y463708D01*
X623032Y463709D01*
X622942Y463688D01*
X622851Y463670D01*
X622845Y463665D01*
X622837Y463663D01*
X622689Y463561D01*
X621314Y462185D01*
X611234Y462185D01*
X611229Y462184D01*
X611224Y462185D01*
X611131Y462164D01*
X611037Y462146D01*
X611033Y462143D01*
X611028Y462142D01*
X610950Y462086D01*
X610872Y462033D01*
X610869Y462029D01*
X610865Y462026D01*
X610814Y461944D01*
X610762Y461865D01*
X610762Y461860D01*
X610759Y461855D01*
X610727Y461678D01*
X610727Y454032D01*
X610728Y454027D01*
X610727Y454022D01*
X610748Y453929D01*
X610766Y453835D01*
X610769Y453831D01*
X610770Y453826D01*
X610826Y453748D01*
X610879Y453670D01*
X610883Y453667D01*
X610886Y453663D01*
X610968Y453612D01*
X611047Y453560D01*
X611052Y453560D01*
X611057Y453557D01*
X611234Y453525D01*
X613364Y453525D01*
X615399Y451489D01*
X615403Y451486D01*
X615406Y451482D01*
X615486Y451431D01*
X615566Y451378D01*
X615571Y451377D01*
X615576Y451375D01*
X615669Y451359D01*
X615763Y451341D01*
X615768Y451342D01*
X615773Y451341D01*
X615866Y451363D01*
X615959Y451382D01*
X615963Y451386D01*
X615968Y451387D01*
X616116Y451490D01*
X616120Y451493D01*
X616699Y451828D01*
X617345Y452001D01*
X623165Y452001D01*
X623165Y442468D01*
X623166Y442463D01*
X623165Y442458D01*
X623186Y442365D01*
X623204Y442272D01*
X623207Y442267D01*
X623208Y442262D01*
X623264Y442184D01*
X623317Y442106D01*
X623321Y442103D01*
X623324Y442099D01*
X623406Y442048D01*
X623485Y441997D01*
X623490Y441996D01*
X623495Y441993D01*
X623672Y441961D01*
X624181Y441961D01*
X624181Y441959D01*
X623672Y441959D01*
X623667Y441958D01*
X623662Y441959D01*
X623569Y441938D01*
X623476Y441920D01*
X623471Y441917D01*
X623466Y441915D01*
X623388Y441860D01*
X623310Y441807D01*
X623307Y441803D01*
X623303Y441799D01*
X623252Y441718D01*
X623201Y441639D01*
X623200Y441634D01*
X623197Y441629D01*
X623165Y441452D01*
X623165Y431919D01*
X617345Y431919D01*
X616699Y432092D01*
X616120Y432427D01*
X616116Y432430D01*
X616112Y432433D01*
X616109Y432438D01*
X616028Y432489D01*
X615950Y432541D01*
X615944Y432542D01*
X615940Y432545D01*
X615846Y432561D01*
X615753Y432579D01*
X615747Y432578D01*
X615742Y432579D01*
X615649Y432557D01*
X615557Y432538D01*
X615552Y432535D01*
X615547Y432533D01*
X615399Y432431D01*
X613364Y430395D01*
X596996Y430395D01*
X594615Y432776D01*
X594615Y435906D01*
X594614Y435911D01*
X594615Y435916D01*
X594594Y436009D01*
X594576Y436103D01*
X594573Y436107D01*
X594572Y436112D01*
X594516Y436190D01*
X594463Y436268D01*
X594459Y436271D01*
X594456Y436275D01*
X594374Y436326D01*
X594295Y436378D01*
X594290Y436378D01*
X594285Y436381D01*
X594108Y436413D01*
X593428Y436413D01*
X593419Y436411D01*
X593410Y436413D01*
X593234Y436375D01*
X593232Y436374D01*
X592840Y436211D01*
X592839Y436211D01*
X591615Y435704D01*
X590841Y435383D01*
X587719Y435383D01*
X584835Y436578D01*
X582628Y438785D01*
X581433Y441669D01*
X581433Y444791D01*
X582628Y447675D01*
X584835Y449882D01*
X585086Y449986D01*
X586311Y450493D01*
X587535Y451001D01*
X587719Y451077D01*
X590841Y451077D01*
X593725Y449882D01*
X593749Y449858D01*
X593752Y449856D01*
X593753Y449854D01*
X593833Y449802D01*
X593916Y449747D01*
X593919Y449746D01*
X593921Y449745D01*
X594017Y449727D01*
X594113Y449709D01*
X594116Y449710D01*
X594118Y449709D01*
X594215Y449731D01*
X594309Y449751D01*
X594311Y449752D01*
X594314Y449753D01*
X594393Y449809D01*
X594474Y449865D01*
X594475Y449867D01*
X594477Y449869D01*
X594529Y449951D01*
X594581Y450034D01*
X594582Y450037D01*
X594583Y450039D01*
X594615Y450216D01*
X594615Y451144D01*
X596996Y453525D01*
X598026Y453525D01*
X598031Y453526D01*
X598036Y453525D01*
X598129Y453546D01*
X598223Y453564D01*
X598227Y453567D01*
X598232Y453568D01*
X598310Y453624D01*
X598388Y453677D01*
X598391Y453681D01*
X598395Y453684D01*
X598446Y453766D01*
X598498Y453845D01*
X598498Y453850D01*
X598501Y453855D01*
X598533Y454032D01*
X598533Y461678D01*
X598532Y461683D01*
X598533Y461688D01*
X598512Y461781D01*
X598494Y461875D01*
X598491Y461879D01*
X598490Y461884D01*
X598434Y461962D01*
X598381Y462040D01*
X598377Y462043D01*
X598374Y462047D01*
X598292Y462098D01*
X598213Y462150D01*
X598208Y462150D01*
X598203Y462153D01*
X598026Y462185D01*
X581446Y462185D01*
X579065Y464566D01*
X579065Y467146D01*
X579064Y467151D01*
X579065Y467156D01*
X579044Y467249D01*
X579026Y467343D01*
X579023Y467347D01*
X579022Y467352D01*
X578966Y467430D01*
X578913Y467508D01*
X578909Y467511D01*
X578906Y467515D01*
X578824Y467566D01*
X578745Y467618D01*
X578740Y467618D01*
X578735Y467621D01*
X578558Y467653D01*
X501820Y467653D01*
X501813Y467652D01*
X501805Y467653D01*
X501715Y467632D01*
X501624Y467614D01*
X501617Y467609D01*
X501610Y467607D01*
X501462Y467505D01*
X499745Y465788D01*
X499368Y465632D01*
X498143Y465124D01*
X496919Y464617D01*
X496918Y464617D01*
X496861Y464593D01*
X493739Y464593D01*
X490855Y465788D01*
X488648Y467995D01*
X487453Y470879D01*
X487453Y474001D01*
X488648Y476885D01*
X490855Y479092D01*
X491614Y479407D01*
X492839Y479914D01*
X493739Y480287D01*
X496861Y480287D01*
X497830Y479885D01*
X497839Y479884D01*
X497847Y479879D01*
X498024Y479847D01*
X503512Y479847D01*
X503514Y479847D01*
X503517Y479847D01*
X503612Y479867D01*
X503708Y479886D01*
X503710Y479888D01*
X503713Y479888D01*
X503792Y479944D01*
X503874Y479999D01*
X503875Y480001D01*
X503878Y480003D01*
X503930Y480085D01*
X503983Y480167D01*
X503984Y480170D01*
X503985Y480172D01*
X504001Y480268D01*
X504019Y480364D01*
X504018Y480367D01*
X504019Y480370D01*
X503997Y480464D01*
X503975Y480560D01*
X503974Y480562D01*
X503973Y480565D01*
X503896Y480676D01*
X502693Y483579D01*
X502693Y486701D01*
X503742Y489234D01*
X503743Y489238D01*
X503745Y489241D01*
X503763Y489336D01*
X503781Y489431D01*
X503780Y489434D01*
X503781Y489438D01*
X503760Y489533D01*
X503740Y489627D01*
X503738Y489630D01*
X503737Y489634D01*
X503681Y489713D01*
X503627Y489792D01*
X503624Y489794D01*
X503621Y489797D01*
X503540Y489848D01*
X503458Y489901D01*
X503455Y489901D01*
X503451Y489903D01*
X503274Y489935D01*
X495776Y489935D01*
X493395Y492316D01*
X493395Y493896D01*
X493394Y493901D01*
X493395Y493906D01*
X493374Y493999D01*
X493356Y494093D01*
X493353Y494097D01*
X493352Y494102D01*
X493296Y494180D01*
X493243Y494258D01*
X493239Y494261D01*
X493236Y494265D01*
X493154Y494316D01*
X493075Y494368D01*
X493070Y494368D01*
X493065Y494371D01*
X492888Y494403D01*
X477392Y494403D01*
X477387Y494402D01*
X477382Y494403D01*
X477289Y494382D01*
X477195Y494364D01*
X477191Y494361D01*
X477186Y494360D01*
X477108Y494304D01*
X477030Y494251D01*
X477027Y494247D01*
X477023Y494244D01*
X476972Y494162D01*
X476920Y494083D01*
X476920Y494078D01*
X476917Y494073D01*
X476885Y493896D01*
X476885Y492316D01*
X474504Y489935D01*
X455136Y489935D01*
X452755Y492316D01*
X452755Y493896D01*
X452754Y493901D01*
X452755Y493906D01*
X452734Y493999D01*
X452716Y494093D01*
X452713Y494097D01*
X452712Y494102D01*
X452656Y494180D01*
X452603Y494258D01*
X452599Y494261D01*
X452596Y494265D01*
X452514Y494316D01*
X452435Y494368D01*
X452430Y494368D01*
X452425Y494371D01*
X452248Y494403D01*
X429027Y494403D01*
X429024Y494403D01*
X429022Y494403D01*
X428927Y494383D01*
X428831Y494364D01*
X428828Y494362D01*
X428826Y494362D01*
X428745Y494306D01*
X428665Y494251D01*
X428663Y494249D01*
X428661Y494247D01*
X428608Y494164D01*
X428556Y494083D01*
X428555Y494080D01*
X428554Y494078D01*
X428537Y493982D01*
X428520Y493886D01*
X428521Y493883D01*
X428520Y493881D01*
X428542Y493786D01*
X428564Y493690D01*
X428565Y493688D01*
X428566Y493685D01*
X428668Y493537D01*
X429348Y492858D01*
X431706Y490500D01*
X432944Y487512D01*
X432944Y416962D01*
X432945Y416954D01*
X432944Y416947D01*
X432965Y416857D01*
X432983Y416766D01*
X432988Y416759D01*
X432990Y416751D01*
X433092Y416603D01*
X456185Y393511D01*
X456192Y393506D01*
X456196Y393500D01*
X456275Y393451D01*
X456352Y393400D01*
X456360Y393398D01*
X456367Y393394D01*
X456544Y393362D01*
X680468Y393362D01*
X680473Y393363D01*
X680478Y393362D01*
X680571Y393383D01*
X680665Y393402D01*
X680669Y393405D01*
X680674Y393406D01*
X680752Y393461D01*
X680830Y393514D01*
X680833Y393519D01*
X680837Y393522D01*
X680888Y393603D01*
X680940Y393682D01*
X680940Y393687D01*
X680943Y393692D01*
X680975Y393869D01*
X680975Y394417D01*
X683356Y396798D01*
X699724Y396798D01*
X701759Y394763D01*
X701763Y394760D01*
X701766Y394755D01*
X701846Y394705D01*
X701926Y394652D01*
X701931Y394651D01*
X701936Y394648D01*
X702029Y394632D01*
X702123Y394614D01*
X702128Y394615D01*
X702133Y394614D01*
X702226Y394636D01*
X702319Y394656D01*
X702323Y394659D01*
X702328Y394660D01*
X702476Y394763D01*
X702480Y394766D01*
X703059Y395101D01*
X703705Y395274D01*
X709525Y395274D01*
X709525Y385741D01*
X709526Y385736D01*
X709525Y385731D01*
X709546Y385638D01*
X709564Y385545D01*
X709567Y385541D01*
X709568Y385535D01*
X709624Y385458D01*
X709677Y385379D01*
X709681Y385376D01*
X709684Y385372D01*
X709766Y385321D01*
X709845Y385270D01*
X709850Y385269D01*
X709855Y385266D01*
X710032Y385234D01*
X710541Y385234D01*
X710541Y385232D01*
X710032Y385232D01*
X710027Y385231D01*
X710022Y385232D01*
X709929Y385212D01*
X709836Y385193D01*
X709831Y385190D01*
X709826Y385189D01*
X709748Y385134D01*
X709670Y385080D01*
X709667Y385076D01*
X709663Y385073D01*
X709612Y384991D01*
X709561Y384912D01*
X709560Y384907D01*
X709557Y384903D01*
X709525Y384725D01*
X709525Y375193D01*
X706534Y375193D01*
X706531Y375192D01*
X706529Y375193D01*
X706434Y375172D01*
X706338Y375153D01*
X706335Y375151D01*
X706333Y375151D01*
X706252Y375095D01*
X706172Y375040D01*
X706170Y375038D01*
X706168Y375037D01*
X706115Y374953D01*
X706063Y374872D01*
X706062Y374870D01*
X706061Y374867D01*
X706044Y374771D01*
X706027Y374675D01*
X706028Y374672D01*
X706027Y374670D01*
X706049Y374576D01*
X706071Y374479D01*
X706072Y374477D01*
X706073Y374475D01*
X706175Y374327D01*
X706702Y373800D01*
X707630Y371559D01*
X707630Y371188D01*
X707645Y371118D01*
X707650Y371046D01*
X707664Y371020D01*
X707670Y370991D01*
X707710Y370932D01*
X707743Y370869D01*
X707766Y370850D01*
X707783Y370825D01*
X707842Y370787D01*
X707898Y370741D01*
X707926Y370732D01*
X707951Y370716D01*
X708021Y370703D01*
X708089Y370683D01*
X708121Y370685D01*
X708148Y370681D01*
X708199Y370692D01*
X708269Y370698D01*
X708456Y370748D01*
X710416Y370748D01*
X710416Y366824D01*
X710417Y366819D01*
X710416Y366814D01*
X710437Y366721D01*
X710455Y366628D01*
X710458Y366623D01*
X710459Y366618D01*
X710515Y366540D01*
X710568Y366462D01*
X710572Y366459D01*
X710575Y366455D01*
X710657Y366404D01*
X710736Y366353D01*
X710741Y366352D01*
X710746Y366349D01*
X710923Y366317D01*
X711221Y366317D01*
X711249Y366277D01*
X711302Y366199D01*
X711307Y366196D01*
X711310Y366192D01*
X711391Y366141D01*
X711470Y366089D01*
X711475Y366089D01*
X711480Y366086D01*
X711657Y366054D01*
X719486Y366054D01*
X721726Y365126D01*
X725259Y361593D01*
X726187Y359353D01*
X726187Y348037D01*
X725259Y345797D01*
X721250Y341788D01*
X720205Y341355D01*
X719010Y340860D01*
X710077Y340860D01*
X709490Y341104D01*
X709481Y341105D01*
X709473Y341110D01*
X709296Y341142D01*
X707106Y341142D01*
X704725Y343523D01*
X704725Y350391D01*
X706101Y351766D01*
X706105Y351773D01*
X706111Y351777D01*
X706160Y351856D01*
X706212Y351933D01*
X706213Y351941D01*
X706217Y351947D01*
X706249Y352125D01*
X706249Y352583D01*
X706707Y352583D01*
X706715Y352584D01*
X706723Y352583D01*
X706813Y352604D01*
X706904Y352622D01*
X706910Y352627D01*
X706918Y352629D01*
X707066Y352731D01*
X707106Y352772D01*
X709296Y352772D01*
X709305Y352774D01*
X709314Y352772D01*
X709490Y352810D01*
X709492Y352811D01*
X709668Y352884D01*
X709670Y352885D01*
X709671Y352885D01*
X709754Y352942D01*
X709835Y352996D01*
X709836Y352997D01*
X709837Y352998D01*
X709890Y353080D01*
X709945Y353164D01*
X709945Y353165D01*
X709946Y353166D01*
X709964Y353264D01*
X709982Y353361D01*
X709981Y353362D01*
X709982Y353363D01*
X709960Y353459D01*
X709939Y353557D01*
X709938Y353558D01*
X709938Y353559D01*
X709880Y353640D01*
X709824Y353721D01*
X709823Y353721D01*
X709822Y353722D01*
X709737Y353775D01*
X709654Y353827D01*
X709653Y353828D01*
X709652Y353828D01*
X709474Y353860D01*
X705310Y353860D01*
X705302Y353859D01*
X705294Y353860D01*
X705204Y353839D01*
X705113Y353821D01*
X705107Y353816D01*
X705099Y353814D01*
X704951Y353712D01*
X699528Y348288D01*
X698710Y347950D01*
X697485Y347442D01*
X697287Y347360D01*
X691157Y347360D01*
X691152Y347359D01*
X691147Y347360D01*
X691054Y347339D01*
X690961Y347321D01*
X690956Y347318D01*
X690951Y347317D01*
X690873Y347261D01*
X690795Y347208D01*
X690792Y347204D01*
X690788Y347201D01*
X690778Y347215D01*
X690773Y347218D01*
X690770Y347222D01*
X690689Y347273D01*
X690610Y347325D01*
X690605Y347325D01*
X690600Y347328D01*
X690423Y347360D01*
X689577Y347360D01*
X688990Y347604D01*
X688981Y347605D01*
X688973Y347610D01*
X688796Y347642D01*
X686606Y347642D01*
X686566Y347683D01*
X686559Y347687D01*
X686555Y347693D01*
X686476Y347742D01*
X686399Y347794D01*
X686391Y347795D01*
X686385Y347799D01*
X686207Y347831D01*
X685749Y347831D01*
X685749Y348289D01*
X685748Y348297D01*
X685749Y348305D01*
X685728Y348395D01*
X685710Y348486D01*
X685705Y348492D01*
X685703Y348500D01*
X685601Y348648D01*
X684225Y350023D01*
X684225Y353353D01*
X684224Y353358D01*
X684225Y353363D01*
X684204Y353456D01*
X684186Y353550D01*
X684183Y353554D01*
X684182Y353559D01*
X684126Y353637D01*
X684073Y353715D01*
X684069Y353718D01*
X684066Y353722D01*
X683984Y353773D01*
X683905Y353825D01*
X683900Y353825D01*
X683895Y353828D01*
X683718Y353860D01*
X676382Y353860D01*
X676375Y353859D01*
X676367Y353860D01*
X676277Y353839D01*
X676186Y353821D01*
X676179Y353816D01*
X676172Y353814D01*
X676024Y353712D01*
X674745Y352433D01*
X674741Y352427D01*
X674735Y352422D01*
X674686Y352343D01*
X674634Y352266D01*
X674633Y352259D01*
X674629Y352252D01*
X674597Y352075D01*
X674597Y351499D01*
X673402Y348615D01*
X671195Y346408D01*
X670019Y345921D01*
X668794Y345413D01*
X668311Y345213D01*
X665189Y345213D01*
X662305Y346408D01*
X660098Y348615D01*
X658903Y351499D01*
X658903Y354621D01*
X659450Y355942D01*
X659451Y355946D01*
X659453Y355949D01*
X659471Y356044D01*
X659489Y356139D01*
X659488Y356142D01*
X659489Y356146D01*
X659468Y356240D01*
X659449Y356335D01*
X659446Y356338D01*
X659445Y356342D01*
X659389Y356421D01*
X659335Y356500D01*
X659332Y356502D01*
X659329Y356505D01*
X659247Y356556D01*
X659166Y356609D01*
X659162Y356609D01*
X659159Y356611D01*
X658982Y356643D01*
X658839Y356643D01*
X655955Y357838D01*
X653748Y360045D01*
X652553Y362929D01*
X652553Y366051D01*
X653748Y368935D01*
X655955Y371142D01*
X656487Y371362D01*
X657711Y371870D01*
X658839Y372337D01*
X660529Y372337D01*
X660538Y372339D01*
X660548Y372337D01*
X660724Y372375D01*
X660726Y372376D01*
X660727Y372377D01*
X661154Y372554D01*
X689996Y372554D01*
X690000Y372555D01*
X690004Y372554D01*
X690097Y372574D01*
X690193Y372593D01*
X690196Y372596D01*
X690200Y372596D01*
X690278Y372652D01*
X690358Y372706D01*
X690361Y372709D01*
X690364Y372712D01*
X690415Y372793D01*
X690468Y372874D01*
X690468Y372878D01*
X690471Y372881D01*
X690486Y372976D01*
X690503Y373071D01*
X690502Y373075D01*
X690503Y373079D01*
X690465Y373255D01*
X690423Y373356D01*
X690420Y373361D01*
X690418Y373367D01*
X690364Y373444D01*
X690311Y373522D01*
X690306Y373525D01*
X690302Y373531D01*
X690222Y373581D01*
X690144Y373632D01*
X690137Y373633D01*
X690132Y373637D01*
X689955Y373669D01*
X683356Y373669D01*
X680975Y376050D01*
X680975Y376597D01*
X680974Y376602D01*
X680975Y376608D01*
X680954Y376701D01*
X680936Y376794D01*
X680933Y376798D01*
X680932Y376803D01*
X680876Y376881D01*
X680823Y376960D01*
X680819Y376962D01*
X680816Y376967D01*
X680734Y377017D01*
X680655Y377069D01*
X680650Y377070D01*
X680645Y377073D01*
X680468Y377105D01*
X634746Y377105D01*
X634741Y377104D01*
X634736Y377104D01*
X634643Y377084D01*
X634549Y377065D01*
X634545Y377062D01*
X634540Y377061D01*
X634462Y377006D01*
X634384Y376952D01*
X634381Y376948D01*
X634377Y376945D01*
X634326Y376864D01*
X634274Y376784D01*
X634274Y376779D01*
X634271Y376775D01*
X634239Y376597D01*
X634239Y321605D01*
X634239Y321603D01*
X634239Y321602D01*
X634240Y321599D01*
X634239Y321595D01*
X634260Y321502D01*
X634278Y321409D01*
X634281Y321404D01*
X634282Y321399D01*
X634338Y321322D01*
X634391Y321243D01*
X634395Y321240D01*
X634398Y321236D01*
X634480Y321185D01*
X634559Y321134D01*
X634564Y321133D01*
X634569Y321130D01*
X634746Y321098D01*
X634904Y321098D01*
X637285Y318717D01*
X637285Y299350D01*
X634997Y297062D01*
X634993Y297056D01*
X634987Y297051D01*
X634938Y296972D01*
X634886Y296895D01*
X634885Y296888D01*
X634881Y296881D01*
X634849Y296704D01*
X634849Y280723D01*
X634850Y280715D01*
X634849Y280708D01*
X634870Y280618D01*
X634888Y280527D01*
X634893Y280520D01*
X634895Y280512D01*
X634997Y280364D01*
X637285Y278077D01*
X637285Y258710D01*
X635987Y257412D01*
X635983Y257406D01*
X635977Y257401D01*
X635928Y257322D01*
X635876Y257245D01*
X635875Y257238D01*
X635871Y257231D01*
X635839Y257054D01*
X635839Y254076D01*
X635840Y254071D01*
X635839Y254066D01*
X635860Y253973D01*
X635878Y253879D01*
X635881Y253875D01*
X635882Y253870D01*
X635938Y253792D01*
X635991Y253714D01*
X635995Y253711D01*
X635998Y253707D01*
X636080Y253656D01*
X636159Y253604D01*
X636164Y253604D01*
X636169Y253601D01*
X636346Y253569D01*
X678750Y253569D01*
X678758Y253570D01*
X678766Y253569D01*
X678856Y253590D01*
X678947Y253608D01*
X678953Y253613D01*
X678961Y253615D01*
X679109Y253717D01*
X679896Y254505D01*
X693264Y254505D01*
X695645Y252124D01*
X695645Y238756D01*
X693264Y236375D01*
X679896Y236375D01*
X679109Y237163D01*
X679102Y237167D01*
X679098Y237173D01*
X679019Y237222D01*
X678942Y237274D01*
X678934Y237275D01*
X678928Y237279D01*
X678750Y237311D01*
X629894Y237311D01*
X629886Y237309D01*
X629876Y237311D01*
X629700Y237273D01*
X629698Y237272D01*
X628997Y236981D01*
X594447Y236981D01*
X594439Y236980D01*
X594432Y236981D01*
X594342Y236960D01*
X594251Y236942D01*
X594244Y236937D01*
X594236Y236935D01*
X594088Y236833D01*
X589593Y232338D01*
X589589Y232331D01*
X589583Y232326D01*
X589534Y232248D01*
X589482Y232171D01*
X589481Y232163D01*
X589477Y232156D01*
X589445Y231979D01*
X589445Y221936D01*
X587487Y219979D01*
X587484Y219974D01*
X587480Y219971D01*
X587429Y219891D01*
X587376Y219812D01*
X587375Y219807D01*
X587372Y219802D01*
X587356Y219708D01*
X587339Y219615D01*
X587340Y219610D01*
X587339Y219604D01*
X587360Y219512D01*
X587380Y219419D01*
X587383Y219414D01*
X587384Y219409D01*
X587487Y219261D01*
X589445Y217304D01*
X589445Y201936D01*
X587487Y199979D01*
X587484Y199974D01*
X587480Y199971D01*
X587429Y199891D01*
X587376Y199812D01*
X587375Y199807D01*
X587372Y199802D01*
X587356Y199708D01*
X587339Y199615D01*
X587340Y199610D01*
X587339Y199604D01*
X587360Y199512D01*
X587380Y199419D01*
X587383Y199414D01*
X587384Y199409D01*
X587487Y199261D01*
X589445Y197304D01*
X589445Y181936D01*
X587487Y179979D01*
X587484Y179974D01*
X587480Y179971D01*
X587429Y179891D01*
X587376Y179812D01*
X587375Y179807D01*
X587372Y179802D01*
X587356Y179708D01*
X587339Y179615D01*
X587340Y179610D01*
X587339Y179605D01*
X587360Y179512D01*
X587380Y179419D01*
X587383Y179414D01*
X587384Y179409D01*
X587487Y179261D01*
X588851Y177897D01*
X588858Y177893D01*
X588862Y177887D01*
X588941Y177838D01*
X589018Y177786D01*
X589026Y177785D01*
X589032Y177781D01*
X589210Y177749D01*
X596648Y177749D01*
X596653Y177750D01*
X596658Y177749D01*
X596751Y177770D01*
X596845Y177788D01*
X596849Y177791D01*
X596854Y177792D01*
X596932Y177848D01*
X597010Y177901D01*
X597013Y177905D01*
X597017Y177908D01*
X597068Y177990D01*
X597120Y178069D01*
X597120Y178074D01*
X597123Y178079D01*
X597155Y178256D01*
X597155Y182404D01*
X599536Y184785D01*
X615904Y184785D01*
X616861Y183827D01*
X616866Y183824D01*
X616869Y183820D01*
X616949Y183769D01*
X617028Y183716D01*
X617033Y183715D01*
X617038Y183712D01*
X617132Y183696D01*
X617225Y183679D01*
X617230Y183680D01*
X617235Y183679D01*
X617328Y183700D01*
X617421Y183720D01*
X617426Y183723D01*
X617431Y183724D01*
X617579Y183827D01*
X618536Y184785D01*
X628254Y184785D01*
X628263Y184787D01*
X628272Y184785D01*
X628448Y184823D01*
X628450Y184824D01*
X629361Y185202D01*
X629523Y185269D01*
X644650Y185269D01*
X644658Y185270D01*
X644666Y185269D01*
X644756Y185290D01*
X644847Y185308D01*
X644853Y185313D01*
X644861Y185315D01*
X645009Y185417D01*
X645796Y186205D01*
X663164Y186205D01*
X665545Y183824D01*
X665545Y175678D01*
X665545Y175675D01*
X665545Y175673D01*
X665565Y175578D01*
X665584Y175481D01*
X665586Y175479D01*
X665586Y175476D01*
X665642Y175396D01*
X665697Y175315D01*
X665699Y175314D01*
X665701Y175312D01*
X665784Y175259D01*
X665865Y175206D01*
X665868Y175206D01*
X665870Y175204D01*
X665966Y175188D01*
X666062Y175171D01*
X666065Y175171D01*
X666067Y175171D01*
X666162Y175193D01*
X666258Y175214D01*
X666260Y175216D01*
X666263Y175216D01*
X666411Y175319D01*
X667796Y176705D01*
X673839Y176705D01*
X673847Y176706D01*
X673854Y176705D01*
X673944Y176726D01*
X674035Y176744D01*
X674042Y176749D01*
X674050Y176751D01*
X674198Y176853D01*
X678303Y180958D01*
X678307Y180965D01*
X678313Y180970D01*
X678362Y181048D01*
X678414Y181125D01*
X678415Y181133D01*
X678419Y181140D01*
X678451Y181317D01*
X678451Y183610D01*
X678450Y183618D01*
X678451Y183626D01*
X678430Y183716D01*
X678412Y183807D01*
X678407Y183813D01*
X678405Y183821D01*
X678303Y183969D01*
X677515Y184756D01*
X677515Y198124D01*
X679896Y200505D01*
X693264Y200505D01*
X695645Y198124D01*
X695645Y184756D01*
X694857Y183969D01*
X694853Y183962D01*
X694847Y183958D01*
X694798Y183879D01*
X694746Y183802D01*
X694745Y183794D01*
X694741Y183788D01*
X694709Y183610D01*
X694709Y176123D01*
X693471Y173135D01*
X687693Y167358D01*
X687689Y167351D01*
X687683Y167346D01*
X687634Y167268D01*
X687582Y167191D01*
X687581Y167183D01*
X687577Y167176D01*
X687545Y166999D01*
X687545Y160956D01*
X685164Y158575D01*
X667796Y158575D01*
X665415Y160956D01*
X665415Y169102D01*
X665415Y169105D01*
X665415Y169107D01*
X665395Y169202D01*
X665376Y169299D01*
X665374Y169301D01*
X665374Y169304D01*
X665318Y169384D01*
X665263Y169465D01*
X665261Y169466D01*
X665259Y169468D01*
X665176Y169521D01*
X665095Y169574D01*
X665092Y169574D01*
X665090Y169576D01*
X664994Y169592D01*
X664898Y169609D01*
X664895Y169609D01*
X664893Y169609D01*
X664798Y169587D01*
X664702Y169566D01*
X664700Y169564D01*
X664697Y169564D01*
X664549Y169461D01*
X663164Y168075D01*
X645796Y168075D01*
X645009Y168863D01*
X645002Y168867D01*
X644998Y168873D01*
X644919Y168922D01*
X644842Y168974D01*
X644834Y168975D01*
X644828Y168979D01*
X644650Y169011D01*
X637792Y169011D01*
X637787Y169010D01*
X637782Y169011D01*
X637689Y168990D01*
X637595Y168972D01*
X637591Y168969D01*
X637586Y168968D01*
X637508Y168912D01*
X637430Y168859D01*
X637427Y168855D01*
X637423Y168852D01*
X637372Y168770D01*
X637320Y168691D01*
X637320Y168686D01*
X637317Y168681D01*
X637285Y168504D01*
X637285Y163036D01*
X634904Y160655D01*
X618536Y160655D01*
X617579Y161613D01*
X617574Y161616D01*
X617571Y161620D01*
X617491Y161671D01*
X617412Y161724D01*
X617407Y161725D01*
X617402Y161728D01*
X617308Y161744D01*
X617215Y161761D01*
X617210Y161760D01*
X617204Y161761D01*
X617112Y161740D01*
X617019Y161720D01*
X617014Y161717D01*
X617009Y161716D01*
X616861Y161613D01*
X615904Y160655D01*
X599536Y160655D01*
X598849Y161343D01*
X598842Y161347D01*
X598838Y161353D01*
X598759Y161402D01*
X598682Y161454D01*
X598674Y161455D01*
X598668Y161459D01*
X598490Y161491D01*
X589210Y161491D01*
X589202Y161490D01*
X589194Y161491D01*
X589104Y161470D01*
X589013Y161452D01*
X589007Y161447D01*
X588999Y161445D01*
X588851Y161343D01*
X587487Y159979D01*
X587484Y159974D01*
X587480Y159971D01*
X587429Y159891D01*
X587376Y159812D01*
X587375Y159807D01*
X587372Y159802D01*
X587356Y159708D01*
X587339Y159615D01*
X587340Y159610D01*
X587339Y159604D01*
X587360Y159512D01*
X587380Y159419D01*
X587383Y159414D01*
X587384Y159409D01*
X587487Y159261D01*
X589445Y157304D01*
X589445Y141936D01*
X587487Y139979D01*
X587484Y139974D01*
X587480Y139971D01*
X587429Y139891D01*
X587376Y139812D01*
X587375Y139807D01*
X587372Y139802D01*
X587356Y139708D01*
X587339Y139615D01*
X587340Y139610D01*
X587339Y139604D01*
X587360Y139512D01*
X587380Y139419D01*
X587383Y139414D01*
X587384Y139409D01*
X587487Y139261D01*
X588851Y137897D01*
X588858Y137893D01*
X588862Y137887D01*
X588941Y137838D01*
X589018Y137786D01*
X589026Y137785D01*
X589032Y137781D01*
X589210Y137749D01*
X596648Y137749D01*
X596653Y137750D01*
X596658Y137749D01*
X596751Y137770D01*
X596845Y137788D01*
X596849Y137791D01*
X596854Y137792D01*
X596932Y137848D01*
X597010Y137901D01*
X597013Y137905D01*
X597017Y137908D01*
X597068Y137990D01*
X597120Y138069D01*
X597120Y138074D01*
X597123Y138079D01*
X597155Y138256D01*
X597155Y140917D01*
X599536Y143298D01*
X615904Y143298D01*
X616861Y142340D01*
X616866Y142338D01*
X616869Y142333D01*
X616948Y142282D01*
X617028Y142229D01*
X617033Y142228D01*
X617038Y142226D01*
X617131Y142210D01*
X617225Y142192D01*
X617230Y142193D01*
X617235Y142192D01*
X617328Y142214D01*
X617421Y142233D01*
X617426Y142236D01*
X617431Y142238D01*
X617579Y142340D01*
X618443Y143204D01*
X618447Y143211D01*
X618453Y143216D01*
X618502Y143294D01*
X618554Y143371D01*
X618555Y143379D01*
X618559Y143386D01*
X618591Y143563D01*
X618591Y150817D01*
X619829Y153805D01*
X622775Y156751D01*
X622882Y156796D01*
X622883Y156796D01*
X624107Y157303D01*
X625332Y157810D01*
X625763Y157989D01*
X628997Y157989D01*
X631985Y156751D01*
X634271Y154465D01*
X635509Y151477D01*
X635509Y148243D01*
X634887Y146743D01*
X634886Y146734D01*
X634881Y146726D01*
X634849Y146549D01*
X634849Y143563D01*
X634849Y143560D01*
X634849Y143557D01*
X634850Y143553D01*
X634849Y143548D01*
X634870Y143458D01*
X634888Y143367D01*
X634893Y143360D01*
X634895Y143352D01*
X634997Y143204D01*
X637285Y140917D01*
X637285Y121550D01*
X634997Y119262D01*
X634993Y119256D01*
X634987Y119251D01*
X634938Y119172D01*
X634886Y119095D01*
X634885Y119088D01*
X634881Y119081D01*
X634849Y118904D01*
X634849Y103770D01*
X634850Y103762D01*
X634849Y103754D01*
X634870Y103664D01*
X634888Y103573D01*
X634893Y103567D01*
X634895Y103559D01*
X634997Y103411D01*
X637285Y101124D01*
X637285Y86360D01*
X637286Y86355D01*
X637285Y86350D01*
X637306Y86257D01*
X637324Y86164D01*
X637327Y86159D01*
X637328Y86154D01*
X637384Y86076D01*
X637437Y85998D01*
X637441Y85995D01*
X637444Y85991D01*
X637526Y85940D01*
X637605Y85888D01*
X637610Y85888D01*
X637615Y85885D01*
X637792Y85853D01*
X731520Y85853D01*
X731525Y85854D01*
X731530Y85853D01*
X731623Y85874D01*
X731717Y85892D01*
X731721Y85895D01*
X731726Y85896D01*
X731804Y85952D01*
X731882Y86005D01*
X731885Y86009D01*
X731889Y86012D01*
X731940Y86094D01*
X731992Y86173D01*
X731992Y86178D01*
X731995Y86183D01*
X732027Y86360D01*
X732027Y105569D01*
X732020Y105605D01*
X732022Y105643D01*
X732000Y105703D01*
X731988Y105765D01*
X731967Y105796D01*
X731954Y105831D01*
X731911Y105878D01*
X731875Y105931D01*
X731844Y105951D01*
X731818Y105979D01*
X731760Y106006D01*
X731707Y106040D01*
X731670Y106047D01*
X731636Y106063D01*
X731573Y106065D01*
X731510Y106076D01*
X731473Y106068D01*
X731436Y106069D01*
X731366Y106044D01*
X731314Y106032D01*
X731294Y106018D01*
X731266Y106008D01*
X728177Y104224D01*
X721142Y102339D01*
X713858Y102339D01*
X706823Y104224D01*
X700516Y107866D01*
X695366Y113016D01*
X691724Y119323D01*
X689839Y126358D01*
X689839Y133642D01*
X691724Y140677D01*
X695366Y146984D01*
X700516Y152134D01*
X706823Y155776D01*
X713858Y157661D01*
X721142Y157661D01*
X728177Y155776D01*
X731266Y153992D01*
X731302Y153980D01*
X731333Y153960D01*
X731396Y153948D01*
X731456Y153928D01*
X731494Y153931D01*
X731530Y153924D01*
X731593Y153938D01*
X731656Y153943D01*
X731689Y153959D01*
X731726Y153968D01*
X731778Y154005D01*
X731835Y154033D01*
X731859Y154062D01*
X731889Y154084D01*
X731923Y154138D01*
X731964Y154187D01*
X731976Y154222D01*
X731995Y154254D01*
X732008Y154327D01*
X732024Y154378D01*
X732022Y154403D01*
X732027Y154431D01*
X732027Y555569D01*
X732020Y555605D01*
X732022Y555643D01*
X732000Y555703D01*
X731988Y555765D01*
X731967Y555796D01*
X731954Y555831D01*
X731911Y555878D01*
X731875Y555931D01*
X731844Y555951D01*
X731818Y555979D01*
X731760Y556006D01*
X731707Y556040D01*
X731670Y556047D01*
X731636Y556063D01*
X731573Y556065D01*
X731510Y556076D01*
X731473Y556068D01*
X731436Y556069D01*
X731366Y556044D01*
X731314Y556032D01*
X731294Y556018D01*
X731266Y556008D01*
X728177Y554224D01*
X721142Y552339D01*
X713858Y552339D01*
X706823Y554224D01*
X700516Y557866D01*
X695366Y563016D01*
X691724Y569323D01*
X689839Y576358D01*
X689839Y583642D01*
X691355Y589298D01*
X691359Y589368D01*
X691372Y589437D01*
X691366Y589468D01*
X691368Y589498D01*
X691345Y589565D01*
X691330Y589633D01*
X691312Y589659D01*
X691302Y589688D01*
X691255Y589740D01*
X691214Y589797D01*
X691188Y589814D01*
X691168Y589837D01*
X691104Y589867D01*
X691045Y589904D01*
X691014Y589909D01*
X690986Y589922D01*
X690916Y589925D01*
X690847Y589937D01*
X690814Y589930D01*
X690786Y589931D01*
X690738Y589913D01*
X690671Y589898D01*
X689470Y589401D01*
X689469Y589401D01*
X688631Y589053D01*
X685509Y589053D01*
X682625Y590248D01*
X681079Y591794D01*
X681074Y591797D01*
X681071Y591802D01*
X680991Y591853D01*
X680912Y591905D01*
X680907Y591906D01*
X680902Y591909D01*
X680808Y591925D01*
X680715Y591943D01*
X680710Y591942D01*
X680704Y591943D01*
X680612Y591921D01*
X680519Y591901D01*
X680514Y591898D01*
X680509Y591897D01*
X680361Y591794D01*
X678815Y590248D01*
X677994Y589908D01*
X676770Y589401D01*
X676769Y589401D01*
X675931Y589053D01*
X672809Y589053D01*
X669925Y590248D01*
X669903Y590270D01*
X669900Y590272D01*
X669899Y590274D01*
X669819Y590326D01*
X669736Y590381D01*
X669733Y590382D01*
X669731Y590383D01*
X669635Y590401D01*
X669539Y590419D01*
X669536Y590418D01*
X669534Y590419D01*
X669437Y590397D01*
X669343Y590377D01*
X669341Y590376D01*
X669338Y590375D01*
X669258Y590318D01*
X669178Y590263D01*
X669177Y590261D01*
X669175Y590259D01*
X669123Y590176D01*
X669071Y590094D01*
X669070Y590091D01*
X669069Y590089D01*
X669037Y589912D01*
X669037Y581855D01*
X669038Y581848D01*
X669037Y581840D01*
X669058Y581750D01*
X669076Y581659D01*
X669081Y581652D01*
X669083Y581645D01*
X669185Y581497D01*
X674799Y575883D01*
X675727Y573643D01*
X675727Y545036D01*
X675695Y544859D01*
X675695Y537066D01*
X673314Y534685D01*
X663234Y534685D01*
X663229Y534684D01*
X663224Y534685D01*
X663131Y534664D01*
X663037Y534646D01*
X663033Y534643D01*
X663028Y534642D01*
X662950Y534586D01*
X662872Y534533D01*
X662869Y534529D01*
X662865Y534526D01*
X662814Y534444D01*
X662762Y534365D01*
X662762Y534360D01*
X662759Y534355D01*
X662727Y534178D01*
X662727Y522060D01*
X662728Y522053D01*
X662727Y522045D01*
X662748Y521955D01*
X662766Y521864D01*
X662771Y521857D01*
X662773Y521850D01*
X662875Y521702D01*
X663242Y521335D01*
X664437Y518451D01*
X664437Y515329D01*
X663242Y512445D01*
X661035Y510238D01*
X659887Y509762D01*
X658662Y509255D01*
X658151Y509043D01*
X655029Y509043D01*
X652145Y510238D01*
X649938Y512445D01*
X648743Y515329D01*
X648743Y518451D01*
X649938Y521335D01*
X650385Y521782D01*
X650389Y521788D01*
X650395Y521793D01*
X650444Y521871D01*
X650496Y521949D01*
X650497Y521956D01*
X650501Y521963D01*
X650533Y522140D01*
X650533Y536680D01*
X650533Y536683D01*
X650533Y536685D01*
X650513Y536781D01*
X650494Y536877D01*
X650492Y536879D01*
X650492Y536882D01*
X650436Y536961D01*
X650381Y537043D01*
X650379Y537044D01*
X650377Y537046D01*
X650294Y537099D01*
X650213Y537152D01*
X650210Y537152D01*
X650208Y537154D01*
X650112Y537170D01*
X650016Y537187D01*
X650013Y537187D01*
X650011Y537187D01*
X649918Y537166D01*
X649820Y537144D01*
X649818Y537142D01*
X649815Y537142D01*
X649667Y537039D01*
X649279Y536651D01*
X649275Y536644D01*
X649268Y536640D01*
X649219Y536561D01*
X649168Y536484D01*
X649167Y536476D01*
X649163Y536469D01*
X649131Y536292D01*
X649131Y536209D01*
X649048Y536209D01*
X649040Y536208D01*
X649032Y536209D01*
X648942Y536188D01*
X648851Y536170D01*
X648845Y536165D01*
X648837Y536163D01*
X648689Y536061D01*
X647314Y534685D01*
X633446Y534685D01*
X632071Y536061D01*
X632064Y536065D01*
X632060Y536071D01*
X631981Y536120D01*
X631904Y536172D01*
X631896Y536173D01*
X631890Y536177D01*
X631712Y536209D01*
X631629Y536209D01*
X631629Y536292D01*
X631628Y536300D01*
X631629Y536308D01*
X631608Y536397D01*
X631590Y536489D01*
X631585Y536495D01*
X631583Y536503D01*
X631481Y536651D01*
X630989Y537143D01*
X630984Y537146D01*
X630981Y537150D01*
X630901Y537201D01*
X630822Y537254D01*
X630817Y537255D01*
X630812Y537258D01*
X630718Y537274D01*
X630625Y537291D01*
X630620Y537290D01*
X630615Y537291D01*
X630522Y537270D01*
X630429Y537250D01*
X630425Y537247D01*
X630419Y537246D01*
X630271Y537143D01*
X629779Y536651D01*
X629775Y536644D01*
X629768Y536640D01*
X629720Y536561D01*
X629668Y536484D01*
X629667Y536476D01*
X629663Y536469D01*
X629631Y536292D01*
X629631Y536209D01*
X629548Y536209D01*
X629540Y536208D01*
X629532Y536209D01*
X629442Y536188D01*
X629351Y536170D01*
X629345Y536165D01*
X629337Y536163D01*
X629189Y536061D01*
X627814Y534685D01*
X607446Y534685D01*
X606071Y536061D01*
X606064Y536065D01*
X606060Y536071D01*
X605981Y536120D01*
X605904Y536172D01*
X605896Y536173D01*
X605890Y536177D01*
X605712Y536209D01*
X605629Y536209D01*
X605629Y536292D01*
X605628Y536300D01*
X605629Y536308D01*
X605608Y536398D01*
X605590Y536489D01*
X605585Y536495D01*
X605583Y536503D01*
X605481Y536651D01*
X605065Y537066D01*
X605065Y545758D01*
X605064Y545763D01*
X605065Y545768D01*
X605044Y545861D01*
X605026Y545954D01*
X605023Y545959D01*
X605022Y545964D01*
X604966Y546042D01*
X604913Y546120D01*
X604909Y546123D01*
X604906Y546127D01*
X604824Y546178D01*
X604745Y546229D01*
X604740Y546230D01*
X604735Y546233D01*
X604645Y546249D01*
X604645Y546252D01*
X604661Y546256D01*
X604755Y546275D01*
X604759Y546277D01*
X604764Y546279D01*
X604842Y546334D01*
X604920Y546387D01*
X604923Y546392D01*
X604927Y546395D01*
X604978Y546476D01*
X605030Y546555D01*
X605030Y546560D01*
X605033Y546565D01*
X605065Y546742D01*
X605065Y555434D01*
X605481Y555849D01*
X605485Y555856D01*
X605491Y555860D01*
X605540Y555939D01*
X605592Y556016D01*
X605593Y556024D01*
X605597Y556030D01*
X605629Y556208D01*
X605629Y556291D01*
X605712Y556291D01*
X605720Y556292D01*
X605728Y556291D01*
X605818Y556312D01*
X605909Y556330D01*
X605915Y556335D01*
X605923Y556337D01*
X606071Y556439D01*
X607446Y557815D01*
X627814Y557815D01*
X629189Y556439D01*
X629196Y556435D01*
X629200Y556429D01*
X629279Y556380D01*
X629356Y556328D01*
X629364Y556327D01*
X629370Y556323D01*
X629548Y556291D01*
X629631Y556291D01*
X629631Y556208D01*
X629632Y556200D01*
X629631Y556192D01*
X629652Y556103D01*
X629670Y556011D01*
X629675Y556005D01*
X629677Y555997D01*
X629779Y555849D01*
X630167Y555461D01*
X630170Y555460D01*
X630171Y555457D01*
X630252Y555405D01*
X630334Y555350D01*
X630337Y555350D01*
X630339Y555348D01*
X630435Y555331D01*
X630531Y555313D01*
X630534Y555313D01*
X630536Y555313D01*
X630633Y555334D01*
X630727Y555354D01*
X630729Y555356D01*
X630732Y555356D01*
X630813Y555414D01*
X630892Y555468D01*
X630893Y555471D01*
X630895Y555472D01*
X630948Y555556D01*
X630999Y555638D01*
X631000Y555640D01*
X631001Y555642D01*
X631033Y555820D01*
X631033Y560350D01*
X631032Y560357D01*
X631033Y560365D01*
X631012Y560455D01*
X630994Y560546D01*
X630989Y560553D01*
X630987Y560560D01*
X630889Y560702D01*
X629693Y563589D01*
X629693Y566711D01*
X630888Y569595D01*
X633095Y571802D01*
X634136Y572233D01*
X635361Y572741D01*
X635979Y572997D01*
X639101Y572997D01*
X641985Y571802D01*
X644192Y569595D01*
X645387Y566711D01*
X645387Y563589D01*
X644192Y560705D01*
X643375Y559888D01*
X643371Y559882D01*
X643365Y559877D01*
X643316Y559799D01*
X643264Y559721D01*
X643263Y559714D01*
X643259Y559707D01*
X643227Y559530D01*
X643227Y558322D01*
X643228Y558317D01*
X643227Y558312D01*
X643248Y558219D01*
X643266Y558125D01*
X643269Y558121D01*
X643270Y558116D01*
X643326Y558038D01*
X643379Y557960D01*
X643383Y557957D01*
X643386Y557953D01*
X643468Y557902D01*
X643547Y557850D01*
X643552Y557850D01*
X643557Y557847D01*
X643734Y557815D01*
X647314Y557815D01*
X648689Y556439D01*
X648696Y556435D01*
X648700Y556429D01*
X648779Y556380D01*
X648856Y556328D01*
X648864Y556327D01*
X648870Y556323D01*
X649048Y556291D01*
X649131Y556291D01*
X649131Y556208D01*
X649132Y556200D01*
X649131Y556192D01*
X649152Y556102D01*
X649170Y556011D01*
X649175Y556005D01*
X649177Y555997D01*
X649279Y555849D01*
X649771Y555357D01*
X649776Y555354D01*
X649779Y555350D01*
X649859Y555299D01*
X649938Y555246D01*
X649943Y555245D01*
X649948Y555242D01*
X650042Y555226D01*
X650135Y555209D01*
X650140Y555210D01*
X650145Y555209D01*
X650238Y555230D01*
X650331Y555250D01*
X650336Y555253D01*
X650341Y555254D01*
X650489Y555357D01*
X650981Y555849D01*
X650985Y555856D01*
X650991Y555860D01*
X651040Y555939D01*
X651092Y556016D01*
X651093Y556024D01*
X651097Y556030D01*
X651129Y556208D01*
X651129Y556291D01*
X651212Y556291D01*
X651220Y556292D01*
X651228Y556291D01*
X651318Y556312D01*
X651409Y556330D01*
X651415Y556335D01*
X651423Y556337D01*
X651571Y556439D01*
X652946Y557815D01*
X654144Y557815D01*
X654146Y557815D01*
X654149Y557815D01*
X654244Y557835D01*
X654340Y557854D01*
X654342Y557856D01*
X654345Y557856D01*
X654426Y557912D01*
X654506Y557967D01*
X654507Y557969D01*
X654510Y557971D01*
X654563Y558054D01*
X654615Y558135D01*
X654616Y558138D01*
X654617Y558140D01*
X654633Y558236D01*
X654651Y558332D01*
X654650Y558335D01*
X654651Y558337D01*
X654629Y558432D01*
X654607Y558528D01*
X654606Y558530D01*
X654605Y558533D01*
X654502Y558681D01*
X652478Y560705D01*
X651283Y563589D01*
X651283Y566711D01*
X652478Y569595D01*
X654685Y571802D01*
X655726Y572233D01*
X656951Y572741D01*
X657569Y572997D01*
X659217Y572997D01*
X659219Y572997D01*
X659222Y572997D01*
X659317Y573017D01*
X659413Y573036D01*
X659415Y573038D01*
X659418Y573038D01*
X659499Y573094D01*
X659579Y573149D01*
X659580Y573151D01*
X659583Y573153D01*
X659636Y573236D01*
X659688Y573317D01*
X659689Y573320D01*
X659690Y573322D01*
X659706Y573418D01*
X659724Y573514D01*
X659723Y573517D01*
X659724Y573519D01*
X659702Y573614D01*
X659680Y573710D01*
X659679Y573712D01*
X659678Y573715D01*
X659575Y573863D01*
X657771Y575667D01*
X656843Y577907D01*
X656843Y606188D01*
X656843Y606189D01*
X656843Y606190D01*
X656842Y606194D01*
X656843Y606198D01*
X656822Y606291D01*
X656804Y606385D01*
X656801Y606389D01*
X656800Y606394D01*
X656744Y606472D01*
X656691Y606550D01*
X656687Y606553D01*
X656684Y606557D01*
X656602Y606608D01*
X656523Y606660D01*
X656518Y606660D01*
X656513Y606663D01*
X656336Y606695D01*
X650756Y606695D01*
X649381Y608071D01*
X649374Y608075D01*
X649370Y608081D01*
X649291Y608130D01*
X649214Y608182D01*
X649206Y608183D01*
X649200Y608187D01*
X649022Y608219D01*
X647955Y608219D01*
X647955Y621792D01*
X647954Y621797D01*
X647955Y621802D01*
X647934Y621895D01*
X647916Y621988D01*
X647913Y621993D01*
X647911Y621998D01*
X647856Y622076D01*
X647803Y622154D01*
X647799Y622157D01*
X647795Y622161D01*
X647714Y622212D01*
X647635Y622263D01*
X647630Y622264D01*
X647625Y622267D01*
X647448Y622299D01*
X646939Y622299D01*
X646939Y622301D01*
X647448Y622301D01*
X647453Y622302D01*
X647458Y622301D01*
X647551Y622322D01*
X647644Y622340D01*
X647649Y622343D01*
X647654Y622345D01*
X647732Y622400D01*
X647810Y622453D01*
X647813Y622457D01*
X647817Y622461D01*
X647868Y622542D01*
X647919Y622621D01*
X647920Y622626D01*
X647923Y622631D01*
X647955Y622808D01*
X647955Y636381D01*
X649022Y636381D01*
X649030Y636382D01*
X649038Y636381D01*
X649128Y636402D01*
X649219Y636420D01*
X649225Y636425D01*
X649233Y636427D01*
X649381Y636529D01*
X650756Y637905D01*
X679071Y637905D01*
X679073Y637905D01*
X679074Y637905D01*
X679169Y637924D01*
X679268Y637944D01*
X679269Y637945D01*
X679270Y637945D01*
X679351Y638001D01*
X679434Y638057D01*
X679434Y638058D01*
X679435Y638059D01*
X679491Y638144D01*
X679543Y638225D01*
X679543Y638226D01*
X679544Y638227D01*
X679561Y638326D01*
X679579Y638422D01*
X679578Y638424D01*
X679578Y638425D01*
X679557Y638521D01*
X679535Y638618D01*
X679534Y638619D01*
X679534Y638620D01*
X679476Y638701D01*
X679419Y638781D01*
X679418Y638782D01*
X679417Y638783D01*
X679265Y638881D01*
X676352Y640087D01*
X672087Y644352D01*
X669779Y649924D01*
X669779Y655956D01*
X672087Y661528D01*
X676352Y665793D01*
X677033Y666075D01*
X678257Y666582D01*
X679482Y667089D01*
X680707Y667596D01*
X681924Y668101D01*
X687956Y668101D01*
X693528Y665793D01*
X697793Y661528D01*
X700101Y655956D01*
X700101Y649924D01*
X697939Y644706D01*
X697938Y644702D01*
X697936Y644699D01*
X697919Y644604D01*
X697901Y644509D01*
X697901Y644506D01*
X697901Y644502D01*
X697922Y644407D01*
X697941Y644313D01*
X697943Y644310D01*
X697944Y644306D01*
X698001Y644227D01*
X698055Y644148D01*
X698058Y644146D01*
X698060Y644143D01*
X698142Y644092D01*
X698223Y644039D01*
X698227Y644039D01*
X698231Y644037D01*
X698408Y644005D01*
X718624Y644005D01*
X721005Y641624D01*
X721005Y614256D01*
X718624Y611875D01*
X695256Y611875D01*
X692875Y614256D01*
X692875Y639058D01*
X692874Y639062D01*
X692875Y639066D01*
X692855Y639160D01*
X692836Y639254D01*
X692833Y639258D01*
X692833Y639262D01*
X692777Y639341D01*
X692723Y639420D01*
X692720Y639422D01*
X692717Y639426D01*
X692635Y639477D01*
X692555Y639529D01*
X692551Y639530D01*
X692548Y639532D01*
X692452Y639548D01*
X692358Y639565D01*
X692354Y639564D01*
X692350Y639565D01*
X692174Y639527D01*
X691171Y639111D01*
X689947Y638604D01*
X689946Y638604D01*
X688722Y638097D01*
X687956Y637779D01*
X684474Y637779D01*
X684471Y637779D01*
X684469Y637779D01*
X684374Y637759D01*
X684277Y637740D01*
X684275Y637738D01*
X684272Y637738D01*
X684192Y637682D01*
X684111Y637627D01*
X684110Y637625D01*
X684108Y637623D01*
X684055Y637540D01*
X684002Y637459D01*
X684002Y637456D01*
X684000Y637454D01*
X683984Y637358D01*
X683967Y637262D01*
X683967Y637259D01*
X683967Y637257D01*
X683989Y637161D01*
X684010Y637066D01*
X684012Y637064D01*
X684012Y637061D01*
X684115Y636913D01*
X685505Y635524D01*
X685505Y609076D01*
X685185Y608757D01*
X685181Y608750D01*
X685175Y608746D01*
X685126Y608667D01*
X685074Y608590D01*
X685073Y608582D01*
X685069Y608576D01*
X685037Y608398D01*
X685037Y607765D01*
X685038Y607758D01*
X685037Y607750D01*
X685058Y607660D01*
X685076Y607569D01*
X685081Y607562D01*
X685083Y607555D01*
X685185Y607407D01*
X687697Y604895D01*
X687703Y604891D01*
X687708Y604885D01*
X687787Y604836D01*
X687864Y604784D01*
X687871Y604783D01*
X687878Y604779D01*
X688055Y604747D01*
X688631Y604747D01*
X691515Y603552D01*
X693722Y601345D01*
X694917Y598461D01*
X694917Y597760D01*
X694917Y597757D01*
X694917Y597754D01*
X694937Y597659D01*
X694956Y597563D01*
X694958Y597561D01*
X694958Y597558D01*
X695014Y597478D01*
X695069Y597397D01*
X695071Y597396D01*
X695073Y597394D01*
X695156Y597340D01*
X695237Y597288D01*
X695240Y597288D01*
X695242Y597286D01*
X695338Y597270D01*
X695434Y597252D01*
X695437Y597253D01*
X695439Y597253D01*
X695533Y597274D01*
X695630Y597296D01*
X695632Y597297D01*
X695635Y597298D01*
X695783Y597401D01*
X700516Y602134D01*
X706823Y605776D01*
X713858Y607661D01*
X721142Y607661D01*
X728177Y605776D01*
X731266Y603992D01*
X731302Y603980D01*
X731333Y603960D01*
X731396Y603948D01*
X731456Y603928D01*
X731494Y603931D01*
X731530Y603924D01*
X731593Y603938D01*
X731656Y603943D01*
X731689Y603959D01*
X731726Y603968D01*
X731778Y604005D01*
X731835Y604033D01*
X731859Y604062D01*
X731889Y604084D01*
X731923Y604138D01*
X731964Y604187D01*
X731976Y604222D01*
X731995Y604254D01*
X732008Y604327D01*
X732024Y604378D01*
X732022Y604403D01*
X732027Y604431D01*
X732027Y688340D01*
X732026Y688345D01*
X732027Y688350D01*
X732006Y688443D01*
X731988Y688537D01*
X731985Y688541D01*
X731984Y688546D01*
X731928Y688624D01*
X731875Y688702D01*
X731871Y688705D01*
X731868Y688709D01*
X731786Y688760D01*
X731707Y688812D01*
X731702Y688812D01*
X731697Y688815D01*
X731520Y688847D01*
X721512Y688847D01*
X721507Y688846D01*
X721502Y688847D01*
X721409Y688826D01*
X721315Y688808D01*
X721311Y688805D01*
X721306Y688804D01*
X721228Y688748D01*
X721150Y688695D01*
X721147Y688691D01*
X721143Y688688D01*
X721092Y688606D01*
X721040Y688527D01*
X721040Y688522D01*
X721037Y688517D01*
X721005Y688340D01*
X721005Y669256D01*
X718624Y666875D01*
X695256Y666875D01*
X692875Y669256D01*
X692875Y688340D01*
X692874Y688345D01*
X692875Y688350D01*
X692854Y688443D01*
X692836Y688537D01*
X692833Y688541D01*
X692832Y688546D01*
X692776Y688624D01*
X692723Y688702D01*
X692719Y688705D01*
X692716Y688709D01*
X692634Y688760D01*
X692555Y688812D01*
X692550Y688812D01*
X692545Y688815D01*
X692368Y688847D01*
X633512Y688847D01*
X633507Y688846D01*
X633502Y688847D01*
X633409Y688826D01*
X633315Y688808D01*
X633311Y688805D01*
X633306Y688804D01*
X633228Y688748D01*
X633150Y688695D01*
X633147Y688691D01*
X633143Y688688D01*
X633092Y688606D01*
X633040Y688527D01*
X633040Y688522D01*
X633037Y688517D01*
X633005Y688340D01*
X633005Y669256D01*
X630624Y666875D01*
X607256Y666875D01*
X604875Y669256D01*
X604875Y688340D01*
X604874Y688345D01*
X604875Y688350D01*
X604854Y688443D01*
X604836Y688537D01*
X604833Y688541D01*
X604832Y688546D01*
X604776Y688624D01*
X604723Y688702D01*
X604719Y688705D01*
X604716Y688709D01*
X604634Y688760D01*
X604555Y688812D01*
X604550Y688812D01*
X604545Y688815D01*
X604368Y688847D01*
X262890Y688847D01*
X262885Y688846D01*
X262880Y688847D01*
X262787Y688826D01*
X262694Y688808D01*
X262689Y688805D01*
X262684Y688804D01*
X262606Y688748D01*
X262528Y688695D01*
X262525Y688691D01*
X262521Y688688D01*
X262470Y688606D01*
X262418Y688527D01*
X262418Y688522D01*
X262415Y688517D01*
X262383Y688340D01*
X262383Y648970D01*
X262384Y648962D01*
X262383Y648955D01*
X262404Y648865D01*
X262422Y648774D01*
X262427Y648767D01*
X262429Y648759D01*
X262531Y648611D01*
X315723Y595420D01*
X315723Y249130D01*
X202990Y136397D01*
X68580Y136397D01*
X68575Y136396D01*
X68570Y136397D01*
X68477Y136376D01*
X68384Y136358D01*
X68379Y136355D01*
X68374Y136354D01*
X68296Y136298D01*
X68218Y136245D01*
X68215Y136241D01*
X68211Y136238D01*
X68160Y136156D01*
X68108Y136077D01*
X68108Y136072D01*
X68105Y136067D01*
X68073Y135890D01*
X68073Y10668D01*
X68074Y10663D01*
X68073Y10658D01*
X68094Y10565D01*
X68112Y10471D01*
X68115Y10467D01*
X68116Y10462D01*
X68172Y10384D01*
X68225Y10306D01*
X68229Y10303D01*
X68232Y10299D01*
X68314Y10248D01*
X68393Y10196D01*
X68398Y10196D01*
X68403Y10193D01*
X68580Y10161D01*
X260350Y10161D01*
X260355Y10162D01*
G37*
%LPC*%
G36*
X607256Y611875D02*
X607256Y611875D01*
X604875Y614256D01*
X604875Y641624D01*
X607256Y644005D01*
X627472Y644005D01*
X627476Y644006D01*
X627480Y644005D01*
X627574Y644025D01*
X627669Y644044D01*
X627672Y644047D01*
X627676Y644047D01*
X627755Y644103D01*
X627834Y644157D01*
X627837Y644160D01*
X627840Y644163D01*
X627891Y644245D01*
X627944Y644325D01*
X627944Y644329D01*
X627946Y644332D01*
X627962Y644428D01*
X627979Y644522D01*
X627978Y644526D01*
X627979Y644530D01*
X627941Y644706D01*
X625779Y649924D01*
X625779Y655956D01*
X628087Y661528D01*
X632352Y665793D01*
X633033Y666075D01*
X634257Y666582D01*
X635482Y667089D01*
X636707Y667596D01*
X637924Y668101D01*
X643956Y668101D01*
X649528Y665793D01*
X653793Y661528D01*
X656101Y655956D01*
X656101Y649924D01*
X653793Y644352D01*
X649528Y640087D01*
X648396Y639618D01*
X647171Y639111D01*
X645947Y638604D01*
X645946Y638604D01*
X644722Y638097D01*
X643956Y637779D01*
X637924Y637779D01*
X633706Y639527D01*
X633702Y639527D01*
X633699Y639529D01*
X633604Y639547D01*
X633509Y639565D01*
X633506Y639564D01*
X633502Y639565D01*
X633407Y639544D01*
X633313Y639525D01*
X633310Y639522D01*
X633306Y639521D01*
X633227Y639465D01*
X633148Y639411D01*
X633146Y639408D01*
X633143Y639405D01*
X633092Y639324D01*
X633039Y639242D01*
X633039Y639239D01*
X633037Y639235D01*
X633005Y639058D01*
X633005Y614256D01*
X630624Y611875D01*
X607256Y611875D01*
G37*
%LPD*%
%LPC*%
G36*
X463203Y436371D02*
X463203Y436371D01*
X460215Y437609D01*
X457929Y439895D01*
X456691Y442883D01*
X456691Y446117D01*
X457929Y449105D01*
X460215Y451391D01*
X460497Y451508D01*
X461722Y452015D01*
X462946Y452522D01*
X463203Y452629D01*
X541367Y452629D01*
X544355Y451391D01*
X546641Y449105D01*
X547879Y446117D01*
X547879Y442883D01*
X546641Y439895D01*
X544355Y437609D01*
X543430Y437226D01*
X543429Y437226D01*
X542205Y436718D01*
X541367Y436371D01*
X463203Y436371D01*
G37*
%LPD*%
G36*
X367297Y448841D02*
X367297Y448841D01*
X367299Y448840D01*
X367394Y448862D01*
X367490Y448884D01*
X367492Y448885D01*
X367495Y448886D01*
X367643Y448988D01*
X368775Y450121D01*
X369512Y450426D01*
X369518Y450430D01*
X369524Y450431D01*
X369601Y450486D01*
X369679Y450538D01*
X369682Y450544D01*
X369687Y450547D01*
X369737Y450627D01*
X369789Y450706D01*
X369790Y450712D01*
X369793Y450718D01*
X369825Y450895D01*
X369825Y469424D01*
X372206Y471805D01*
X388574Y471805D01*
X389531Y470847D01*
X389536Y470844D01*
X389539Y470840D01*
X389619Y470789D01*
X389698Y470736D01*
X389703Y470735D01*
X389708Y470732D01*
X389802Y470716D01*
X389895Y470699D01*
X389900Y470700D01*
X389905Y470699D01*
X389998Y470720D01*
X390091Y470740D01*
X390096Y470743D01*
X390101Y470744D01*
X390249Y470847D01*
X391206Y471805D01*
X407574Y471805D01*
X409955Y469424D01*
X409955Y468376D01*
X409956Y468371D01*
X409955Y468366D01*
X409976Y468273D01*
X409994Y468179D01*
X409997Y468175D01*
X409998Y468170D01*
X410054Y468092D01*
X410107Y468014D01*
X410111Y468011D01*
X410114Y468007D01*
X410196Y467956D01*
X410275Y467904D01*
X410280Y467904D01*
X410285Y467901D01*
X410462Y467869D01*
X416179Y467869D01*
X416184Y467870D01*
X416189Y467869D01*
X416282Y467890D01*
X416376Y467908D01*
X416380Y467911D01*
X416385Y467912D01*
X416463Y467968D01*
X416541Y468021D01*
X416544Y468025D01*
X416548Y468028D01*
X416599Y468110D01*
X416651Y468189D01*
X416651Y468194D01*
X416654Y468199D01*
X416686Y468376D01*
X416686Y482318D01*
X416685Y482326D01*
X416686Y482333D01*
X416665Y482423D01*
X416647Y482514D01*
X416642Y482521D01*
X416640Y482529D01*
X416538Y482677D01*
X409669Y489545D01*
X409637Y489622D01*
X409633Y489628D01*
X409632Y489634D01*
X409577Y489711D01*
X409525Y489789D01*
X409520Y489792D01*
X409516Y489797D01*
X409436Y489847D01*
X409358Y489899D01*
X409351Y489900D01*
X409346Y489903D01*
X409168Y489935D01*
X407376Y489935D01*
X404995Y492316D01*
X404995Y493896D01*
X404994Y493901D01*
X404995Y493906D01*
X404974Y493999D01*
X404956Y494093D01*
X404953Y494097D01*
X404952Y494102D01*
X404896Y494180D01*
X404843Y494258D01*
X404839Y494261D01*
X404836Y494265D01*
X404754Y494316D01*
X404675Y494368D01*
X404670Y494368D01*
X404665Y494371D01*
X404488Y494403D01*
X397362Y494403D01*
X397354Y494402D01*
X397346Y494403D01*
X397256Y494382D01*
X397165Y494364D01*
X397159Y494359D01*
X397151Y494357D01*
X397003Y494255D01*
X395684Y492935D01*
X383316Y492935D01*
X380935Y495316D01*
X380935Y497080D01*
X380934Y497086D01*
X380935Y497092D01*
X380914Y497184D01*
X380896Y497276D01*
X380892Y497282D01*
X380891Y497288D01*
X380836Y497364D01*
X380783Y497442D01*
X380778Y497445D01*
X380774Y497451D01*
X380622Y497548D01*
X380074Y497775D01*
X370751Y507098D01*
X370041Y508814D01*
X370040Y508815D01*
X370040Y508816D01*
X369983Y508899D01*
X369929Y508980D01*
X369928Y508981D01*
X369927Y508982D01*
X369846Y509035D01*
X369761Y509090D01*
X369760Y509090D01*
X369759Y509091D01*
X369662Y509109D01*
X369564Y509127D01*
X369563Y509126D01*
X369562Y509127D01*
X369463Y509105D01*
X369368Y509084D01*
X369367Y509083D01*
X369366Y509083D01*
X369284Y509025D01*
X369204Y508969D01*
X369204Y508968D01*
X369203Y508967D01*
X369150Y508882D01*
X369098Y508799D01*
X369097Y508798D01*
X369097Y508797D01*
X369065Y508620D01*
X369065Y495316D01*
X366925Y493177D01*
X366921Y493170D01*
X366915Y493166D01*
X366866Y493087D01*
X366814Y493010D01*
X366813Y493002D01*
X366809Y492996D01*
X366777Y492818D01*
X366777Y449347D01*
X366777Y449344D01*
X366777Y449342D01*
X366797Y449247D01*
X366816Y449151D01*
X366818Y449148D01*
X366818Y449146D01*
X366874Y449065D01*
X366929Y448985D01*
X366931Y448983D01*
X366933Y448981D01*
X367016Y448928D01*
X367097Y448876D01*
X367100Y448875D01*
X367102Y448874D01*
X367198Y448857D01*
X367294Y448840D01*
X367297Y448841D01*
G37*
%LPC*%
G36*
X325070Y642238D02*
X325070Y642238D01*
X320286Y644220D01*
X316624Y647882D01*
X314642Y652667D01*
X314642Y675753D01*
X316624Y680538D01*
X320286Y684200D01*
X320613Y684336D01*
X320614Y684336D01*
X321838Y684843D01*
X323063Y685350D01*
X324287Y685857D01*
X325070Y686182D01*
X330250Y686182D01*
X335034Y684200D01*
X338696Y680538D01*
X340678Y675753D01*
X340678Y652667D01*
X338696Y647882D01*
X335034Y644220D01*
X334946Y644184D01*
X333722Y643676D01*
X333721Y643676D01*
X332497Y643169D01*
X331272Y642662D01*
X330250Y642238D01*
X325070Y642238D01*
G37*
%LPD*%
%LPC*%
G36*
X553670Y642238D02*
X553670Y642238D01*
X548886Y644220D01*
X545224Y647882D01*
X543242Y652667D01*
X543242Y675753D01*
X545224Y680538D01*
X548886Y684200D01*
X549213Y684336D01*
X549214Y684336D01*
X550438Y684843D01*
X551663Y685350D01*
X552887Y685857D01*
X553670Y686182D01*
X558850Y686182D01*
X563634Y684200D01*
X567296Y680538D01*
X569278Y675753D01*
X569278Y652667D01*
X567296Y647882D01*
X563634Y644220D01*
X563546Y644184D01*
X562322Y643676D01*
X562321Y643676D01*
X561097Y643169D01*
X559872Y642662D01*
X558850Y642238D01*
X553670Y642238D01*
G37*
%LPD*%
%LPC*%
G36*
X310436Y161795D02*
X310436Y161795D01*
X308055Y164176D01*
X308055Y176544D01*
X308843Y177331D01*
X308847Y177338D01*
X308853Y177342D01*
X308902Y177421D01*
X308954Y177498D01*
X308955Y177506D01*
X308959Y177512D01*
X308991Y177690D01*
X308991Y182847D01*
X310229Y185835D01*
X312895Y188501D01*
X313502Y188752D01*
X314726Y189260D01*
X315883Y189739D01*
X319117Y189739D01*
X322105Y188501D01*
X324391Y186215D01*
X325629Y183227D01*
X325629Y179993D01*
X325287Y179169D01*
X325286Y179160D01*
X325281Y179152D01*
X325249Y178975D01*
X325249Y177690D01*
X325250Y177682D01*
X325249Y177674D01*
X325270Y177585D01*
X325288Y177493D01*
X325293Y177487D01*
X325295Y177479D01*
X325397Y177331D01*
X325839Y176889D01*
X325843Y176886D01*
X325846Y176882D01*
X325926Y176831D01*
X326006Y176778D01*
X326011Y176777D01*
X326016Y176775D01*
X326109Y176759D01*
X326203Y176741D01*
X326208Y176742D01*
X326213Y176741D01*
X326306Y176763D01*
X326399Y176782D01*
X326403Y176786D01*
X326408Y176787D01*
X326556Y176890D01*
X326560Y176893D01*
X327139Y177228D01*
X327785Y177401D01*
X332105Y177401D01*
X332105Y170868D01*
X332106Y170863D01*
X332105Y170858D01*
X332126Y170765D01*
X332144Y170672D01*
X332147Y170667D01*
X332148Y170662D01*
X332204Y170584D01*
X332257Y170506D01*
X332261Y170503D01*
X332264Y170499D01*
X332346Y170448D01*
X332425Y170397D01*
X332430Y170396D01*
X332435Y170393D01*
X332612Y170361D01*
X333121Y170361D01*
X333121Y170359D01*
X332612Y170359D01*
X332607Y170358D01*
X332602Y170359D01*
X332509Y170338D01*
X332416Y170320D01*
X332411Y170317D01*
X332406Y170315D01*
X332328Y170260D01*
X332250Y170207D01*
X332247Y170203D01*
X332243Y170199D01*
X332192Y170118D01*
X332141Y170039D01*
X332140Y170034D01*
X332137Y170029D01*
X332105Y169852D01*
X332105Y163319D01*
X327785Y163319D01*
X327139Y163492D01*
X326560Y163827D01*
X326556Y163830D01*
X326552Y163833D01*
X326549Y163838D01*
X326469Y163889D01*
X326390Y163941D01*
X326384Y163942D01*
X326380Y163945D01*
X326286Y163961D01*
X326193Y163979D01*
X326187Y163978D01*
X326182Y163979D01*
X326089Y163957D01*
X325997Y163938D01*
X325992Y163935D01*
X325987Y163933D01*
X325839Y163831D01*
X323804Y161795D01*
X310436Y161795D01*
G37*
%LPD*%
%LPC*%
G36*
X581446Y534685D02*
X581446Y534685D01*
X579065Y537066D01*
X579065Y555434D01*
X581446Y557815D01*
X595314Y557815D01*
X596689Y556439D01*
X596696Y556435D01*
X596700Y556429D01*
X596779Y556380D01*
X596856Y556328D01*
X596864Y556327D01*
X596870Y556323D01*
X597048Y556291D01*
X597131Y556291D01*
X597131Y556208D01*
X597132Y556200D01*
X597131Y556192D01*
X597152Y556102D01*
X597170Y556011D01*
X597175Y556005D01*
X597177Y555997D01*
X597279Y555849D01*
X597695Y555434D01*
X597695Y546742D01*
X597696Y546737D01*
X597695Y546732D01*
X597716Y546639D01*
X597734Y546546D01*
X597737Y546541D01*
X597738Y546536D01*
X597794Y546458D01*
X597847Y546380D01*
X597851Y546377D01*
X597854Y546373D01*
X597936Y546322D01*
X598015Y546271D01*
X598020Y546270D01*
X598025Y546267D01*
X598115Y546251D01*
X598115Y546248D01*
X598099Y546244D01*
X598005Y546225D01*
X598001Y546223D01*
X597996Y546221D01*
X597918Y546166D01*
X597840Y546113D01*
X597837Y546108D01*
X597833Y546105D01*
X597782Y546024D01*
X597730Y545945D01*
X597730Y545940D01*
X597727Y545935D01*
X597695Y545758D01*
X597695Y537066D01*
X597279Y536651D01*
X597275Y536644D01*
X597268Y536640D01*
X597220Y536561D01*
X597168Y536484D01*
X597167Y536476D01*
X597163Y536469D01*
X597131Y536292D01*
X597131Y536209D01*
X597048Y536209D01*
X597040Y536208D01*
X597032Y536209D01*
X596942Y536188D01*
X596851Y536170D01*
X596845Y536165D01*
X596837Y536163D01*
X596689Y536061D01*
X595314Y534685D01*
X581446Y534685D01*
G37*
%LPD*%
%LPC*%
G36*
X713896Y236375D02*
X713896Y236375D01*
X711515Y238756D01*
X711515Y252124D01*
X713896Y254505D01*
X727264Y254505D01*
X729645Y252124D01*
X729645Y238756D01*
X727264Y236375D01*
X713896Y236375D01*
G37*
%LPD*%
%LPC*%
G36*
X221493Y26415D02*
X221493Y26415D01*
X221794Y28315D01*
X222399Y30178D01*
X223289Y31924D01*
X224440Y33508D01*
X225826Y34894D01*
X227410Y36045D01*
X229156Y36935D01*
X231019Y37540D01*
X232954Y37847D01*
X242825Y37847D01*
X242825Y26415D01*
X221493Y26415D01*
G37*
%LPD*%
%LPC*%
G36*
X232954Y12953D02*
X232954Y12953D01*
X231019Y13260D01*
X229156Y13865D01*
X227410Y14755D01*
X225826Y15906D01*
X224440Y17292D01*
X223289Y18876D01*
X222399Y20622D01*
X221794Y22485D01*
X221493Y24385D01*
X242825Y24385D01*
X242825Y12953D01*
X232954Y12953D01*
G37*
%LPD*%
%LPC*%
G36*
X448019Y246153D02*
X448019Y246153D01*
X445135Y247348D01*
X442928Y249555D01*
X441733Y252439D01*
X441733Y255561D01*
X442928Y258445D01*
X445135Y260652D01*
X445448Y260782D01*
X446673Y261289D01*
X447897Y261796D01*
X447898Y261796D01*
X448019Y261847D01*
X451141Y261847D01*
X454025Y260652D01*
X456232Y258445D01*
X457427Y255561D01*
X457427Y252439D01*
X456232Y249555D01*
X454025Y247348D01*
X453202Y247007D01*
X451977Y246500D01*
X451141Y246153D01*
X448019Y246153D01*
G37*
%LPD*%
%LPC*%
G36*
X277875Y665225D02*
X277875Y665225D01*
X277875Y684640D01*
X279551Y684375D01*
X281272Y683816D01*
X282884Y682994D01*
X284348Y681931D01*
X285627Y680651D01*
X286691Y679188D01*
X287512Y677576D01*
X288071Y675855D01*
X288354Y674068D01*
X288354Y665225D01*
X277875Y665225D01*
G37*
%LPD*%
%LPC*%
G36*
X455675Y665225D02*
X455675Y665225D01*
X455675Y684640D01*
X457351Y684375D01*
X459072Y683816D01*
X460684Y682994D01*
X462148Y681931D01*
X463427Y680651D01*
X464491Y679188D01*
X465312Y677576D01*
X465871Y675855D01*
X466154Y674068D01*
X466154Y665225D01*
X455675Y665225D01*
G37*
%LPD*%
%LPC*%
G36*
X455675Y663195D02*
X455675Y663195D01*
X466154Y663195D01*
X466154Y654352D01*
X465871Y652565D01*
X465312Y650844D01*
X464491Y649232D01*
X463427Y647769D01*
X462148Y646489D01*
X460684Y645426D01*
X459072Y644604D01*
X457351Y644045D01*
X455675Y643780D01*
X455675Y663195D01*
G37*
%LPD*%
%LPC*%
G36*
X277875Y663195D02*
X277875Y663195D01*
X288354Y663195D01*
X288354Y654352D01*
X288071Y652565D01*
X287512Y650844D01*
X286691Y649232D01*
X285627Y647769D01*
X284348Y646489D01*
X282884Y645426D01*
X281272Y644604D01*
X279551Y644045D01*
X277875Y643780D01*
X277875Y663195D01*
G37*
%LPD*%
%LPC*%
G36*
X443166Y665225D02*
X443166Y665225D01*
X443166Y674068D01*
X443449Y675855D01*
X444008Y677576D01*
X444829Y679188D01*
X445893Y680651D01*
X447172Y681931D01*
X448636Y682994D01*
X450248Y683816D01*
X451969Y684375D01*
X453645Y684640D01*
X453645Y665225D01*
X443166Y665225D01*
G37*
%LPD*%
%LPC*%
G36*
X265366Y665225D02*
X265366Y665225D01*
X265366Y674068D01*
X265649Y675855D01*
X266208Y677576D01*
X267029Y679188D01*
X268093Y680651D01*
X269372Y681931D01*
X270836Y682994D01*
X272448Y683816D01*
X274169Y684375D01*
X275845Y684640D01*
X275845Y665225D01*
X265366Y665225D01*
G37*
%LPD*%
%LPC*%
G36*
X274169Y644045D02*
X274169Y644045D01*
X272448Y644604D01*
X270836Y645426D01*
X269372Y646489D01*
X268093Y647769D01*
X267029Y649232D01*
X266208Y650844D01*
X265649Y652565D01*
X265366Y654352D01*
X265366Y663195D01*
X275845Y663195D01*
X275845Y643780D01*
X274169Y644045D01*
G37*
%LPD*%
%LPC*%
G36*
X451969Y644045D02*
X451969Y644045D01*
X450248Y644604D01*
X448636Y645426D01*
X447172Y646489D01*
X445893Y647769D01*
X444829Y649232D01*
X444008Y650844D01*
X443449Y652565D01*
X443166Y654352D01*
X443166Y663195D01*
X453645Y663195D01*
X453645Y643780D01*
X451969Y644045D01*
G37*
%LPD*%
%LPC*%
G36*
X426395Y230635D02*
X426395Y230635D01*
X426395Y238161D01*
X435715Y238161D01*
X436361Y237988D01*
X436940Y237653D01*
X437413Y237180D01*
X437748Y236601D01*
X437921Y235955D01*
X437921Y230635D01*
X426395Y230635D01*
G37*
%LPD*%
%LPC*%
G36*
X412839Y230635D02*
X412839Y230635D01*
X412839Y235955D01*
X413012Y236601D01*
X413347Y237180D01*
X413820Y237653D01*
X414399Y237988D01*
X415045Y238161D01*
X424365Y238161D01*
X424365Y230635D01*
X412839Y230635D01*
G37*
%LPD*%
%LPC*%
G36*
X426395Y221079D02*
X426395Y221079D01*
X426395Y228605D01*
X437921Y228605D01*
X437921Y223285D01*
X437748Y222639D01*
X437413Y222060D01*
X436940Y221587D01*
X436361Y221252D01*
X435715Y221079D01*
X426395Y221079D01*
G37*
%LPD*%
%LPC*%
G36*
X415045Y221079D02*
X415045Y221079D01*
X414399Y221252D01*
X413820Y221587D01*
X413347Y222060D01*
X413012Y222639D01*
X412839Y223285D01*
X412839Y228605D01*
X424365Y228605D01*
X424365Y221079D01*
X415045Y221079D01*
G37*
%LPD*%
%LPC*%
G36*
X248195Y74995D02*
X248195Y74995D01*
X248195Y84141D01*
X255135Y84141D01*
X255781Y83968D01*
X256360Y83633D01*
X256833Y83160D01*
X257168Y82581D01*
X257341Y81935D01*
X257341Y74995D01*
X248195Y74995D01*
G37*
%LPD*%
%LPC*%
G36*
X237019Y74995D02*
X237019Y74995D01*
X237019Y81935D01*
X237192Y82581D01*
X237527Y83160D01*
X238000Y83633D01*
X238579Y83968D01*
X239225Y84141D01*
X246165Y84141D01*
X246165Y74995D01*
X237019Y74995D01*
G37*
%LPD*%
%LPC*%
G36*
X248195Y63819D02*
X248195Y63819D01*
X248195Y72965D01*
X257341Y72965D01*
X257341Y66025D01*
X257168Y65379D01*
X256833Y64800D01*
X256360Y64327D01*
X255781Y63992D01*
X255135Y63819D01*
X248195Y63819D01*
G37*
%LPD*%
%LPC*%
G36*
X239225Y63819D02*
X239225Y63819D01*
X238579Y63992D01*
X238000Y64327D01*
X237527Y64800D01*
X237192Y65379D01*
X237019Y66025D01*
X237019Y72965D01*
X246165Y72965D01*
X246165Y63819D01*
X239225Y63819D01*
G37*
%LPD*%
%LPC*%
G36*
X362459Y211835D02*
X362459Y211835D01*
X362459Y219155D01*
X362632Y219801D01*
X362967Y220380D01*
X363440Y220853D01*
X364019Y221188D01*
X364665Y221361D01*
X370485Y221361D01*
X370485Y211835D01*
X362459Y211835D01*
G37*
%LPD*%
%LPC*%
G36*
X364665Y200279D02*
X364665Y200279D01*
X364019Y200452D01*
X363440Y200787D01*
X362967Y201260D01*
X362632Y201839D01*
X362459Y202485D01*
X362459Y209805D01*
X370485Y209805D01*
X370485Y200279D01*
X364665Y200279D01*
G37*
%LPD*%
%LPC*%
G36*
X625195Y442975D02*
X625195Y442975D01*
X625195Y452001D01*
X631015Y452001D01*
X631661Y451828D01*
X632240Y451493D01*
X632713Y451020D01*
X633048Y450441D01*
X633221Y449795D01*
X633221Y442975D01*
X625195Y442975D01*
G37*
%LPD*%
%LPC*%
G36*
X547115Y520515D02*
X547115Y520515D01*
X547115Y528541D01*
X553935Y528541D01*
X554581Y528368D01*
X555160Y528033D01*
X555633Y527560D01*
X555968Y526981D01*
X556141Y526335D01*
X556141Y520515D01*
X547115Y520515D01*
G37*
%LPD*%
%LPC*%
G36*
X711555Y386248D02*
X711555Y386248D01*
X711555Y395274D01*
X717375Y395274D01*
X718021Y395101D01*
X718600Y394766D01*
X719073Y394293D01*
X719408Y393714D01*
X719581Y393068D01*
X719581Y386248D01*
X711555Y386248D01*
G37*
%LPD*%
%LPC*%
G36*
X417575Y520515D02*
X417575Y520515D01*
X417575Y528541D01*
X424395Y528541D01*
X425041Y528368D01*
X425620Y528033D01*
X426093Y527560D01*
X426428Y526981D01*
X426601Y526335D01*
X426601Y520515D01*
X417575Y520515D01*
G37*
%LPD*%
%LPC*%
G36*
X536059Y520515D02*
X536059Y520515D01*
X536059Y526335D01*
X536232Y526981D01*
X536567Y527560D01*
X537040Y528033D01*
X537619Y528368D01*
X538265Y528541D01*
X545085Y528541D01*
X545085Y520515D01*
X536059Y520515D01*
G37*
%LPD*%
%LPC*%
G36*
X625195Y431919D02*
X625195Y431919D01*
X625195Y440945D01*
X633221Y440945D01*
X633221Y434125D01*
X633048Y433479D01*
X632713Y432900D01*
X632240Y432427D01*
X631661Y432092D01*
X631015Y431919D01*
X625195Y431919D01*
G37*
%LPD*%
%LPC*%
G36*
X406519Y520515D02*
X406519Y520515D01*
X406519Y526335D01*
X406692Y526981D01*
X407027Y527560D01*
X407500Y528033D01*
X408079Y528368D01*
X408725Y528541D01*
X415545Y528541D01*
X415545Y520515D01*
X406519Y520515D01*
G37*
%LPD*%
%LPC*%
G36*
X711555Y375193D02*
X711555Y375193D01*
X711555Y384218D01*
X719581Y384218D01*
X719581Y377399D01*
X719408Y376753D01*
X719073Y376173D01*
X718600Y375700D01*
X718021Y375366D01*
X717375Y375193D01*
X711555Y375193D01*
G37*
%LPD*%
%LPC*%
G36*
X489459Y310048D02*
X489459Y310048D01*
X489459Y316868D01*
X489632Y317514D01*
X489967Y318093D01*
X490440Y318566D01*
X491019Y318901D01*
X491665Y319074D01*
X497485Y319074D01*
X497485Y310048D01*
X489459Y310048D01*
G37*
%LPD*%
%LPC*%
G36*
X489459Y269408D02*
X489459Y269408D01*
X489459Y276228D01*
X489632Y276874D01*
X489967Y277453D01*
X490440Y277926D01*
X491019Y278261D01*
X491665Y278434D01*
X497485Y278434D01*
X497485Y269408D01*
X489459Y269408D01*
G37*
%LPD*%
%LPC*%
G36*
X491665Y258353D02*
X491665Y258353D01*
X491019Y258526D01*
X490440Y258860D01*
X489967Y259333D01*
X489632Y259913D01*
X489459Y260559D01*
X489459Y267378D01*
X497485Y267378D01*
X497485Y258353D01*
X491665Y258353D01*
G37*
%LPD*%
%LPC*%
G36*
X491665Y298993D02*
X491665Y298993D01*
X491019Y299166D01*
X490440Y299500D01*
X489967Y299973D01*
X489632Y300553D01*
X489459Y301199D01*
X489459Y308018D01*
X497485Y308018D01*
X497485Y298993D01*
X491665Y298993D01*
G37*
%LPD*%
%LPC*%
G36*
X655495Y159155D02*
X655495Y159155D01*
X655495Y165681D01*
X661815Y165681D01*
X662461Y165508D01*
X663040Y165173D01*
X663513Y164700D01*
X663848Y164121D01*
X664021Y163475D01*
X664021Y159155D01*
X655495Y159155D01*
G37*
%LPD*%
%LPC*%
G36*
X400405Y415465D02*
X400405Y415465D01*
X400405Y423991D01*
X404725Y423991D01*
X405371Y423818D01*
X405950Y423483D01*
X406423Y423010D01*
X406758Y422431D01*
X406931Y421785D01*
X406931Y415465D01*
X400405Y415465D01*
G37*
%LPD*%
%LPC*%
G36*
X400405Y404909D02*
X400405Y404909D01*
X400405Y413435D01*
X406931Y413435D01*
X406931Y407115D01*
X406758Y406469D01*
X406423Y405890D01*
X405950Y405417D01*
X405371Y405082D01*
X404725Y404909D01*
X400405Y404909D01*
G37*
%LPD*%
%LPC*%
G36*
X644939Y159155D02*
X644939Y159155D01*
X644939Y163475D01*
X645112Y164121D01*
X645447Y164700D01*
X645920Y165173D01*
X646499Y165508D01*
X647145Y165681D01*
X653465Y165681D01*
X653465Y159155D01*
X644939Y159155D01*
G37*
%LPD*%
%LPC*%
G36*
X391849Y415465D02*
X391849Y415465D01*
X391849Y421785D01*
X392022Y422431D01*
X392357Y423010D01*
X392830Y423483D01*
X393409Y423818D01*
X394055Y423991D01*
X398375Y423991D01*
X398375Y415465D01*
X391849Y415465D01*
G37*
%LPD*%
%LPC*%
G36*
X655495Y150599D02*
X655495Y150599D01*
X655495Y157125D01*
X664021Y157125D01*
X664021Y152805D01*
X663848Y152159D01*
X663513Y151580D01*
X663040Y151107D01*
X662461Y150772D01*
X661815Y150599D01*
X655495Y150599D01*
G37*
%LPD*%
%LPC*%
G36*
X394055Y404909D02*
X394055Y404909D01*
X393409Y405082D01*
X392830Y405417D01*
X392357Y405890D01*
X392022Y406469D01*
X391849Y407115D01*
X391849Y413435D01*
X398375Y413435D01*
X398375Y404909D01*
X394055Y404909D01*
G37*
%LPD*%
%LPC*%
G36*
X647145Y150599D02*
X647145Y150599D01*
X646499Y150772D01*
X645920Y151107D01*
X645447Y151580D01*
X645112Y152159D01*
X644939Y152805D01*
X644939Y157125D01*
X653465Y157125D01*
X653465Y150599D01*
X647145Y150599D01*
G37*
%LPD*%
%LPC*%
G36*
X641899Y623315D02*
X641899Y623315D01*
X641899Y634175D01*
X642072Y634821D01*
X642407Y635400D01*
X642880Y635873D01*
X643459Y636208D01*
X644105Y636381D01*
X645925Y636381D01*
X645925Y623315D01*
X641899Y623315D01*
G37*
%LPD*%
%LPC*%
G36*
X644105Y608219D02*
X644105Y608219D01*
X643459Y608392D01*
X642880Y608727D01*
X642407Y609200D01*
X642072Y609779D01*
X641899Y610425D01*
X641899Y621285D01*
X645925Y621285D01*
X645925Y608219D01*
X644105Y608219D01*
G37*
%LPD*%
%LPC*%
G36*
X350615Y311015D02*
X350615Y311015D01*
X350615Y319057D01*
X352249Y318732D01*
X353901Y318047D01*
X355389Y317054D01*
X356654Y315789D01*
X357647Y314301D01*
X358332Y312649D01*
X358657Y311015D01*
X350615Y311015D01*
G37*
%LPD*%
%LPC*%
G36*
X350615Y308985D02*
X350615Y308985D01*
X358657Y308985D01*
X358332Y307351D01*
X357647Y305699D01*
X356654Y304211D01*
X355389Y302946D01*
X353901Y301953D01*
X353508Y301790D01*
X352284Y301283D01*
X352283Y301283D01*
X352249Y301268D01*
X350615Y300943D01*
X350615Y308985D01*
G37*
%LPD*%
%LPC*%
G36*
X340543Y311015D02*
X340543Y311015D01*
X340868Y312649D01*
X341553Y314301D01*
X342546Y315789D01*
X343811Y317054D01*
X345299Y318047D01*
X345429Y318101D01*
X346653Y318608D01*
X346951Y318732D01*
X348585Y319057D01*
X348585Y311015D01*
X340543Y311015D01*
G37*
%LPD*%
%LPC*%
G36*
X346951Y301268D02*
X346951Y301268D01*
X345299Y301953D01*
X343811Y302946D01*
X342546Y304211D01*
X341553Y305699D01*
X340868Y307351D01*
X340543Y308985D01*
X348585Y308985D01*
X348585Y300943D01*
X346951Y301268D01*
G37*
%LPD*%
%LPC*%
G36*
X390515Y511015D02*
X390515Y511015D01*
X390515Y518485D01*
X396541Y518485D01*
X396541Y515665D01*
X396368Y515019D01*
X396359Y515004D01*
X396335Y514933D01*
X396304Y514866D01*
X396303Y514839D01*
X396295Y514814D01*
X396300Y514740D01*
X396298Y514666D01*
X396307Y514639D01*
X396309Y514614D01*
X396333Y514566D01*
X396359Y514496D01*
X396368Y514481D01*
X396541Y513835D01*
X396541Y511015D01*
X390515Y511015D01*
G37*
%LPD*%
%LPC*%
G36*
X599129Y547249D02*
X599129Y547249D01*
X599129Y556291D01*
X600465Y556291D01*
X601111Y556118D01*
X601126Y556109D01*
X601197Y556085D01*
X601264Y556054D01*
X601291Y556053D01*
X601316Y556045D01*
X601390Y556050D01*
X601464Y556048D01*
X601491Y556057D01*
X601516Y556059D01*
X601564Y556083D01*
X601634Y556109D01*
X601649Y556118D01*
X602295Y556291D01*
X603631Y556291D01*
X603631Y547249D01*
X599129Y547249D01*
G37*
%LPD*%
%LPC*%
G36*
X599129Y536209D02*
X599129Y536209D01*
X599129Y545251D01*
X603631Y545251D01*
X603631Y536209D01*
X602295Y536209D01*
X601649Y536382D01*
X601634Y536391D01*
X601563Y536415D01*
X601496Y536446D01*
X601469Y536447D01*
X601444Y536455D01*
X601370Y536450D01*
X601296Y536452D01*
X601269Y536443D01*
X601244Y536441D01*
X601196Y536417D01*
X601126Y536391D01*
X601111Y536382D01*
X600465Y536209D01*
X599129Y536209D01*
G37*
%LPD*%
%LPC*%
G36*
X334135Y130375D02*
X334135Y130375D01*
X334135Y136401D01*
X338455Y136401D01*
X339101Y136228D01*
X339680Y135893D01*
X340153Y135420D01*
X340488Y134841D01*
X340661Y134195D01*
X340661Y130375D01*
X334135Y130375D01*
G37*
%LPD*%
%LPC*%
G36*
X334135Y171375D02*
X334135Y171375D01*
X334135Y177401D01*
X338455Y177401D01*
X339101Y177228D01*
X339680Y176893D01*
X340153Y176420D01*
X340488Y175841D01*
X340661Y175195D01*
X340661Y171375D01*
X334135Y171375D01*
G37*
%LPD*%
%LPC*%
G36*
X365459Y130375D02*
X365459Y130375D01*
X365459Y134195D01*
X365632Y134841D01*
X365967Y135420D01*
X366440Y135893D01*
X367019Y136228D01*
X367665Y136401D01*
X371985Y136401D01*
X371985Y130375D01*
X365459Y130375D01*
G37*
%LPD*%
%LPC*%
G36*
X365459Y171375D02*
X365459Y171375D01*
X365459Y175195D01*
X365632Y175841D01*
X365967Y176420D01*
X366440Y176893D01*
X367019Y177228D01*
X367665Y177401D01*
X371985Y177401D01*
X371985Y171375D01*
X365459Y171375D01*
G37*
%LPD*%
%LPC*%
G36*
X334135Y163319D02*
X334135Y163319D01*
X334135Y169345D01*
X340661Y169345D01*
X340661Y165525D01*
X340488Y164879D01*
X340153Y164300D01*
X339680Y163827D01*
X339101Y163492D01*
X338455Y163319D01*
X334135Y163319D01*
G37*
%LPD*%
%LPC*%
G36*
X334135Y122319D02*
X334135Y122319D01*
X334135Y128345D01*
X340661Y128345D01*
X340661Y124525D01*
X340488Y123879D01*
X340153Y123300D01*
X339680Y122827D01*
X339101Y122492D01*
X338455Y122319D01*
X334135Y122319D01*
G37*
%LPD*%
%LPC*%
G36*
X367665Y163319D02*
X367665Y163319D01*
X367019Y163492D01*
X366440Y163827D01*
X365967Y164300D01*
X365632Y164879D01*
X365459Y165525D01*
X365459Y169345D01*
X371985Y169345D01*
X371985Y163319D01*
X367665Y163319D01*
G37*
%LPD*%
%LPC*%
G36*
X367665Y122319D02*
X367665Y122319D01*
X367019Y122492D01*
X366440Y122827D01*
X365967Y123300D01*
X365632Y123879D01*
X365459Y124525D01*
X365459Y128345D01*
X371985Y128345D01*
X371985Y122319D01*
X367665Y122319D01*
G37*
%LPD*%
%LPC*%
G36*
X390515Y520515D02*
X390515Y520515D01*
X390515Y525541D01*
X394335Y525541D01*
X394981Y525368D01*
X395560Y525033D01*
X396033Y524560D01*
X396368Y523981D01*
X396541Y523335D01*
X396541Y520515D01*
X390515Y520515D01*
G37*
%LPD*%
%LPC*%
G36*
X712164Y367331D02*
X712164Y367331D01*
X712164Y370748D01*
X714125Y370748D01*
X714771Y370575D01*
X715350Y370240D01*
X715823Y369767D01*
X716158Y369188D01*
X716331Y368542D01*
X716331Y367331D01*
X712164Y367331D01*
G37*
%LPD*%
%LPC*%
G36*
X691664Y342666D02*
X691664Y342666D01*
X691664Y346083D01*
X695831Y346083D01*
X695831Y344872D01*
X695658Y344226D01*
X695323Y343647D01*
X694850Y343174D01*
X694271Y342839D01*
X693625Y342666D01*
X691664Y342666D01*
G37*
%LPD*%
%LPC*%
G36*
X687955Y342666D02*
X687955Y342666D01*
X687309Y342839D01*
X686730Y343174D01*
X686257Y343647D01*
X685922Y344226D01*
X685749Y344872D01*
X685749Y346083D01*
X689916Y346083D01*
X689916Y342666D01*
X687955Y342666D01*
G37*
%LPD*%
%LPC*%
G36*
X349599Y309999D02*
X349599Y309999D01*
X349599Y310001D01*
X349601Y310001D01*
X349601Y309999D01*
X349599Y309999D01*
G37*
%LPD*%
%LPC*%
G36*
X454659Y664209D02*
X454659Y664209D01*
X454659Y664211D01*
X454661Y664211D01*
X454661Y664209D01*
X454659Y664209D01*
G37*
%LPD*%
%LPC*%
G36*
X247179Y73979D02*
X247179Y73979D01*
X247179Y73981D01*
X247181Y73981D01*
X247181Y73979D01*
X247179Y73979D01*
G37*
%LPD*%
%LPC*%
G36*
X276859Y664209D02*
X276859Y664209D01*
X276859Y664211D01*
X276861Y664211D01*
X276861Y664209D01*
X276859Y664209D01*
G37*
%LPD*%
%LPC*%
G36*
X654479Y158139D02*
X654479Y158139D01*
X654479Y158141D01*
X654481Y158141D01*
X654481Y158139D01*
X654479Y158139D01*
G37*
%LPD*%
%LPC*%
G36*
X425379Y229619D02*
X425379Y229619D01*
X425379Y229621D01*
X425381Y229621D01*
X425381Y229619D01*
X425379Y229619D01*
G37*
%LPD*%
%LPC*%
G36*
X399389Y414449D02*
X399389Y414449D01*
X399389Y414451D01*
X399391Y414451D01*
X399391Y414449D01*
X399389Y414449D01*
G37*
%LPD*%
D10*
X517500Y309033D03*
X498500Y309033D03*
X517500Y268393D03*
X498500Y268393D03*
X691540Y385233D03*
X710540Y385233D03*
D11*
X416560Y500500D03*
X416560Y519500D03*
X546100Y500500D03*
X546100Y519500D03*
D10*
X605180Y441960D03*
X624180Y441960D03*
D12*
X706940Y627940D03*
D13*
X678940Y622300D03*
X670940Y622300D03*
X662940Y622300D03*
X654940Y622300D03*
X646940Y622300D03*
D12*
X706940Y682940D03*
X618940Y627940D03*
X618940Y682940D03*
D14*
X336890Y93980D03*
X315890Y93980D03*
D15*
X36068Y477520D02*
X36068Y502920D01*
X256032Y502920D02*
X256032Y477520D01*
D16*
X195180Y367980D03*
X145180Y367980D03*
X247180Y73980D03*
X93180Y73980D03*
D17*
X711290Y359957D03*
X711290Y353457D03*
X711290Y346957D03*
X711290Y366457D03*
X690790Y353457D03*
X690790Y359957D03*
X690790Y366457D03*
X690790Y346957D03*
D18*
X585130Y473750D03*
X591630Y473750D03*
X598130Y473750D03*
X604630Y473750D03*
X611130Y473750D03*
X617630Y473750D03*
X624130Y473750D03*
X630630Y473750D03*
X637130Y473750D03*
X643630Y473750D03*
X650130Y473750D03*
X656630Y473750D03*
X663130Y473750D03*
X669630Y473750D03*
X669630Y546250D03*
X663130Y546250D03*
X656630Y546250D03*
X650130Y546250D03*
X643630Y546250D03*
X637130Y546250D03*
X630630Y546250D03*
X624130Y546250D03*
X617630Y546250D03*
X611130Y546250D03*
X604630Y546250D03*
X598130Y546250D03*
X591630Y546250D03*
X585130Y546250D03*
D19*
X390500Y93980D03*
X371500Y93980D03*
X607720Y91440D03*
X626720Y91440D03*
X334620Y210820D03*
X315620Y210820D03*
X607720Y131233D03*
X626720Y131233D03*
X371500Y210820D03*
X390500Y210820D03*
D20*
X333120Y129360D03*
X317120Y129360D03*
X317120Y170360D03*
X333120Y170360D03*
X373000Y170360D03*
X389000Y170360D03*
X389000Y129360D03*
X373000Y129360D03*
D21*
X253746Y25400D02*
X233934Y25400D01*
X103886Y25400D02*
X84074Y25400D01*
D22*
X389500Y500500D03*
X389500Y510000D03*
X389500Y519500D03*
X360500Y519500D03*
X360500Y510000D03*
X360500Y500500D03*
D23*
X200660Y655257D02*
X200660Y673164D01*
X149860Y673164D02*
X149860Y655257D01*
X99060Y655257D02*
X99060Y673164D01*
D24*
X575380Y89620D03*
X575380Y109620D03*
X575380Y129620D03*
X575380Y149620D03*
X575380Y169620D03*
X575380Y189620D03*
X575380Y209620D03*
X575380Y229620D03*
X425380Y229620D03*
X425380Y209620D03*
X425380Y189620D03*
X425380Y169620D03*
X425380Y149620D03*
X425380Y129620D03*
X425380Y109620D03*
X425380Y89620D03*
D23*
X378460Y655257D02*
X378460Y673164D01*
X327660Y673164D02*
X327660Y655257D01*
X276860Y655257D02*
X276860Y673164D01*
X556260Y673164D02*
X556260Y655257D01*
X505460Y655257D02*
X505460Y673164D01*
X454660Y673164D02*
X454660Y655257D01*
D19*
X607720Y268393D03*
X626720Y268393D03*
X607720Y309033D03*
X626720Y309033D03*
D25*
X464820Y519500D03*
X464820Y500500D03*
X505460Y519500D03*
X505460Y500500D03*
D26*
X686580Y191440D03*
X720580Y245440D03*
X686580Y245440D03*
D27*
X676480Y167640D03*
X654480Y158140D03*
X654480Y177140D03*
D19*
X607720Y172720D03*
X626720Y172720D03*
D28*
X349600Y310000D03*
X375000Y335400D03*
X400400Y310000D03*
D19*
X380390Y459740D03*
X399390Y459740D03*
D29*
X389890Y436450D03*
X399390Y414450D03*
X380390Y414450D03*
D19*
X380390Y377190D03*
X399390Y377190D03*
D30*
X247180Y73980D02*
X247180Y28740D01*
X243840Y25400D01*
D31*
X247650Y148590D03*
D32*
X335280Y148590D01*
X351790Y148590D01*
X370840Y148590D01*
X373000Y150750D01*
X373000Y170360D01*
X373000Y146430D02*
X373000Y129360D01*
X373000Y146430D02*
X370840Y148590D01*
X333120Y146430D02*
X333120Y129360D01*
X333120Y146430D02*
X335280Y148590D01*
X333120Y150750D02*
X333120Y170360D01*
X333120Y150750D02*
X335280Y148590D01*
D31*
X356870Y171450D03*
X356870Y210820D03*
D32*
X356870Y171450D02*
X371910Y171450D01*
X373000Y170360D01*
X371500Y210820D02*
X356870Y210820D01*
X498500Y268393D02*
X498500Y309033D01*
X459727Y229620D02*
X425380Y229620D01*
X459727Y229620D02*
X498500Y268393D01*
X498500Y309033D02*
X465243Y309033D01*
X443230Y287020D01*
X429260Y287020D01*
X372580Y287020D01*
X349600Y310000D01*
X380750Y229620D02*
X425380Y229620D01*
X371500Y220370D02*
X371500Y210820D01*
X371500Y220370D02*
X380750Y229620D01*
D33*
X389500Y510000D02*
X389500Y519500D01*
X416560Y519500D01*
X624130Y473750D02*
X624130Y442010D01*
X624180Y441960D01*
X604630Y546250D02*
X598130Y546250D01*
X604630Y546250D02*
X604630Y532020D01*
X609600Y527050D01*
X626110Y527050D01*
X630630Y531570D01*
X630630Y546250D01*
X650130Y546250D02*
X650130Y530750D01*
X646430Y527050D01*
X635150Y527050D01*
X630630Y531570D01*
X646940Y607570D02*
X646940Y622300D01*
X604630Y565260D02*
X604630Y546250D01*
X604630Y565260D02*
X646940Y607570D01*
D32*
X416560Y557530D02*
X416560Y519500D01*
X416560Y557530D02*
X416560Y605790D01*
X416560Y626110D01*
X454660Y664210D01*
X320040Y621030D02*
X276860Y664210D01*
X320040Y621030D02*
X320040Y556260D01*
X320040Y342900D01*
X320040Y321310D01*
X331350Y310000D01*
X349600Y310000D01*
D31*
X320040Y556260D03*
X416560Y557530D03*
D33*
X624130Y525070D02*
X624130Y473750D01*
X624130Y525070D02*
X626110Y527050D01*
D31*
X416560Y605790D03*
X568960Y565150D03*
D33*
X546100Y542290D01*
X546100Y519500D01*
X568960Y565150D02*
X569070Y565260D01*
X604630Y565260D01*
D32*
X624180Y441960D02*
X666750Y441960D01*
X710540Y398170D02*
X710540Y385233D01*
X710540Y398170D02*
X666750Y441960D01*
D33*
X690790Y346957D02*
X697477Y346957D01*
X703977Y353457D02*
X711290Y353457D01*
X703977Y353457D02*
X697477Y346957D01*
X711290Y384483D02*
X710540Y385233D01*
X711290Y384483D02*
X711290Y366457D01*
D31*
X654050Y115570D03*
D32*
X654480Y116000D02*
X654480Y158140D01*
X654480Y116000D02*
X654050Y115570D01*
D31*
X351790Y148590D03*
X320040Y293370D03*
X400050Y233680D03*
X350520Y231140D03*
X321310Y365760D03*
D32*
X321310Y344170D01*
X320040Y342900D01*
D31*
X426720Y302260D03*
X426720Y270510D03*
D32*
X426720Y284480D01*
X429260Y287020D01*
D31*
X720090Y529590D03*
X720090Y488950D03*
X720090Y447040D03*
D32*
X720090Y488950D01*
D31*
X374650Y490220D03*
X447040Y476250D03*
X439420Y426720D03*
X474980Y406400D03*
D32*
X459740Y406400D01*
X447040Y419100D01*
D31*
X562610Y457200D03*
X565150Y405130D03*
X648970Y429260D03*
X720090Y406400D03*
X720090Y332740D03*
X718820Y266700D03*
X652780Y265430D03*
X651510Y331470D03*
D32*
X447040Y419100D02*
X439420Y426720D01*
X651510Y331470D02*
X652780Y332740D01*
X720090Y332740D01*
D31*
X604520Y226060D03*
X604520Y204470D03*
X657860Y204470D03*
X657860Y226060D03*
X720090Y187960D03*
X720090Y163830D03*
X654050Y91440D03*
X712470Y92710D03*
D33*
X655320Y92710D02*
X654050Y91440D01*
X655320Y92710D02*
X712470Y92710D01*
D31*
X568960Y610870D03*
X594360Y307340D03*
X445770Y335280D03*
X557530Y302260D03*
X567690Y254000D03*
X590550Y264160D03*
D33*
X577850Y264160D02*
X567690Y254000D01*
X577850Y264160D02*
X590550Y264160D01*
D31*
X445770Y172720D03*
X547370Y172720D03*
D33*
X546100Y172720D01*
X541020Y177800D01*
D31*
X135890Y54610D03*
X201930Y52070D03*
D33*
X225260Y28740D01*
X247180Y28740D01*
D31*
X82550Y123190D03*
X353060Y684530D03*
X529590Y684530D03*
D33*
X529590Y670560D01*
D31*
X410210Y426720D03*
D33*
X399390Y415900D02*
X399390Y414450D01*
X399390Y415900D02*
X410210Y426720D01*
D30*
X93980Y73180D02*
X93980Y25400D01*
X93980Y73180D02*
X93180Y73980D01*
D32*
X125880Y106680D01*
X302260Y106680D01*
X303530Y106680D01*
X315890Y94320D01*
X315890Y93980D01*
D31*
X302260Y106680D03*
X300990Y209550D03*
D32*
X314350Y209550D02*
X315620Y210820D01*
X314350Y209550D02*
X300990Y209550D01*
X626720Y268393D02*
X626720Y309033D01*
X517500Y309033D02*
X517500Y268393D01*
X556273Y229620D02*
X575380Y229620D01*
X556273Y229620D02*
X517500Y268393D01*
D31*
X627380Y245110D03*
X627380Y149860D03*
D32*
X626720Y131233D02*
X626720Y91440D01*
X626720Y131233D02*
X626720Y149200D01*
X627380Y149860D01*
X627710Y245440D02*
X686580Y245440D01*
X627710Y245440D02*
X627380Y245110D01*
X590870Y245110D01*
X575380Y229620D01*
X626720Y268393D02*
X627710Y267403D01*
X627710Y245440D01*
D33*
X416560Y500500D02*
X389500Y500500D01*
X416560Y500500D02*
X464820Y500500D01*
X505460Y500500D01*
X546100Y500500D01*
X389500Y500500D02*
X387056Y502944D01*
X383527Y502944D01*
X375920Y510551D01*
X375920Y661670D02*
X378460Y664210D01*
X375920Y661670D02*
X375920Y510551D01*
D32*
X626533Y385233D02*
X691540Y385233D01*
X626110Y385233D02*
X626110Y309643D01*
X626720Y309033D01*
D33*
X702574Y359957D02*
X711290Y359957D01*
X696074Y353457D02*
X690790Y353457D01*
X701534Y358916D02*
X702574Y359957D01*
X701534Y358916D02*
X696074Y353457D01*
X695960Y380813D02*
X691540Y385233D01*
X701534Y370346D02*
X701534Y358916D01*
X695960Y375920D02*
X695960Y380813D01*
X695960Y375920D02*
X701534Y370346D01*
D32*
X626110Y385233D02*
X452967Y385233D01*
X452755Y385445D02*
X424815Y413385D01*
X424815Y459740D01*
X424815Y485895D02*
X416560Y494150D01*
X416560Y500500D01*
X424815Y485895D02*
X424815Y459740D01*
X452755Y385445D02*
X452543Y385233D01*
X401670Y312770D02*
X401670Y311270D01*
X400400Y310000D01*
X399390Y459740D02*
X424815Y459740D01*
X452755Y385445D02*
X452967Y385233D01*
X452967Y362567D02*
X400400Y310000D01*
X452967Y362567D02*
X452967Y385233D01*
D33*
X711290Y346957D02*
X717797Y346957D01*
X720090Y349250D01*
X720090Y358140D01*
X718273Y359957D02*
X711290Y359957D01*
X718273Y359957D02*
X720090Y358140D01*
D32*
X605900Y89620D02*
X575380Y89620D01*
X605900Y89620D02*
X607720Y91440D01*
D31*
X317500Y116840D03*
X317500Y181610D03*
D32*
X317120Y181230D02*
X317120Y170360D01*
X317120Y181230D02*
X317500Y181610D01*
X317120Y129360D02*
X317500Y128980D01*
X317500Y116840D01*
D31*
X551180Y90170D03*
D32*
X551730Y89620D02*
X575380Y89620D01*
X551730Y89620D02*
X551180Y90170D01*
X575380Y129620D02*
X606107Y129620D01*
X607720Y131233D01*
X505460Y553720D02*
X505460Y664210D01*
X541260Y149620D02*
X575380Y149620D01*
X541260Y149620D02*
X525780Y165100D01*
D31*
X525780Y166370D03*
X505460Y553720D03*
D32*
X505460Y519500D01*
X575380Y169620D02*
X604620Y169620D01*
X607720Y172720D01*
X575380Y189620D02*
X449970Y189620D01*
X449580Y189230D01*
D31*
X449580Y189230D03*
X449580Y254000D03*
D32*
X389890Y436450D02*
X380390Y445950D01*
X379120Y447220D01*
X380390Y445950D02*
X380390Y459740D01*
D31*
X373380Y443230D03*
D32*
X375130Y443230D01*
X379120Y447220D01*
X464820Y519500D02*
X464820Y547370D01*
D31*
X464820Y547370D03*
D32*
X542360Y209620D02*
X575380Y209620D01*
X542360Y209620D02*
X542290Y209550D01*
D31*
X542290Y209550D03*
X539750Y444500D03*
D32*
X464820Y444500D01*
D31*
X464820Y444500D03*
D32*
X425380Y209620D02*
X391700Y209620D01*
X390500Y210820D01*
X425380Y189620D02*
X346320Y189620D01*
X334620Y201320D02*
X334620Y210820D01*
X334620Y201320D02*
X346320Y189620D01*
X389740Y169620D02*
X425380Y169620D01*
X389740Y169620D02*
X389000Y170360D01*
X389000Y168880D02*
X389000Y129360D01*
X389000Y168880D02*
X389740Y169620D01*
X390500Y127860D02*
X390500Y93980D01*
X390500Y127860D02*
X389000Y129360D01*
D31*
X480060Y166370D03*
D32*
X452200Y129620D02*
X425380Y129620D01*
X452200Y129620D02*
X480060Y157480D01*
X480060Y166370D01*
D31*
X480060Y351790D03*
D32*
X564963Y351790D02*
X607720Y309033D01*
X564963Y351790D02*
X563880Y351790D01*
X480060Y351790D01*
D33*
X360500Y519500D02*
X349320Y519500D01*
X340360Y510540D01*
X340360Y393700D01*
D31*
X340360Y393700D03*
X563880Y351790D03*
X660400Y364490D03*
D33*
X662367Y366457D02*
X690790Y366457D01*
X662367Y366457D02*
X660400Y364490D01*
D31*
X464820Y166370D03*
D32*
X448070Y149620D02*
X425380Y149620D01*
X448070Y149620D02*
X464820Y166370D01*
D31*
X464820Y336550D03*
D32*
X607720Y278553D02*
X607720Y268393D01*
X607720Y278553D02*
X553533Y332740D01*
X552450Y332740D01*
X468630Y332740D01*
X464820Y336550D01*
D33*
X360680Y500320D02*
X360500Y500500D01*
X360680Y500320D02*
X360680Y378460D01*
X360680Y377190D01*
D31*
X360680Y378460D03*
X552450Y332740D03*
X666750Y353060D03*
D33*
X673647Y359957D02*
X690790Y359957D01*
X673647Y359957D02*
X666750Y353060D01*
D31*
X495300Y166370D03*
D32*
X455060Y109620D02*
X425380Y109620D01*
X455060Y109620D02*
X495300Y149860D01*
X495300Y166370D01*
D31*
X495300Y472440D03*
D33*
X496610Y473750D01*
X585130Y473750D01*
D31*
X510540Y166370D03*
D32*
X456650Y89620D02*
X425380Y89620D01*
X456650Y89620D02*
X510540Y143510D01*
X510540Y166370D01*
D31*
X510540Y485140D03*
D33*
X561340Y485140D01*
X575310Y499110D01*
X603250Y499110D01*
X611130Y491230D02*
X611130Y473750D01*
X611130Y491230D02*
X603250Y499110D01*
D32*
X371500Y93980D02*
X336890Y93980D01*
D33*
X662940Y579120D02*
X662940Y622300D01*
X669630Y572430D02*
X669630Y546250D01*
X669630Y572430D02*
X662940Y579120D01*
X670940Y600330D02*
X670940Y622300D01*
X670940Y600330D02*
X674370Y596900D01*
D31*
X674370Y596900D03*
X659130Y565150D03*
D33*
X663130Y561150D02*
X663130Y546250D01*
X663130Y561150D02*
X659130Y565150D01*
X604630Y473750D02*
X604630Y442510D01*
X605180Y441960D01*
X656630Y516930D02*
X656630Y546250D01*
X656630Y516930D02*
X656590Y516890D01*
D31*
X656590Y516890D03*
X589280Y443230D03*
D33*
X590000Y442510D02*
X604630Y442510D01*
X590000Y442510D02*
X589280Y443230D01*
X678940Y605030D02*
X678940Y622300D01*
X678940Y605030D02*
X687070Y596900D01*
D31*
X687070Y596900D03*
X637540Y565150D03*
D33*
X637130Y564740D02*
X637130Y546250D01*
X637130Y564740D02*
X637540Y565150D01*
D15*
X256032Y490220D02*
X184061Y490220D01*
X145180Y452395D01*
X145180Y367980D01*
D32*
X676480Y167640D02*
X686580Y177740D01*
X686580Y191440D01*
X654480Y177140D02*
X631140Y177140D01*
X626720Y172720D01*
D15*
X99060Y533400D02*
X99060Y664210D01*
X99060Y533400D02*
X54610Y488950D01*
X37338Y488950D01*
X36068Y490220D01*
D32*
X375000Y335400D02*
X399390Y359790D01*
X399390Y377190D01*
X380390Y377190D02*
X380390Y414450D01*
M02*
