G04 EAGLE Gerber RS-274X export*
G75*
%MOMM*%
%FSLAX34Y34*%
%LPD*%
%INBottom Copper*%
%IPPOS*%
%AMOC8*
5,1,8,0,0,1.08239X$1,22.5*%
G01*
%ADD10C,2.540000*%
%ADD11R,1.524000X1.524000*%
%ADD12C,1.981200*%
%ADD13C,1.790700*%
%ADD14C,1.308000*%
%ADD15C,0.756400*%
%ADD16C,0.812800*%
%ADD17C,0.406400*%

G36*
X228091Y10173D02*
X228091Y10173D01*
X228218Y10176D01*
X228291Y10193D01*
X228366Y10201D01*
X228487Y10238D01*
X228610Y10266D01*
X228679Y10297D01*
X228751Y10319D01*
X228862Y10379D01*
X228978Y10431D01*
X229039Y10475D01*
X229105Y10511D01*
X229202Y10591D01*
X229305Y10665D01*
X229357Y10720D01*
X229415Y10768D01*
X229494Y10867D01*
X229580Y10959D01*
X229620Y11023D01*
X229667Y11082D01*
X229725Y11194D01*
X229791Y11302D01*
X229818Y11372D01*
X229852Y11439D01*
X229887Y11561D01*
X229931Y11679D01*
X229943Y11754D01*
X229964Y11826D01*
X229974Y11952D01*
X229994Y12077D01*
X229991Y12152D01*
X229997Y12228D01*
X229982Y12353D01*
X229977Y12479D01*
X229959Y12553D01*
X229950Y12627D01*
X229911Y12747D01*
X229880Y12870D01*
X229848Y12938D01*
X229825Y13010D01*
X229763Y13120D01*
X229709Y13235D01*
X229664Y13295D01*
X229627Y13361D01*
X229544Y13456D01*
X229469Y13558D01*
X229413Y13608D01*
X229364Y13665D01*
X229264Y13743D01*
X229170Y13828D01*
X229095Y13874D01*
X229046Y13912D01*
X228980Y13945D01*
X228888Y14002D01*
X227410Y14755D01*
X225826Y15906D01*
X224440Y17292D01*
X223289Y18877D01*
X222399Y20622D01*
X221919Y22099D01*
X242570Y22099D01*
X242588Y22100D01*
X242605Y22099D01*
X242788Y22120D01*
X242970Y22139D01*
X242987Y22144D01*
X243005Y22146D01*
X243180Y22203D01*
X243355Y22257D01*
X243371Y22265D01*
X243388Y22271D01*
X243548Y22361D01*
X243709Y22448D01*
X243723Y22460D01*
X243739Y22469D01*
X243878Y22589D01*
X244019Y22706D01*
X244030Y22720D01*
X244043Y22732D01*
X244156Y22877D01*
X244271Y23020D01*
X244279Y23036D01*
X244290Y23050D01*
X244372Y23215D01*
X244456Y23377D01*
X244461Y23394D01*
X244469Y23410D01*
X244517Y23589D01*
X244568Y23764D01*
X244569Y23782D01*
X244574Y23799D01*
X244601Y24130D01*
X244601Y24639D01*
X245110Y24639D01*
X245128Y24641D01*
X245146Y24639D01*
X245328Y24661D01*
X245511Y24679D01*
X245528Y24684D01*
X245545Y24686D01*
X245720Y24743D01*
X245896Y24797D01*
X245911Y24805D01*
X245928Y24811D01*
X246088Y24901D01*
X246250Y24989D01*
X246263Y25000D01*
X246279Y25009D01*
X246418Y25129D01*
X246559Y25247D01*
X246570Y25260D01*
X246584Y25272D01*
X246696Y25417D01*
X246811Y25560D01*
X246819Y25576D01*
X246830Y25590D01*
X246912Y25755D01*
X246997Y25918D01*
X247002Y25935D01*
X247010Y25951D01*
X247057Y26129D01*
X247108Y26304D01*
X247110Y26322D01*
X247114Y26339D01*
X247141Y26670D01*
X247141Y37847D01*
X254726Y37847D01*
X256661Y37540D01*
X258524Y36935D01*
X259428Y36474D01*
X259515Y36440D01*
X259597Y36397D01*
X259702Y36367D01*
X259803Y36328D01*
X259895Y36312D01*
X259984Y36286D01*
X260093Y36277D01*
X260199Y36258D01*
X260293Y36261D01*
X260386Y36253D01*
X260493Y36266D01*
X260602Y36269D01*
X260693Y36289D01*
X260785Y36300D01*
X260889Y36334D01*
X260995Y36358D01*
X261080Y36396D01*
X261168Y36425D01*
X261263Y36478D01*
X261362Y36523D01*
X261438Y36577D01*
X261519Y36623D01*
X261601Y36694D01*
X261689Y36757D01*
X261753Y36825D01*
X261823Y36886D01*
X261890Y36972D01*
X261964Y37051D01*
X262013Y37130D01*
X262070Y37204D01*
X262119Y37301D01*
X262176Y37394D01*
X262208Y37481D01*
X262250Y37565D01*
X262278Y37669D01*
X262315Y37771D01*
X262330Y37863D01*
X262354Y37953D01*
X262365Y38087D01*
X262378Y38169D01*
X262376Y38219D01*
X262381Y38284D01*
X262381Y84329D01*
X330738Y84329D01*
X330747Y84330D01*
X330756Y84329D01*
X330949Y84350D01*
X331139Y84369D01*
X331147Y84371D01*
X331156Y84372D01*
X331339Y84430D01*
X331523Y84487D01*
X331531Y84491D01*
X331540Y84494D01*
X331708Y84586D01*
X331878Y84679D01*
X331884Y84684D01*
X331892Y84689D01*
X332039Y84813D01*
X332187Y84936D01*
X332192Y84943D01*
X332199Y84949D01*
X332319Y85101D01*
X332439Y85250D01*
X332443Y85258D01*
X332449Y85265D01*
X332537Y85438D01*
X332625Y85607D01*
X332627Y85616D01*
X332631Y85624D01*
X332683Y85810D01*
X332736Y85994D01*
X332737Y86003D01*
X332739Y86012D01*
X332753Y86203D01*
X332769Y86396D01*
X332768Y86404D01*
X332769Y86413D01*
X332744Y86605D01*
X332722Y86795D01*
X332719Y86804D01*
X332718Y86813D01*
X332657Y86996D01*
X332597Y87178D01*
X332593Y87186D01*
X332590Y87194D01*
X332494Y87361D01*
X332399Y87529D01*
X332393Y87536D01*
X332389Y87543D01*
X332174Y87796D01*
X315417Y104554D01*
X315407Y104562D01*
X315398Y104572D01*
X315251Y104689D01*
X315106Y104809D01*
X315094Y104815D01*
X315083Y104823D01*
X314915Y104909D01*
X314750Y104997D01*
X314737Y105001D01*
X314725Y105007D01*
X314544Y105058D01*
X314364Y105112D01*
X314351Y105113D01*
X314338Y105117D01*
X314152Y105131D01*
X313963Y105148D01*
X313949Y105147D01*
X313936Y105148D01*
X313752Y105125D01*
X313563Y105105D01*
X313550Y105101D01*
X313537Y105099D01*
X313358Y105040D01*
X313179Y104983D01*
X313167Y104977D01*
X313154Y104973D01*
X312990Y104879D01*
X312827Y104789D01*
X312816Y104780D01*
X312805Y104773D01*
X312663Y104650D01*
X312520Y104528D01*
X312511Y104518D01*
X312501Y104509D01*
X312387Y104360D01*
X312270Y104212D01*
X312264Y104200D01*
X312256Y104190D01*
X312104Y103895D01*
X310874Y100924D01*
X308016Y98066D01*
X304281Y96519D01*
X300239Y96519D01*
X296504Y98066D01*
X293646Y100924D01*
X292099Y104659D01*
X292099Y204059D01*
X292096Y204090D01*
X292098Y204121D01*
X292076Y204291D01*
X292059Y204459D01*
X292050Y204489D01*
X292046Y204520D01*
X291945Y204836D01*
X290829Y207529D01*
X290829Y211571D01*
X292376Y215306D01*
X292625Y215554D01*
X292645Y215579D01*
X292668Y215599D01*
X292772Y215734D01*
X292880Y215866D01*
X292895Y215893D01*
X292914Y215918D01*
X293065Y216213D01*
X293646Y217616D01*
X387168Y311138D01*
X387185Y311158D01*
X387206Y311176D01*
X387313Y311314D01*
X387423Y311449D01*
X387436Y311473D01*
X387452Y311494D01*
X387530Y311651D01*
X387612Y311805D01*
X387620Y311830D01*
X387632Y311855D01*
X387677Y312024D01*
X387727Y312191D01*
X387729Y312217D01*
X387736Y312243D01*
X387757Y312499D01*
X389687Y317158D01*
X393242Y320713D01*
X397886Y322637D01*
X402914Y322637D01*
X407558Y320713D01*
X411113Y317158D01*
X413037Y312514D01*
X413037Y307486D01*
X411113Y302842D01*
X407558Y299287D01*
X405514Y298440D01*
X405513Y298440D01*
X402908Y297361D01*
X402747Y297341D01*
X402573Y297323D01*
X402548Y297316D01*
X402521Y297312D01*
X402356Y297257D01*
X402189Y297205D01*
X402165Y297192D01*
X402140Y297184D01*
X401988Y297097D01*
X401835Y297013D01*
X401814Y296996D01*
X401791Y296983D01*
X401538Y296768D01*
X313016Y208246D01*
X312999Y208226D01*
X312978Y208208D01*
X312871Y208070D01*
X312761Y207935D01*
X312748Y207911D01*
X312732Y207890D01*
X312654Y207733D01*
X312572Y207579D01*
X312564Y207554D01*
X312552Y207529D01*
X312507Y207360D01*
X312457Y207193D01*
X312455Y207167D01*
X312448Y207141D01*
X312421Y206810D01*
X312421Y193544D01*
X312422Y193531D01*
X312421Y193517D01*
X312442Y193330D01*
X312461Y193143D01*
X312465Y193131D01*
X312466Y193117D01*
X312524Y192938D01*
X312579Y192758D01*
X312585Y192747D01*
X312589Y192734D01*
X312681Y192569D01*
X312771Y192404D01*
X312779Y192394D01*
X312786Y192382D01*
X312909Y192239D01*
X313028Y192095D01*
X313039Y192087D01*
X313047Y192077D01*
X313196Y191960D01*
X313342Y191843D01*
X313354Y191837D01*
X313365Y191828D01*
X313533Y191744D01*
X313699Y191657D01*
X313712Y191654D01*
X313724Y191648D01*
X313905Y191598D01*
X314086Y191546D01*
X314100Y191545D01*
X314113Y191541D01*
X314299Y191528D01*
X314488Y191513D01*
X314501Y191515D01*
X314514Y191514D01*
X314700Y191538D01*
X314887Y191560D01*
X314900Y191564D01*
X314913Y191566D01*
X315229Y191667D01*
X315479Y191771D01*
X319521Y191771D01*
X323256Y190224D01*
X326114Y187366D01*
X327661Y183631D01*
X327661Y121890D01*
X327663Y121864D01*
X327661Y121837D01*
X327683Y121663D01*
X327701Y121489D01*
X327708Y121464D01*
X327712Y121437D01*
X327767Y121272D01*
X327819Y121105D01*
X327832Y121081D01*
X327840Y121056D01*
X327927Y120904D01*
X328011Y120751D01*
X328028Y120730D01*
X328041Y120707D01*
X328256Y120454D01*
X347784Y100926D01*
X347804Y100909D01*
X347822Y100888D01*
X347960Y100781D01*
X348095Y100671D01*
X348119Y100658D01*
X348140Y100642D01*
X348297Y100564D01*
X348451Y100482D01*
X348476Y100474D01*
X348501Y100462D01*
X348670Y100417D01*
X348837Y100367D01*
X348863Y100365D01*
X348889Y100358D01*
X349220Y100331D01*
X553201Y100331D01*
X556936Y98784D01*
X559794Y95926D01*
X561341Y92191D01*
X561341Y88149D01*
X560922Y87137D01*
X560918Y87124D01*
X560912Y87113D01*
X560860Y86932D01*
X560805Y86752D01*
X560804Y86739D01*
X560800Y86726D01*
X560785Y86538D01*
X560767Y86351D01*
X560769Y86338D01*
X560767Y86324D01*
X560789Y86136D01*
X560809Y85951D01*
X560813Y85938D01*
X560814Y85925D01*
X560873Y85745D01*
X560929Y85566D01*
X560935Y85555D01*
X560939Y85542D01*
X561032Y85377D01*
X561122Y85213D01*
X561130Y85203D01*
X561137Y85191D01*
X561260Y85049D01*
X561381Y84905D01*
X561392Y84897D01*
X561400Y84887D01*
X561549Y84771D01*
X561696Y84654D01*
X561708Y84648D01*
X561718Y84640D01*
X561887Y84556D01*
X562054Y84470D01*
X562067Y84466D01*
X562079Y84460D01*
X562262Y84411D01*
X562441Y84360D01*
X562455Y84359D01*
X562468Y84356D01*
X562798Y84329D01*
X731520Y84329D01*
X731538Y84331D01*
X731556Y84329D01*
X731738Y84350D01*
X731921Y84369D01*
X731938Y84374D01*
X731955Y84376D01*
X732130Y84433D01*
X732306Y84487D01*
X732321Y84495D01*
X732338Y84501D01*
X732498Y84591D01*
X732660Y84679D01*
X732673Y84690D01*
X732689Y84699D01*
X732828Y84819D01*
X732969Y84936D01*
X732980Y84950D01*
X732994Y84962D01*
X733106Y85107D01*
X733221Y85250D01*
X733229Y85266D01*
X733240Y85280D01*
X733322Y85445D01*
X733407Y85607D01*
X733412Y85624D01*
X733420Y85641D01*
X733467Y85819D01*
X733518Y85994D01*
X733520Y86012D01*
X733524Y86029D01*
X733551Y86360D01*
X733551Y103809D01*
X733537Y103955D01*
X733530Y104101D01*
X733517Y104155D01*
X733511Y104210D01*
X733468Y104350D01*
X733433Y104491D01*
X733410Y104542D01*
X733393Y104595D01*
X733324Y104723D01*
X733261Y104855D01*
X733228Y104900D01*
X733201Y104949D01*
X733108Y105061D01*
X733021Y105178D01*
X732979Y105215D01*
X732944Y105258D01*
X732830Y105350D01*
X732721Y105447D01*
X732673Y105475D01*
X732630Y105510D01*
X732500Y105577D01*
X732374Y105652D01*
X732322Y105670D01*
X732273Y105696D01*
X732132Y105736D01*
X731994Y105784D01*
X731939Y105792D01*
X731886Y105807D01*
X731740Y105819D01*
X731595Y105839D01*
X731540Y105836D01*
X731484Y105840D01*
X731339Y105823D01*
X731193Y105814D01*
X731140Y105800D01*
X731085Y105793D01*
X730946Y105748D01*
X730804Y105710D01*
X730747Y105683D01*
X730702Y105668D01*
X730629Y105627D01*
X730504Y105568D01*
X728177Y104224D01*
X721142Y102339D01*
X713858Y102339D01*
X706823Y104224D01*
X700516Y107866D01*
X695366Y113016D01*
X691724Y119323D01*
X689839Y126358D01*
X689839Y133642D01*
X691724Y140677D01*
X695366Y146984D01*
X700516Y152134D01*
X706823Y155776D01*
X713858Y157661D01*
X721142Y157661D01*
X728177Y155776D01*
X730504Y154432D01*
X730638Y154371D01*
X730767Y154304D01*
X730821Y154289D01*
X730871Y154266D01*
X731014Y154233D01*
X731154Y154193D01*
X731210Y154188D01*
X731264Y154176D01*
X731410Y154172D01*
X731556Y154160D01*
X731611Y154166D01*
X731666Y154165D01*
X731811Y154190D01*
X731955Y154207D01*
X732008Y154224D01*
X732063Y154234D01*
X732199Y154286D01*
X732338Y154332D01*
X732387Y154359D01*
X732438Y154379D01*
X732562Y154458D01*
X732689Y154530D01*
X732731Y154566D01*
X732778Y154596D01*
X732883Y154697D01*
X732994Y154793D01*
X733028Y154837D01*
X733068Y154875D01*
X733151Y154995D01*
X733240Y155111D01*
X733265Y155160D01*
X733297Y155206D01*
X733355Y155341D01*
X733420Y155471D01*
X733434Y155525D01*
X733456Y155576D01*
X733486Y155719D01*
X733524Y155860D01*
X733529Y155923D01*
X733539Y155970D01*
X733540Y156054D01*
X733551Y156191D01*
X733551Y553809D01*
X733537Y553955D01*
X733530Y554101D01*
X733517Y554155D01*
X733511Y554210D01*
X733468Y554350D01*
X733433Y554491D01*
X733410Y554542D01*
X733393Y554595D01*
X733324Y554723D01*
X733261Y554855D01*
X733228Y554900D01*
X733201Y554949D01*
X733108Y555061D01*
X733021Y555178D01*
X732979Y555215D01*
X732944Y555258D01*
X732830Y555350D01*
X732721Y555447D01*
X732673Y555475D01*
X732630Y555510D01*
X732500Y555577D01*
X732374Y555652D01*
X732322Y555670D01*
X732273Y555696D01*
X732132Y555736D01*
X731994Y555784D01*
X731939Y555792D01*
X731886Y555807D01*
X731740Y555819D01*
X731595Y555839D01*
X731540Y555836D01*
X731484Y555840D01*
X731339Y555823D01*
X731193Y555814D01*
X731140Y555800D01*
X731085Y555793D01*
X730946Y555748D01*
X730804Y555710D01*
X730747Y555683D01*
X730702Y555668D01*
X730629Y555627D01*
X730504Y555568D01*
X728177Y554224D01*
X721142Y552339D01*
X713858Y552339D01*
X706823Y554224D01*
X700516Y557866D01*
X695366Y563016D01*
X691724Y569323D01*
X689839Y576358D01*
X689839Y583642D01*
X690060Y584464D01*
X690073Y584545D01*
X690096Y584624D01*
X690106Y584744D01*
X690125Y584862D01*
X690122Y584944D01*
X690129Y585026D01*
X690115Y585144D01*
X690110Y585264D01*
X690091Y585344D01*
X690082Y585425D01*
X690045Y585539D01*
X690017Y585656D01*
X689982Y585730D01*
X689957Y585808D01*
X689898Y585913D01*
X689848Y586021D01*
X689799Y586087D01*
X689759Y586159D01*
X689681Y586249D01*
X689610Y586346D01*
X689550Y586401D01*
X689496Y586464D01*
X689401Y586537D01*
X689313Y586618D01*
X689243Y586660D01*
X689178Y586710D01*
X689071Y586764D01*
X688968Y586825D01*
X688891Y586853D01*
X688817Y586890D01*
X688702Y586921D01*
X688589Y586961D01*
X688508Y586973D01*
X688428Y586994D01*
X688276Y587007D01*
X688191Y587019D01*
X688150Y587017D01*
X688098Y587021D01*
X685105Y587021D01*
X681497Y588516D01*
X681472Y588523D01*
X681448Y588535D01*
X681279Y588581D01*
X681112Y588632D01*
X681085Y588635D01*
X681059Y588642D01*
X680885Y588654D01*
X680711Y588670D01*
X680685Y588667D01*
X680658Y588669D01*
X680484Y588647D01*
X680311Y588629D01*
X680285Y588621D01*
X680259Y588617D01*
X679943Y588516D01*
X676114Y586930D01*
X676087Y586915D01*
X676057Y586905D01*
X675910Y586820D01*
X675759Y586740D01*
X675735Y586720D01*
X675708Y586704D01*
X675455Y586490D01*
X667854Y578888D01*
X667837Y578867D01*
X667816Y578850D01*
X667709Y578712D01*
X667599Y578576D01*
X667586Y578553D01*
X667570Y578532D01*
X667492Y578375D01*
X667410Y578221D01*
X667402Y578195D01*
X667390Y578171D01*
X667345Y578002D01*
X667295Y577835D01*
X667293Y577808D01*
X667286Y577782D01*
X667259Y577452D01*
X667259Y571744D01*
X667262Y571713D01*
X667260Y571682D01*
X667282Y571512D01*
X667299Y571343D01*
X667308Y571314D01*
X667312Y571282D01*
X667413Y570967D01*
X669009Y567115D01*
X669009Y563185D01*
X667505Y559554D01*
X664726Y556775D01*
X663842Y556409D01*
X661095Y555271D01*
X657165Y555271D01*
X653534Y556775D01*
X650755Y559554D01*
X650212Y560866D01*
X650207Y560874D01*
X650205Y560883D01*
X650113Y561051D01*
X650021Y561221D01*
X650016Y561228D01*
X650011Y561236D01*
X649889Y561382D01*
X649765Y561532D01*
X649758Y561537D01*
X649752Y561544D01*
X649603Y561663D01*
X649452Y561785D01*
X649444Y561790D01*
X649438Y561795D01*
X649267Y561883D01*
X649096Y561973D01*
X649087Y561975D01*
X649079Y561979D01*
X648896Y562031D01*
X648710Y562086D01*
X648700Y562086D01*
X648692Y562089D01*
X648501Y562104D01*
X648308Y562120D01*
X648299Y562119D01*
X648291Y562120D01*
X648101Y562097D01*
X647908Y562075D01*
X647900Y562072D01*
X647891Y562071D01*
X647708Y562011D01*
X647525Y561952D01*
X647517Y561948D01*
X647509Y561945D01*
X647341Y561849D01*
X647174Y561756D01*
X647167Y561750D01*
X647159Y561745D01*
X647014Y561619D01*
X646868Y561494D01*
X646862Y561487D01*
X646855Y561481D01*
X646738Y561328D01*
X646619Y561177D01*
X646615Y561169D01*
X646610Y561162D01*
X646458Y560866D01*
X645915Y559554D01*
X643136Y556775D01*
X642252Y556409D01*
X639505Y555271D01*
X635575Y555271D01*
X631944Y556775D01*
X629165Y559554D01*
X627661Y563185D01*
X627661Y567115D01*
X629257Y570967D01*
X629266Y570996D01*
X629280Y571024D01*
X629324Y571189D01*
X629373Y571352D01*
X629376Y571383D01*
X629384Y571413D01*
X629411Y571744D01*
X629411Y582007D01*
X630649Y584995D01*
X662145Y616491D01*
X665133Y617729D01*
X683607Y617729D01*
X686595Y616491D01*
X693961Y609125D01*
X695199Y606137D01*
X695199Y603494D01*
X695202Y603463D01*
X695200Y603432D01*
X695222Y603262D01*
X695239Y603093D01*
X695248Y603064D01*
X695252Y603033D01*
X695353Y602717D01*
X695873Y601463D01*
X695879Y601451D01*
X695883Y601438D01*
X695974Y601273D01*
X696063Y601108D01*
X696071Y601098D01*
X696078Y601086D01*
X696200Y600942D01*
X696319Y600798D01*
X696330Y600789D01*
X696338Y600779D01*
X696486Y600662D01*
X696632Y600544D01*
X696644Y600538D01*
X696654Y600529D01*
X696822Y600444D01*
X696988Y600357D01*
X697001Y600353D01*
X697013Y600347D01*
X697195Y600296D01*
X697375Y600244D01*
X697388Y600243D01*
X697401Y600239D01*
X697590Y600225D01*
X697776Y600209D01*
X697789Y600211D01*
X697803Y600210D01*
X697991Y600233D01*
X698176Y600254D01*
X698189Y600258D01*
X698202Y600260D01*
X698381Y600320D01*
X698559Y600377D01*
X698571Y600384D01*
X698584Y600388D01*
X698746Y600482D01*
X698911Y600574D01*
X698921Y600582D01*
X698933Y600589D01*
X699186Y600804D01*
X700516Y602134D01*
X706823Y605776D01*
X713858Y607661D01*
X721142Y607661D01*
X728177Y605776D01*
X730504Y604432D01*
X730638Y604371D01*
X730767Y604304D01*
X730821Y604289D01*
X730871Y604266D01*
X731014Y604233D01*
X731154Y604193D01*
X731210Y604188D01*
X731264Y604176D01*
X731410Y604172D01*
X731556Y604160D01*
X731611Y604166D01*
X731666Y604165D01*
X731811Y604190D01*
X731955Y604207D01*
X732008Y604224D01*
X732063Y604234D01*
X732199Y604286D01*
X732338Y604332D01*
X732387Y604359D01*
X732438Y604379D01*
X732562Y604458D01*
X732689Y604530D01*
X732731Y604566D01*
X732778Y604596D01*
X732883Y604697D01*
X732994Y604793D01*
X733028Y604837D01*
X733068Y604875D01*
X733151Y604995D01*
X733240Y605111D01*
X733265Y605160D01*
X733297Y605206D01*
X733355Y605341D01*
X733420Y605471D01*
X733434Y605525D01*
X733456Y605576D01*
X733486Y605719D01*
X733524Y605860D01*
X733529Y605923D01*
X733539Y605970D01*
X733540Y606054D01*
X733551Y606191D01*
X733551Y688340D01*
X733549Y688358D01*
X733551Y688376D01*
X733530Y688558D01*
X733511Y688741D01*
X733506Y688758D01*
X733504Y688775D01*
X733447Y688950D01*
X733393Y689126D01*
X733385Y689141D01*
X733379Y689158D01*
X733289Y689318D01*
X733201Y689480D01*
X733190Y689493D01*
X733181Y689509D01*
X733061Y689648D01*
X732944Y689789D01*
X732930Y689800D01*
X732918Y689814D01*
X732773Y689926D01*
X732630Y690041D01*
X732614Y690049D01*
X732600Y690060D01*
X732435Y690142D01*
X732273Y690227D01*
X732256Y690232D01*
X732240Y690240D01*
X732061Y690287D01*
X731886Y690338D01*
X731868Y690340D01*
X731851Y690344D01*
X731520Y690371D01*
X564257Y690371D01*
X564252Y690371D01*
X564248Y690371D01*
X564054Y690351D01*
X563856Y690331D01*
X563852Y690330D01*
X563847Y690330D01*
X563662Y690272D01*
X563471Y690213D01*
X563467Y690211D01*
X563463Y690210D01*
X563291Y690116D01*
X563117Y690021D01*
X563114Y690019D01*
X563110Y690016D01*
X562960Y689891D01*
X562808Y689764D01*
X562805Y689760D01*
X562802Y689757D01*
X562680Y689605D01*
X562556Y689450D01*
X562553Y689446D01*
X562551Y689443D01*
X562461Y689268D01*
X562370Y689093D01*
X562369Y689088D01*
X562367Y689084D01*
X562314Y688897D01*
X562259Y688706D01*
X562258Y688701D01*
X562257Y688697D01*
X562242Y688504D01*
X562226Y688304D01*
X562226Y688300D01*
X562226Y688296D01*
X562249Y688103D01*
X562273Y687905D01*
X562274Y687900D01*
X562275Y687896D01*
X562335Y687713D01*
X562398Y687522D01*
X562400Y687518D01*
X562401Y687514D01*
X562498Y687344D01*
X562595Y687171D01*
X562598Y687168D01*
X562601Y687164D01*
X562732Y687013D01*
X562859Y686867D01*
X562862Y686864D01*
X562865Y686860D01*
X563022Y686740D01*
X563177Y686620D01*
X563181Y686618D01*
X563184Y686615D01*
X563479Y686463D01*
X564785Y685922D01*
X569019Y681689D01*
X571310Y676157D01*
X571310Y652263D01*
X569019Y646731D01*
X567016Y644728D01*
X566999Y644707D01*
X566978Y644690D01*
X566871Y644552D01*
X566761Y644416D01*
X566748Y644393D01*
X566732Y644372D01*
X566654Y644215D01*
X566572Y644061D01*
X566564Y644035D01*
X566552Y644011D01*
X566507Y643842D01*
X566457Y643675D01*
X566455Y643648D01*
X566448Y643622D01*
X566421Y643292D01*
X566421Y631709D01*
X564874Y627974D01*
X546776Y609876D01*
X543041Y608329D01*
X396759Y608329D01*
X393024Y609876D01*
X368576Y634324D01*
X367029Y638059D01*
X367029Y644562D01*
X367027Y644588D01*
X367029Y644615D01*
X367007Y644789D01*
X366989Y644962D01*
X366982Y644988D01*
X366978Y645014D01*
X366923Y645180D01*
X366871Y645347D01*
X366858Y645371D01*
X366850Y645396D01*
X366763Y645548D01*
X366679Y645701D01*
X366662Y645722D01*
X366649Y645745D01*
X366434Y645998D01*
X365701Y646731D01*
X363410Y652263D01*
X363410Y676157D01*
X365701Y681689D01*
X369935Y685922D01*
X371241Y686463D01*
X371244Y686465D01*
X371249Y686467D01*
X371424Y686562D01*
X371595Y686654D01*
X371599Y686656D01*
X371603Y686659D01*
X371754Y686785D01*
X371906Y686910D01*
X371909Y686914D01*
X371912Y686916D01*
X372035Y687069D01*
X372160Y687223D01*
X372162Y687227D01*
X372164Y687230D01*
X372254Y687402D01*
X372347Y687579D01*
X372348Y687584D01*
X372350Y687587D01*
X372404Y687774D01*
X372460Y687966D01*
X372460Y687970D01*
X372461Y687974D01*
X372478Y688172D01*
X372494Y688367D01*
X372494Y688371D01*
X372494Y688376D01*
X372471Y688571D01*
X372449Y688767D01*
X372448Y688771D01*
X372447Y688775D01*
X372386Y688962D01*
X372326Y689150D01*
X372324Y689154D01*
X372322Y689158D01*
X372226Y689329D01*
X372130Y689502D01*
X372127Y689505D01*
X372125Y689509D01*
X371996Y689658D01*
X371868Y689807D01*
X371864Y689810D01*
X371861Y689814D01*
X371707Y689933D01*
X371551Y690056D01*
X371547Y690058D01*
X371543Y690060D01*
X371367Y690148D01*
X371191Y690236D01*
X371187Y690238D01*
X371183Y690240D01*
X370990Y690291D01*
X370803Y690343D01*
X370798Y690343D01*
X370794Y690344D01*
X370463Y690371D01*
X335657Y690371D01*
X335652Y690371D01*
X335648Y690371D01*
X335454Y690351D01*
X335256Y690331D01*
X335252Y690330D01*
X335247Y690330D01*
X335062Y690272D01*
X334871Y690213D01*
X334867Y690211D01*
X334863Y690210D01*
X334691Y690116D01*
X334517Y690021D01*
X334514Y690019D01*
X334510Y690016D01*
X334358Y689889D01*
X334208Y689764D01*
X334205Y689760D01*
X334202Y689757D01*
X334079Y689603D01*
X333956Y689450D01*
X333954Y689446D01*
X333951Y689443D01*
X333860Y689267D01*
X333770Y689093D01*
X333769Y689088D01*
X333767Y689084D01*
X333713Y688896D01*
X333659Y688706D01*
X333658Y688701D01*
X333657Y688697D01*
X333642Y688504D01*
X333626Y688304D01*
X333626Y688300D01*
X333626Y688296D01*
X333649Y688103D01*
X333673Y687905D01*
X333674Y687900D01*
X333675Y687896D01*
X333737Y687709D01*
X333798Y687522D01*
X333800Y687518D01*
X333801Y687514D01*
X333899Y687342D01*
X333995Y687171D01*
X333998Y687168D01*
X334001Y687164D01*
X334130Y687015D01*
X334259Y686867D01*
X334262Y686864D01*
X334265Y686860D01*
X334423Y686739D01*
X334577Y686620D01*
X334581Y686618D01*
X334584Y686615D01*
X334879Y686463D01*
X336185Y685922D01*
X340419Y681689D01*
X342710Y676157D01*
X342710Y652263D01*
X340419Y646731D01*
X338416Y644728D01*
X338399Y644707D01*
X338378Y644690D01*
X338271Y644552D01*
X338161Y644416D01*
X338148Y644393D01*
X338132Y644372D01*
X338054Y644215D01*
X337972Y644061D01*
X337964Y644035D01*
X337952Y644011D01*
X337907Y643842D01*
X337857Y643675D01*
X337855Y643648D01*
X337848Y643622D01*
X337821Y643292D01*
X337821Y619730D01*
X337823Y619704D01*
X337821Y619677D01*
X337843Y619503D01*
X337861Y619329D01*
X337868Y619304D01*
X337872Y619277D01*
X337927Y619112D01*
X337979Y618945D01*
X337992Y618921D01*
X338000Y618896D01*
X338087Y618744D01*
X338171Y618591D01*
X338188Y618570D01*
X338201Y618547D01*
X338416Y618294D01*
X356674Y600036D01*
X356694Y600019D01*
X356712Y599998D01*
X356850Y599891D01*
X356985Y599781D01*
X357009Y599768D01*
X357030Y599752D01*
X357187Y599674D01*
X357341Y599592D01*
X357366Y599584D01*
X357391Y599572D01*
X357560Y599527D01*
X357727Y599477D01*
X357753Y599475D01*
X357779Y599468D01*
X358110Y599441D01*
X424931Y599441D01*
X428666Y597894D01*
X431810Y594750D01*
X470290Y556270D01*
X470290Y556269D01*
X473434Y553126D01*
X474981Y549391D01*
X474981Y442479D01*
X473434Y438744D01*
X470576Y435886D01*
X466841Y434339D01*
X462799Y434339D01*
X459064Y435886D01*
X456206Y438744D01*
X454659Y442479D01*
X454659Y542320D01*
X454657Y542347D01*
X454659Y542373D01*
X454637Y542547D01*
X454619Y542721D01*
X454612Y542746D01*
X454608Y542773D01*
X454553Y542938D01*
X454501Y543105D01*
X454488Y543129D01*
X454480Y543154D01*
X454393Y543306D01*
X454309Y543460D01*
X454292Y543480D01*
X454279Y543503D01*
X454064Y543756D01*
X419296Y578524D01*
X419276Y578541D01*
X419258Y578562D01*
X419120Y578669D01*
X418985Y578779D01*
X418961Y578792D01*
X418940Y578808D01*
X418783Y578886D01*
X418629Y578968D01*
X418604Y578976D01*
X418579Y578988D01*
X418410Y579033D01*
X418243Y579083D01*
X418217Y579085D01*
X418191Y579092D01*
X417860Y579119D01*
X351039Y579119D01*
X347304Y580666D01*
X319046Y608924D01*
X317499Y612659D01*
X317499Y643292D01*
X317497Y643318D01*
X317499Y643345D01*
X317477Y643519D01*
X317459Y643692D01*
X317452Y643718D01*
X317448Y643744D01*
X317393Y643910D01*
X317341Y644077D01*
X317328Y644101D01*
X317320Y644126D01*
X317233Y644278D01*
X317149Y644431D01*
X317132Y644452D01*
X317119Y644475D01*
X316904Y644728D01*
X314901Y646731D01*
X312610Y652263D01*
X312610Y676157D01*
X314901Y681689D01*
X319135Y685922D01*
X320441Y686463D01*
X320444Y686465D01*
X320449Y686467D01*
X320624Y686562D01*
X320795Y686654D01*
X320799Y686656D01*
X320803Y686659D01*
X320954Y686785D01*
X321106Y686910D01*
X321109Y686914D01*
X321112Y686916D01*
X321235Y687069D01*
X321360Y687223D01*
X321362Y687227D01*
X321364Y687230D01*
X321454Y687402D01*
X321547Y687579D01*
X321548Y687584D01*
X321550Y687587D01*
X321604Y687774D01*
X321660Y687966D01*
X321660Y687970D01*
X321661Y687974D01*
X321678Y688172D01*
X321694Y688367D01*
X321694Y688371D01*
X321694Y688376D01*
X321671Y688571D01*
X321649Y688767D01*
X321648Y688771D01*
X321647Y688775D01*
X321586Y688962D01*
X321526Y689150D01*
X321524Y689154D01*
X321522Y689158D01*
X321426Y689329D01*
X321330Y689502D01*
X321327Y689505D01*
X321325Y689509D01*
X321196Y689658D01*
X321068Y689807D01*
X321064Y689810D01*
X321061Y689814D01*
X320907Y689933D01*
X320751Y690056D01*
X320747Y690058D01*
X320743Y690060D01*
X320567Y690148D01*
X320391Y690236D01*
X320387Y690238D01*
X320383Y690240D01*
X320190Y690291D01*
X320003Y690343D01*
X319998Y690343D01*
X319994Y690344D01*
X319663Y690371D01*
X262890Y690371D01*
X262872Y690369D01*
X262854Y690371D01*
X262672Y690350D01*
X262489Y690331D01*
X262472Y690326D01*
X262455Y690324D01*
X262280Y690267D01*
X262104Y690213D01*
X262089Y690205D01*
X262072Y690199D01*
X261912Y690109D01*
X261750Y690021D01*
X261737Y690010D01*
X261721Y690001D01*
X261582Y689881D01*
X261441Y689764D01*
X261430Y689750D01*
X261417Y689738D01*
X261304Y689593D01*
X261189Y689450D01*
X261181Y689434D01*
X261170Y689420D01*
X261088Y689255D01*
X261003Y689093D01*
X260998Y689076D01*
X260990Y689060D01*
X260943Y688881D01*
X260892Y688706D01*
X260890Y688688D01*
X260886Y688671D01*
X260859Y688340D01*
X260859Y648970D01*
X260861Y648943D01*
X260859Y648917D01*
X260881Y648743D01*
X260899Y648569D01*
X260907Y648544D01*
X260910Y648517D01*
X260966Y648352D01*
X261017Y648184D01*
X261030Y648161D01*
X261038Y648136D01*
X261125Y647984D01*
X261209Y647830D01*
X261226Y647810D01*
X261239Y647787D01*
X261454Y647534D01*
X312929Y596059D01*
X312929Y424912D01*
X312930Y424903D01*
X312929Y424894D01*
X312950Y424701D01*
X312969Y424511D01*
X312971Y424503D01*
X312972Y424494D01*
X313031Y424309D01*
X313087Y424127D01*
X313091Y424119D01*
X313094Y424110D01*
X313187Y423942D01*
X313279Y423772D01*
X313284Y423766D01*
X313289Y423758D01*
X313413Y423611D01*
X313536Y423463D01*
X313543Y423458D01*
X313549Y423451D01*
X313701Y423331D01*
X313850Y423211D01*
X313858Y423207D01*
X313865Y423201D01*
X314038Y423113D01*
X314207Y423025D01*
X314216Y423023D01*
X314224Y423019D01*
X314410Y422967D01*
X314594Y422914D01*
X314603Y422913D01*
X314612Y422911D01*
X314805Y422897D01*
X314996Y422881D01*
X315004Y422882D01*
X315013Y422881D01*
X315206Y422906D01*
X315395Y422928D01*
X315404Y422931D01*
X315413Y422932D01*
X315595Y422993D01*
X315778Y423053D01*
X315786Y423057D01*
X315794Y423060D01*
X315961Y423156D01*
X316129Y423251D01*
X316136Y423257D01*
X316143Y423261D01*
X316396Y423476D01*
X344764Y451844D01*
X348499Y453391D01*
X375401Y453391D01*
X379136Y451844D01*
X381994Y448986D01*
X383541Y445251D01*
X383541Y441209D01*
X381994Y437474D01*
X379136Y434616D01*
X375401Y433069D01*
X355570Y433069D01*
X355544Y433067D01*
X355517Y433069D01*
X355343Y433047D01*
X355169Y433029D01*
X355144Y433022D01*
X355117Y433018D01*
X354952Y432963D01*
X354785Y432911D01*
X354761Y432898D01*
X354736Y432890D01*
X354584Y432803D01*
X354431Y432719D01*
X354410Y432702D01*
X354387Y432689D01*
X354134Y432474D01*
X332066Y410406D01*
X332049Y410386D01*
X332028Y410368D01*
X331921Y410230D01*
X331811Y410095D01*
X331798Y410071D01*
X331782Y410050D01*
X331704Y409893D01*
X331622Y409739D01*
X331614Y409714D01*
X331602Y409689D01*
X331557Y409520D01*
X331507Y409353D01*
X331505Y409327D01*
X331498Y409301D01*
X331471Y408970D01*
X331471Y403685D01*
X331472Y403676D01*
X331471Y403667D01*
X331492Y403476D01*
X331511Y403285D01*
X331513Y403276D01*
X331514Y403267D01*
X331573Y403083D01*
X331629Y402900D01*
X331633Y402892D01*
X331636Y402883D01*
X331729Y402714D01*
X331821Y402546D01*
X331826Y402539D01*
X331831Y402531D01*
X331956Y402383D01*
X332078Y402236D01*
X332085Y402231D01*
X332091Y402224D01*
X332243Y402104D01*
X332392Y401984D01*
X332400Y401980D01*
X332407Y401974D01*
X332579Y401887D01*
X332749Y401799D01*
X332758Y401796D01*
X332766Y401792D01*
X332951Y401741D01*
X333136Y401687D01*
X333145Y401686D01*
X333154Y401684D01*
X333344Y401670D01*
X333538Y401654D01*
X333547Y401655D01*
X333556Y401655D01*
X333747Y401679D01*
X333937Y401701D01*
X333946Y401704D01*
X333955Y401705D01*
X334138Y401767D01*
X334320Y401826D01*
X334328Y401830D01*
X334337Y401833D01*
X334503Y401929D01*
X334671Y402024D01*
X334678Y402030D01*
X334686Y402034D01*
X334703Y402050D01*
X338395Y403579D01*
X342325Y403579D01*
X346177Y401983D01*
X346206Y401974D01*
X346234Y401960D01*
X346399Y401916D01*
X346562Y401867D01*
X346593Y401864D01*
X346623Y401856D01*
X346954Y401829D01*
X439767Y401829D01*
X442755Y400591D01*
X480800Y362546D01*
X480821Y362529D01*
X480838Y362508D01*
X480976Y362401D01*
X481112Y362291D01*
X481135Y362278D01*
X481156Y362262D01*
X481313Y362184D01*
X481467Y362102D01*
X481493Y362094D01*
X481517Y362082D01*
X481686Y362037D01*
X481853Y361987D01*
X481880Y361985D01*
X481906Y361978D01*
X482043Y361967D01*
X482331Y361847D01*
X482344Y361843D01*
X482355Y361837D01*
X482536Y361785D01*
X482716Y361731D01*
X482729Y361730D01*
X482742Y361726D01*
X482931Y361710D01*
X483117Y361693D01*
X483130Y361694D01*
X483144Y361693D01*
X483330Y361715D01*
X483517Y361734D01*
X483530Y361738D01*
X483543Y361740D01*
X483722Y361798D01*
X483902Y361854D01*
X483913Y361861D01*
X483926Y361865D01*
X484090Y361957D01*
X484255Y362047D01*
X484265Y362056D01*
X484277Y362063D01*
X484419Y362185D01*
X484563Y362307D01*
X484571Y362317D01*
X484582Y362326D01*
X484697Y362474D01*
X484814Y362621D01*
X484820Y362633D01*
X484828Y362644D01*
X484912Y362813D01*
X484998Y362980D01*
X485002Y362992D01*
X485008Y363004D01*
X485057Y363187D01*
X485108Y363367D01*
X485109Y363380D01*
X485112Y363393D01*
X485139Y363724D01*
X485139Y474461D01*
X486686Y478196D01*
X489544Y481054D01*
X493279Y482601D01*
X497321Y482601D01*
X497571Y482497D01*
X497584Y482493D01*
X497595Y482487D01*
X497776Y482435D01*
X497956Y482381D01*
X497969Y482380D01*
X497982Y482376D01*
X498171Y482360D01*
X498357Y482343D01*
X498370Y482344D01*
X498384Y482343D01*
X498570Y482365D01*
X498757Y482384D01*
X498770Y482388D01*
X498783Y482390D01*
X498962Y482448D01*
X499142Y482504D01*
X499153Y482511D01*
X499166Y482515D01*
X499330Y482607D01*
X499495Y482697D01*
X499505Y482706D01*
X499517Y482713D01*
X499659Y482835D01*
X499803Y482957D01*
X499811Y482967D01*
X499822Y482976D01*
X499937Y483124D01*
X500054Y483271D01*
X500060Y483283D01*
X500068Y483294D01*
X500152Y483463D01*
X500238Y483630D01*
X500242Y483642D01*
X500248Y483654D01*
X500297Y483837D01*
X500348Y484017D01*
X500349Y484030D01*
X500352Y484043D01*
X500379Y484374D01*
X500379Y487161D01*
X501926Y490896D01*
X504784Y493754D01*
X508519Y495301D01*
X512561Y495301D01*
X512811Y495197D01*
X512824Y495193D01*
X512835Y495187D01*
X513016Y495135D01*
X513196Y495081D01*
X513209Y495080D01*
X513222Y495076D01*
X513411Y495060D01*
X513597Y495043D01*
X513610Y495044D01*
X513624Y495043D01*
X513810Y495065D01*
X513997Y495084D01*
X514010Y495088D01*
X514023Y495090D01*
X514202Y495148D01*
X514382Y495204D01*
X514393Y495211D01*
X514406Y495215D01*
X514570Y495307D01*
X514735Y495397D01*
X514745Y495406D01*
X514757Y495413D01*
X514899Y495535D01*
X515043Y495657D01*
X515051Y495667D01*
X515062Y495676D01*
X515177Y495824D01*
X515294Y495971D01*
X515300Y495983D01*
X515308Y495994D01*
X515392Y496163D01*
X515478Y496330D01*
X515482Y496342D01*
X515488Y496354D01*
X515537Y496537D01*
X515588Y496717D01*
X515589Y496730D01*
X515592Y496743D01*
X515619Y497074D01*
X515619Y528350D01*
X515617Y528376D01*
X515619Y528403D01*
X515597Y528577D01*
X515579Y528751D01*
X515572Y528776D01*
X515568Y528803D01*
X515513Y528968D01*
X515461Y529135D01*
X515448Y529159D01*
X515440Y529184D01*
X515353Y529336D01*
X515269Y529489D01*
X515252Y529510D01*
X515239Y529533D01*
X515024Y529786D01*
X496846Y547964D01*
X495299Y551699D01*
X495299Y555741D01*
X496846Y559476D01*
X499704Y562334D01*
X503439Y563881D01*
X507481Y563881D01*
X511216Y562334D01*
X534394Y539156D01*
X535941Y535421D01*
X535941Y456410D01*
X535943Y456392D01*
X535941Y456374D01*
X535962Y456192D01*
X535981Y456009D01*
X535986Y455992D01*
X535988Y455975D01*
X536045Y455800D01*
X536099Y455624D01*
X536107Y455609D01*
X536113Y455592D01*
X536203Y455432D01*
X536291Y455270D01*
X536302Y455257D01*
X536311Y455241D01*
X536431Y455102D01*
X536548Y454961D01*
X536562Y454950D01*
X536574Y454936D01*
X536719Y454824D01*
X536862Y454709D01*
X536878Y454701D01*
X536892Y454690D01*
X537057Y454608D01*
X537219Y454523D01*
X537236Y454518D01*
X537252Y454510D01*
X537431Y454463D01*
X537606Y454412D01*
X537624Y454410D01*
X537641Y454406D01*
X537972Y454379D01*
X541715Y454379D01*
X545346Y452875D01*
X548125Y450096D01*
X549629Y446465D01*
X549629Y446336D01*
X549632Y446305D01*
X549630Y446274D01*
X549652Y446105D01*
X549669Y445935D01*
X549678Y445905D01*
X549682Y445874D01*
X549783Y445559D01*
X549911Y445251D01*
X549911Y344650D01*
X549913Y344632D01*
X549911Y344614D01*
X549932Y344432D01*
X549951Y344249D01*
X549956Y344232D01*
X549958Y344215D01*
X550015Y344040D01*
X550069Y343864D01*
X550077Y343849D01*
X550083Y343832D01*
X550173Y343672D01*
X550261Y343510D01*
X550272Y343497D01*
X550281Y343481D01*
X550401Y343342D01*
X550518Y343201D01*
X550532Y343190D01*
X550544Y343176D01*
X550689Y343064D01*
X550832Y342949D01*
X550848Y342941D01*
X550862Y342930D01*
X551027Y342848D01*
X551189Y342763D01*
X551206Y342758D01*
X551222Y342750D01*
X551401Y342703D01*
X551576Y342652D01*
X551594Y342650D01*
X551611Y342646D01*
X551942Y342619D01*
X554177Y342619D01*
X554186Y342620D01*
X554195Y342619D01*
X554385Y342640D01*
X554577Y342659D01*
X554586Y342661D01*
X554595Y342662D01*
X554779Y342721D01*
X554962Y342777D01*
X554970Y342781D01*
X554979Y342784D01*
X555149Y342878D01*
X555316Y342969D01*
X555323Y342974D01*
X555331Y342979D01*
X555479Y343104D01*
X555626Y343226D01*
X555631Y343233D01*
X555638Y343239D01*
X555757Y343390D01*
X555878Y343540D01*
X555882Y343548D01*
X555888Y343555D01*
X555975Y343728D01*
X556063Y343897D01*
X556066Y343906D01*
X556070Y343914D01*
X556122Y344100D01*
X556175Y344284D01*
X556176Y344293D01*
X556178Y344302D01*
X556192Y344494D01*
X556208Y344686D01*
X556207Y344694D01*
X556207Y344703D01*
X556183Y344893D01*
X556161Y345085D01*
X556158Y345094D01*
X556157Y345103D01*
X556096Y345284D01*
X556036Y345468D01*
X556032Y345476D01*
X556029Y345484D01*
X555933Y345650D01*
X555838Y345819D01*
X555832Y345826D01*
X555828Y345833D01*
X555613Y346086D01*
X555505Y346194D01*
X554001Y349825D01*
X554001Y353755D01*
X555505Y357386D01*
X558284Y360165D01*
X562051Y361725D01*
X562136Y361760D01*
X562163Y361775D01*
X562193Y361785D01*
X562340Y361870D01*
X562491Y361950D01*
X562515Y361970D01*
X562542Y361986D01*
X562795Y362200D01*
X571975Y371381D01*
X574963Y372619D01*
X653806Y372619D01*
X653837Y372622D01*
X653868Y372620D01*
X654038Y372642D01*
X654207Y372659D01*
X654236Y372668D01*
X654268Y372672D01*
X654583Y372773D01*
X657334Y373912D01*
X657334Y373913D01*
X658435Y374369D01*
X662365Y374369D01*
X665996Y372865D01*
X668775Y370086D01*
X670279Y366455D01*
X670279Y363648D01*
X670281Y363626D01*
X670279Y363604D01*
X670301Y363426D01*
X670319Y363248D01*
X670325Y363226D01*
X670328Y363204D01*
X670384Y363034D01*
X670437Y362863D01*
X670447Y362843D01*
X670454Y362822D01*
X670543Y362666D01*
X670629Y362509D01*
X670643Y362492D01*
X670654Y362472D01*
X670772Y362337D01*
X670886Y362199D01*
X670904Y362185D01*
X670918Y362169D01*
X671061Y362059D01*
X671200Y361947D01*
X671220Y361937D01*
X671238Y361923D01*
X671533Y361772D01*
X672346Y361435D01*
X675125Y358656D01*
X676629Y355025D01*
X676629Y351095D01*
X675125Y347464D01*
X672346Y344685D01*
X668715Y343181D01*
X664785Y343181D01*
X660933Y344777D01*
X660904Y344786D01*
X660876Y344800D01*
X660711Y344844D01*
X660548Y344893D01*
X660517Y344896D01*
X660487Y344904D01*
X660156Y344931D01*
X587138Y344931D01*
X587112Y344929D01*
X587085Y344931D01*
X586911Y344909D01*
X586738Y344891D01*
X586712Y344884D01*
X586686Y344880D01*
X586520Y344825D01*
X586353Y344773D01*
X586329Y344760D01*
X586304Y344752D01*
X586152Y344665D01*
X585999Y344581D01*
X585978Y344564D01*
X585955Y344551D01*
X585702Y344336D01*
X567215Y325849D01*
X564227Y324611D01*
X559044Y324611D01*
X559013Y324608D01*
X558982Y324610D01*
X558812Y324588D01*
X558643Y324571D01*
X558614Y324562D01*
X558582Y324558D01*
X558267Y324457D01*
X554415Y322861D01*
X551942Y322861D01*
X551924Y322859D01*
X551906Y322861D01*
X551724Y322840D01*
X551541Y322821D01*
X551524Y322816D01*
X551507Y322814D01*
X551332Y322757D01*
X551156Y322703D01*
X551141Y322695D01*
X551124Y322689D01*
X550964Y322599D01*
X550802Y322511D01*
X550789Y322500D01*
X550773Y322491D01*
X550634Y322371D01*
X550493Y322254D01*
X550482Y322240D01*
X550468Y322228D01*
X550356Y322083D01*
X550241Y321940D01*
X550233Y321924D01*
X550222Y321910D01*
X550140Y321745D01*
X550055Y321583D01*
X550050Y321566D01*
X550042Y321550D01*
X549995Y321371D01*
X549944Y321196D01*
X549942Y321178D01*
X549938Y321161D01*
X549911Y320830D01*
X549911Y217140D01*
X549913Y217114D01*
X549911Y217087D01*
X549933Y216913D01*
X549951Y216739D01*
X549958Y216714D01*
X549962Y216687D01*
X550017Y216522D01*
X550069Y216355D01*
X550082Y216331D01*
X550090Y216306D01*
X550177Y216154D01*
X550261Y216001D01*
X550278Y215980D01*
X550291Y215957D01*
X550506Y215704D01*
X550904Y215306D01*
X552451Y211571D01*
X552451Y207529D01*
X550904Y203794D01*
X548046Y200936D01*
X544311Y199389D01*
X540269Y199389D01*
X538749Y200019D01*
X538736Y200023D01*
X538725Y200029D01*
X538544Y200081D01*
X538364Y200135D01*
X538351Y200136D01*
X538338Y200140D01*
X538149Y200156D01*
X537963Y200173D01*
X537950Y200172D01*
X537936Y200173D01*
X537750Y200151D01*
X537563Y200132D01*
X537550Y200128D01*
X537537Y200126D01*
X537359Y200068D01*
X537178Y200012D01*
X537167Y200005D01*
X537154Y200001D01*
X536990Y199909D01*
X536825Y199819D01*
X536815Y199810D01*
X536803Y199803D01*
X536661Y199681D01*
X536517Y199559D01*
X536509Y199549D01*
X536498Y199540D01*
X536384Y199392D01*
X536266Y199245D01*
X536260Y199233D01*
X536252Y199222D01*
X536168Y199054D01*
X536082Y198887D01*
X536078Y198874D01*
X536072Y198862D01*
X536023Y198679D01*
X535972Y198499D01*
X535971Y198486D01*
X535968Y198473D01*
X535941Y198142D01*
X535941Y164349D01*
X534394Y160614D01*
X531536Y157756D01*
X527801Y156209D01*
X523759Y156209D01*
X520024Y157756D01*
X519596Y158184D01*
X519583Y158196D01*
X519571Y158209D01*
X519427Y158323D01*
X519285Y158439D01*
X519269Y158448D01*
X519255Y158459D01*
X519092Y158542D01*
X518929Y158628D01*
X518912Y158633D01*
X518896Y158641D01*
X518720Y158690D01*
X518543Y158743D01*
X518525Y158744D01*
X518508Y158749D01*
X518325Y158763D01*
X518142Y158779D01*
X518125Y158777D01*
X518107Y158779D01*
X517925Y158756D01*
X517742Y158736D01*
X517725Y158730D01*
X517707Y158728D01*
X517533Y158670D01*
X517358Y158614D01*
X517343Y158606D01*
X517326Y158600D01*
X517166Y158508D01*
X517006Y158419D01*
X516992Y158408D01*
X516977Y158399D01*
X516724Y158184D01*
X516296Y157756D01*
X512561Y156209D01*
X508519Y156209D01*
X504784Y157756D01*
X504356Y158184D01*
X504342Y158196D01*
X504331Y158209D01*
X504187Y158323D01*
X504045Y158439D01*
X504029Y158448D01*
X504015Y158459D01*
X503851Y158542D01*
X503689Y158628D01*
X503672Y158633D01*
X503656Y158641D01*
X503479Y158690D01*
X503303Y158743D01*
X503285Y158744D01*
X503268Y158749D01*
X503085Y158763D01*
X502902Y158779D01*
X502884Y158777D01*
X502867Y158779D01*
X502685Y158756D01*
X502502Y158736D01*
X502485Y158730D01*
X502467Y158728D01*
X502294Y158670D01*
X502118Y158614D01*
X502102Y158606D01*
X502086Y158600D01*
X501926Y158508D01*
X501766Y158419D01*
X501752Y158408D01*
X501737Y158399D01*
X501484Y158184D01*
X501056Y157756D01*
X497321Y156209D01*
X493279Y156209D01*
X489544Y157756D01*
X489116Y158184D01*
X489103Y158196D01*
X489091Y158209D01*
X488947Y158323D01*
X488805Y158439D01*
X488789Y158448D01*
X488775Y158459D01*
X488612Y158542D01*
X488449Y158628D01*
X488432Y158633D01*
X488416Y158641D01*
X488240Y158690D01*
X488063Y158743D01*
X488045Y158744D01*
X488028Y158749D01*
X487845Y158763D01*
X487662Y158779D01*
X487645Y158777D01*
X487627Y158779D01*
X487445Y158756D01*
X487262Y158736D01*
X487245Y158730D01*
X487227Y158728D01*
X487053Y158670D01*
X486878Y158614D01*
X486863Y158606D01*
X486846Y158600D01*
X486686Y158508D01*
X486526Y158419D01*
X486512Y158408D01*
X486497Y158399D01*
X486244Y158184D01*
X485816Y157756D01*
X482081Y156209D01*
X478039Y156209D01*
X474304Y157756D01*
X473876Y158184D01*
X473862Y158196D01*
X473851Y158209D01*
X473707Y158323D01*
X473565Y158439D01*
X473549Y158448D01*
X473535Y158459D01*
X473371Y158542D01*
X473209Y158628D01*
X473192Y158633D01*
X473176Y158641D01*
X472999Y158690D01*
X472823Y158743D01*
X472805Y158744D01*
X472788Y158749D01*
X472605Y158763D01*
X472422Y158779D01*
X472404Y158777D01*
X472387Y158779D01*
X472205Y158756D01*
X472022Y158736D01*
X472005Y158730D01*
X471987Y158728D01*
X471814Y158670D01*
X471638Y158614D01*
X471622Y158606D01*
X471606Y158600D01*
X471446Y158508D01*
X471286Y158419D01*
X471272Y158408D01*
X471257Y158399D01*
X471004Y158184D01*
X470576Y157756D01*
X466841Y156209D01*
X462799Y156209D01*
X459064Y157756D01*
X456206Y160614D01*
X454659Y164349D01*
X454659Y177296D01*
X454658Y177309D01*
X454659Y177323D01*
X454638Y177510D01*
X454619Y177697D01*
X454615Y177709D01*
X454614Y177723D01*
X454556Y177902D01*
X454501Y178082D01*
X454495Y178093D01*
X454491Y178106D01*
X454399Y178271D01*
X454309Y178436D01*
X454301Y178446D01*
X454294Y178458D01*
X454171Y178601D01*
X454052Y178745D01*
X454041Y178753D01*
X454033Y178763D01*
X453884Y178880D01*
X453738Y178997D01*
X453726Y179003D01*
X453715Y179012D01*
X453547Y179096D01*
X453381Y179183D01*
X453368Y179186D01*
X453356Y179192D01*
X453175Y179242D01*
X452994Y179294D01*
X452980Y179295D01*
X452967Y179299D01*
X452781Y179312D01*
X452592Y179327D01*
X452579Y179325D01*
X452566Y179326D01*
X452380Y179302D01*
X452193Y179280D01*
X452180Y179276D01*
X452167Y179274D01*
X451851Y179173D01*
X451601Y179069D01*
X447559Y179069D01*
X443824Y180616D01*
X440966Y183474D01*
X439419Y187209D01*
X439419Y303560D01*
X439417Y303586D01*
X439419Y303613D01*
X439397Y303787D01*
X439379Y303961D01*
X439372Y303986D01*
X439368Y304013D01*
X439313Y304178D01*
X439261Y304345D01*
X439248Y304369D01*
X439240Y304394D01*
X439153Y304546D01*
X439069Y304699D01*
X439052Y304720D01*
X439039Y304743D01*
X438824Y304996D01*
X398976Y344844D01*
X398956Y344861D01*
X398938Y344882D01*
X398800Y344989D01*
X398665Y345099D01*
X398641Y345112D01*
X398620Y345128D01*
X398463Y345206D01*
X398309Y345288D01*
X398284Y345296D01*
X398259Y345308D01*
X398090Y345353D01*
X397923Y345403D01*
X397897Y345405D01*
X397871Y345412D01*
X397540Y345439D01*
X387559Y345439D01*
X387546Y345438D01*
X387533Y345439D01*
X387347Y345418D01*
X387159Y345399D01*
X387146Y345395D01*
X387133Y345394D01*
X386954Y345336D01*
X386774Y345281D01*
X386762Y345275D01*
X386749Y345271D01*
X386585Y345179D01*
X386420Y345089D01*
X386410Y345081D01*
X386398Y345074D01*
X386254Y344951D01*
X386111Y344832D01*
X386102Y344821D01*
X386092Y344813D01*
X385976Y344664D01*
X385858Y344518D01*
X385852Y344506D01*
X385844Y344496D01*
X385759Y344327D01*
X385673Y344161D01*
X385669Y344148D01*
X385663Y344136D01*
X385613Y343954D01*
X385561Y343774D01*
X385560Y343760D01*
X385557Y343747D01*
X385544Y343559D01*
X385529Y343372D01*
X385530Y343359D01*
X385529Y343346D01*
X385554Y343158D01*
X385575Y342973D01*
X385580Y342960D01*
X385581Y342947D01*
X385683Y342631D01*
X387637Y337914D01*
X387637Y332886D01*
X385713Y328242D01*
X382158Y324687D01*
X377514Y322763D01*
X372486Y322763D01*
X367842Y324687D01*
X364287Y328242D01*
X362363Y332886D01*
X362363Y337914D01*
X364317Y342631D01*
X364321Y342644D01*
X364327Y342655D01*
X364379Y342836D01*
X364434Y343016D01*
X364435Y343029D01*
X364439Y343042D01*
X364454Y343230D01*
X364472Y343417D01*
X364470Y343430D01*
X364471Y343444D01*
X364449Y343631D01*
X364430Y343817D01*
X364426Y343830D01*
X364425Y343843D01*
X364366Y344023D01*
X364310Y344202D01*
X364304Y344213D01*
X364300Y344226D01*
X364207Y344391D01*
X364117Y344555D01*
X364108Y344565D01*
X364102Y344577D01*
X363979Y344719D01*
X363858Y344863D01*
X363847Y344871D01*
X363839Y344882D01*
X363690Y344997D01*
X363543Y345114D01*
X363531Y345120D01*
X363521Y345128D01*
X363352Y345212D01*
X363185Y345298D01*
X363172Y345302D01*
X363160Y345308D01*
X362977Y345357D01*
X362797Y345408D01*
X362784Y345409D01*
X362771Y345412D01*
X362441Y345439D01*
X351039Y345439D01*
X347304Y346986D01*
X316396Y377894D01*
X316389Y377900D01*
X316384Y377907D01*
X316234Y378027D01*
X316085Y378149D01*
X316077Y378154D01*
X316070Y378159D01*
X315899Y378248D01*
X315729Y378338D01*
X315721Y378340D01*
X315713Y378345D01*
X315527Y378398D01*
X315343Y378453D01*
X315334Y378454D01*
X315326Y378456D01*
X315134Y378472D01*
X314942Y378489D01*
X314933Y378488D01*
X314924Y378489D01*
X314735Y378467D01*
X314542Y378446D01*
X314533Y378443D01*
X314525Y378442D01*
X314343Y378383D01*
X314158Y378324D01*
X314150Y378320D01*
X314142Y378317D01*
X313973Y378222D01*
X313806Y378129D01*
X313799Y378124D01*
X313791Y378119D01*
X313645Y377993D01*
X313499Y377869D01*
X313493Y377862D01*
X313487Y377856D01*
X313369Y377705D01*
X313249Y377553D01*
X313245Y377545D01*
X313240Y377538D01*
X313154Y377366D01*
X313067Y377194D01*
X313064Y377185D01*
X313060Y377177D01*
X313010Y376991D01*
X312959Y376806D01*
X312958Y376797D01*
X312956Y376789D01*
X312929Y376458D01*
X312929Y248491D01*
X202359Y137921D01*
X68580Y137921D01*
X68562Y137919D01*
X68544Y137921D01*
X68362Y137900D01*
X68179Y137881D01*
X68162Y137876D01*
X68145Y137874D01*
X67970Y137817D01*
X67794Y137763D01*
X67779Y137755D01*
X67762Y137749D01*
X67602Y137659D01*
X67440Y137571D01*
X67427Y137560D01*
X67411Y137551D01*
X67272Y137431D01*
X67131Y137314D01*
X67120Y137300D01*
X67107Y137288D01*
X66994Y137143D01*
X66879Y137000D01*
X66871Y136984D01*
X66860Y136970D01*
X66778Y136805D01*
X66693Y136643D01*
X66688Y136626D01*
X66680Y136610D01*
X66633Y136431D01*
X66582Y136256D01*
X66580Y136238D01*
X66576Y136221D01*
X66549Y135890D01*
X66549Y35119D01*
X66549Y35115D01*
X66549Y35110D01*
X66569Y34915D01*
X66589Y34719D01*
X66590Y34714D01*
X66590Y34710D01*
X66650Y34520D01*
X66707Y34334D01*
X66709Y34330D01*
X66710Y34325D01*
X66806Y34150D01*
X66899Y33980D01*
X66901Y33976D01*
X66904Y33972D01*
X67033Y33818D01*
X67156Y33670D01*
X67160Y33668D01*
X67163Y33664D01*
X67319Y33540D01*
X67470Y33418D01*
X67474Y33416D01*
X67478Y33413D01*
X67655Y33322D01*
X67827Y33233D01*
X67832Y33231D01*
X67836Y33229D01*
X68025Y33176D01*
X68214Y33121D01*
X68219Y33121D01*
X68223Y33120D01*
X68418Y33105D01*
X68616Y33088D01*
X68620Y33089D01*
X68625Y33089D01*
X68820Y33112D01*
X69015Y33135D01*
X69020Y33137D01*
X69024Y33137D01*
X69210Y33199D01*
X69398Y33260D01*
X69402Y33262D01*
X69406Y33264D01*
X69576Y33361D01*
X69749Y33458D01*
X69752Y33461D01*
X69756Y33463D01*
X69906Y33594D01*
X70054Y33721D01*
X70056Y33725D01*
X70060Y33728D01*
X70182Y33886D01*
X70300Y34039D01*
X70302Y34043D01*
X70305Y34047D01*
X70457Y34342D01*
X70508Y34465D01*
X75009Y38966D01*
X80891Y41403D01*
X107069Y41403D01*
X112951Y38966D01*
X117452Y34465D01*
X119889Y28583D01*
X119889Y22217D01*
X117452Y16335D01*
X114746Y13628D01*
X114740Y13621D01*
X114733Y13616D01*
X114613Y13466D01*
X114491Y13317D01*
X114486Y13309D01*
X114481Y13302D01*
X114392Y13132D01*
X114302Y12961D01*
X114299Y12952D01*
X114295Y12945D01*
X114242Y12760D01*
X114187Y12575D01*
X114186Y12566D01*
X114184Y12558D01*
X114168Y12367D01*
X114151Y12174D01*
X114152Y12165D01*
X114151Y12156D01*
X114173Y11967D01*
X114194Y11774D01*
X114197Y11765D01*
X114198Y11757D01*
X114257Y11575D01*
X114316Y11390D01*
X114320Y11382D01*
X114323Y11374D01*
X114418Y11205D01*
X114510Y11038D01*
X114516Y11031D01*
X114521Y11023D01*
X114647Y10877D01*
X114771Y10731D01*
X114778Y10725D01*
X114784Y10718D01*
X114935Y10601D01*
X115087Y10481D01*
X115095Y10477D01*
X115102Y10472D01*
X115274Y10386D01*
X115446Y10299D01*
X115454Y10296D01*
X115462Y10292D01*
X115648Y10242D01*
X115834Y10191D01*
X115843Y10190D01*
X115851Y10188D01*
X116182Y10161D01*
X227966Y10161D01*
X228091Y10173D01*
G37*
G36*
X535996Y628653D02*
X535996Y628653D01*
X536023Y628651D01*
X536197Y628673D01*
X536371Y628691D01*
X536396Y628698D01*
X536423Y628702D01*
X536588Y628757D01*
X536755Y628809D01*
X536779Y628822D01*
X536804Y628830D01*
X536956Y628917D01*
X537109Y629001D01*
X537130Y629018D01*
X537153Y629031D01*
X537406Y629246D01*
X545504Y637344D01*
X545521Y637364D01*
X545542Y637382D01*
X545649Y637520D01*
X545759Y637655D01*
X545772Y637679D01*
X545788Y637700D01*
X545866Y637857D01*
X545948Y638011D01*
X545956Y638036D01*
X545968Y638061D01*
X546013Y638230D01*
X546063Y638397D01*
X546065Y638423D01*
X546072Y638449D01*
X546099Y638780D01*
X546099Y643292D01*
X546097Y643318D01*
X546099Y643345D01*
X546077Y643519D01*
X546059Y643692D01*
X546052Y643718D01*
X546048Y643744D01*
X545992Y643910D01*
X545941Y644077D01*
X545928Y644101D01*
X545920Y644126D01*
X545833Y644277D01*
X545749Y644431D01*
X545732Y644452D01*
X545719Y644475D01*
X545504Y644728D01*
X543501Y646731D01*
X541210Y652263D01*
X541210Y676157D01*
X543501Y681689D01*
X547735Y685922D01*
X549041Y686463D01*
X549044Y686465D01*
X549049Y686467D01*
X549221Y686560D01*
X549395Y686654D01*
X549399Y686656D01*
X549403Y686659D01*
X549552Y686783D01*
X549706Y686910D01*
X549709Y686913D01*
X549712Y686916D01*
X549835Y687069D01*
X549960Y687223D01*
X549962Y687227D01*
X549964Y687230D01*
X550055Y687405D01*
X550147Y687579D01*
X550148Y687583D01*
X550150Y687587D01*
X550204Y687777D01*
X550260Y687966D01*
X550260Y687970D01*
X550261Y687974D01*
X550278Y688172D01*
X550294Y688367D01*
X550294Y688371D01*
X550294Y688376D01*
X550271Y688573D01*
X550249Y688767D01*
X550248Y688771D01*
X550247Y688775D01*
X550186Y688964D01*
X550126Y689150D01*
X550124Y689154D01*
X550122Y689158D01*
X550025Y689331D01*
X549930Y689502D01*
X549927Y689505D01*
X549925Y689509D01*
X549796Y689658D01*
X549668Y689807D01*
X549664Y689810D01*
X549661Y689814D01*
X549509Y689932D01*
X549351Y690056D01*
X549347Y690058D01*
X549343Y690060D01*
X549168Y690147D01*
X548991Y690236D01*
X548987Y690238D01*
X548983Y690240D01*
X548790Y690291D01*
X548603Y690343D01*
X548598Y690343D01*
X548594Y690344D01*
X548263Y690371D01*
X513457Y690371D01*
X513452Y690371D01*
X513448Y690371D01*
X513254Y690351D01*
X513056Y690331D01*
X513052Y690330D01*
X513047Y690330D01*
X512862Y690272D01*
X512671Y690213D01*
X512667Y690211D01*
X512663Y690210D01*
X512491Y690116D01*
X512317Y690021D01*
X512314Y690019D01*
X512310Y690016D01*
X512160Y689891D01*
X512008Y689764D01*
X512005Y689760D01*
X512002Y689757D01*
X511880Y689605D01*
X511756Y689450D01*
X511753Y689446D01*
X511751Y689443D01*
X511661Y689268D01*
X511570Y689093D01*
X511569Y689088D01*
X511567Y689084D01*
X511514Y688897D01*
X511459Y688706D01*
X511458Y688701D01*
X511457Y688697D01*
X511442Y688504D01*
X511426Y688304D01*
X511426Y688300D01*
X511426Y688296D01*
X511449Y688103D01*
X511473Y687905D01*
X511474Y687900D01*
X511475Y687896D01*
X511535Y687713D01*
X511598Y687522D01*
X511600Y687518D01*
X511601Y687514D01*
X511698Y687344D01*
X511795Y687171D01*
X511798Y687168D01*
X511801Y687164D01*
X511932Y687013D01*
X512059Y686867D01*
X512062Y686864D01*
X512065Y686860D01*
X512222Y686740D01*
X512377Y686620D01*
X512381Y686618D01*
X512384Y686615D01*
X512679Y686463D01*
X513985Y685922D01*
X518219Y681689D01*
X520510Y676157D01*
X520510Y652263D01*
X518219Y646731D01*
X513985Y642498D01*
X508454Y640206D01*
X502466Y640206D01*
X496935Y642498D01*
X492701Y646731D01*
X490410Y652263D01*
X490410Y676157D01*
X492701Y681689D01*
X496935Y685922D01*
X498241Y686463D01*
X498244Y686465D01*
X498249Y686467D01*
X498421Y686560D01*
X498595Y686654D01*
X498599Y686656D01*
X498603Y686659D01*
X498752Y686783D01*
X498906Y686910D01*
X498909Y686913D01*
X498912Y686916D01*
X499035Y687069D01*
X499160Y687223D01*
X499162Y687227D01*
X499164Y687230D01*
X499255Y687405D01*
X499347Y687579D01*
X499348Y687583D01*
X499350Y687587D01*
X499404Y687777D01*
X499460Y687966D01*
X499460Y687970D01*
X499461Y687974D01*
X499478Y688172D01*
X499494Y688367D01*
X499494Y688371D01*
X499494Y688376D01*
X499471Y688573D01*
X499449Y688767D01*
X499448Y688771D01*
X499447Y688775D01*
X499386Y688964D01*
X499326Y689150D01*
X499324Y689154D01*
X499322Y689158D01*
X499225Y689331D01*
X499130Y689502D01*
X499127Y689505D01*
X499125Y689509D01*
X498996Y689658D01*
X498868Y689807D01*
X498864Y689810D01*
X498861Y689814D01*
X498709Y689932D01*
X498551Y690056D01*
X498547Y690058D01*
X498543Y690060D01*
X498368Y690147D01*
X498191Y690236D01*
X498187Y690238D01*
X498183Y690240D01*
X497990Y690291D01*
X497803Y690343D01*
X497798Y690343D01*
X497794Y690344D01*
X497463Y690371D01*
X386457Y690371D01*
X386452Y690371D01*
X386448Y690371D01*
X386254Y690351D01*
X386056Y690331D01*
X386052Y690330D01*
X386047Y690330D01*
X385862Y690272D01*
X385671Y690213D01*
X385667Y690211D01*
X385663Y690210D01*
X385491Y690116D01*
X385317Y690021D01*
X385314Y690019D01*
X385310Y690016D01*
X385158Y689889D01*
X385008Y689764D01*
X385005Y689760D01*
X385002Y689757D01*
X384879Y689603D01*
X384756Y689450D01*
X384754Y689446D01*
X384751Y689443D01*
X384660Y689267D01*
X384570Y689093D01*
X384569Y689088D01*
X384567Y689084D01*
X384513Y688896D01*
X384459Y688706D01*
X384458Y688701D01*
X384457Y688697D01*
X384442Y688504D01*
X384426Y688304D01*
X384426Y688300D01*
X384426Y688296D01*
X384449Y688103D01*
X384473Y687905D01*
X384474Y687900D01*
X384475Y687896D01*
X384537Y687709D01*
X384598Y687522D01*
X384600Y687518D01*
X384601Y687514D01*
X384699Y687342D01*
X384795Y687171D01*
X384798Y687168D01*
X384801Y687164D01*
X384930Y687015D01*
X385059Y686867D01*
X385062Y686864D01*
X385065Y686860D01*
X385223Y686739D01*
X385377Y686620D01*
X385381Y686618D01*
X385384Y686615D01*
X385679Y686463D01*
X386985Y685922D01*
X391219Y681689D01*
X393510Y676157D01*
X393510Y652263D01*
X391219Y646731D01*
X389500Y645012D01*
X389489Y644998D01*
X389475Y644987D01*
X389361Y644843D01*
X389245Y644701D01*
X389236Y644685D01*
X389225Y644671D01*
X389142Y644506D01*
X389056Y644345D01*
X389051Y644328D01*
X389043Y644312D01*
X388994Y644134D01*
X388941Y643959D01*
X388940Y643941D01*
X388935Y643924D01*
X388922Y643741D01*
X388905Y643558D01*
X388907Y643540D01*
X388906Y643523D01*
X388929Y643340D01*
X388948Y643158D01*
X388954Y643141D01*
X388956Y643123D01*
X389014Y642949D01*
X389070Y642774D01*
X389079Y642758D01*
X389084Y642741D01*
X389176Y642582D01*
X389265Y642422D01*
X389276Y642408D01*
X389285Y642393D01*
X389500Y642140D01*
X402394Y629246D01*
X402414Y629229D01*
X402432Y629208D01*
X402570Y629101D01*
X402705Y628991D01*
X402729Y628978D01*
X402750Y628962D01*
X402907Y628884D01*
X403061Y628802D01*
X403086Y628794D01*
X403111Y628782D01*
X403280Y628737D01*
X403447Y628687D01*
X403473Y628685D01*
X403499Y628678D01*
X403830Y628651D01*
X535970Y628651D01*
X535996Y628653D01*
G37*
%LPC*%
G36*
X625359Y139699D02*
X625359Y139699D01*
X621624Y141246D01*
X618766Y144104D01*
X617219Y147839D01*
X617219Y247131D01*
X618766Y250866D01*
X621624Y253724D01*
X625359Y255271D01*
X629401Y255271D01*
X633136Y253724D01*
X635994Y250866D01*
X637541Y247131D01*
X637541Y147839D01*
X635994Y144104D01*
X633136Y141246D01*
X629401Y139699D01*
X625359Y139699D01*
G37*
%LPD*%
%LPC*%
G36*
X587315Y433351D02*
X587315Y433351D01*
X583684Y434855D01*
X580905Y437634D01*
X579401Y441265D01*
X579401Y445195D01*
X580997Y449047D01*
X581006Y449076D01*
X581020Y449104D01*
X581064Y449269D01*
X581113Y449432D01*
X581116Y449463D01*
X581124Y449493D01*
X581151Y449824D01*
X581151Y451197D01*
X582389Y454185D01*
X584961Y456757D01*
X646180Y517975D01*
X646199Y517999D01*
X646223Y518020D01*
X646327Y518155D01*
X646435Y518287D01*
X646449Y518314D01*
X646468Y518339D01*
X646620Y518634D01*
X648215Y522486D01*
X650994Y525265D01*
X654625Y526769D01*
X658555Y526769D01*
X662186Y525265D01*
X664965Y522486D01*
X666469Y518855D01*
X666469Y514925D01*
X664965Y511294D01*
X662186Y508515D01*
X660119Y507659D01*
X658334Y506920D01*
X658307Y506905D01*
X658277Y506895D01*
X658130Y506810D01*
X657979Y506730D01*
X657955Y506710D01*
X657928Y506694D01*
X657675Y506480D01*
X599308Y448112D01*
X599294Y448095D01*
X599277Y448080D01*
X599166Y447939D01*
X599053Y447800D01*
X599042Y447781D01*
X599028Y447763D01*
X598948Y447602D01*
X598864Y447445D01*
X598858Y447423D01*
X598848Y447403D01*
X598800Y447230D01*
X598749Y447059D01*
X598747Y447037D01*
X598741Y447015D01*
X598729Y446837D01*
X598713Y446658D01*
X598715Y446635D01*
X598714Y446613D01*
X598737Y446437D01*
X598756Y446258D01*
X598763Y446236D01*
X598766Y446214D01*
X598867Y445898D01*
X599159Y445195D01*
X599159Y441265D01*
X597655Y437634D01*
X594876Y434855D01*
X591245Y433351D01*
X587315Y433351D01*
G37*
%LPD*%
G36*
X452655Y320774D02*
X452655Y320774D01*
X452664Y320773D01*
X452853Y320795D01*
X453046Y320816D01*
X453055Y320819D01*
X453063Y320820D01*
X453245Y320879D01*
X453430Y320938D01*
X453438Y320942D01*
X453446Y320945D01*
X453615Y321040D01*
X453782Y321133D01*
X453789Y321138D01*
X453797Y321143D01*
X453943Y321269D01*
X454089Y321393D01*
X454095Y321400D01*
X454102Y321406D01*
X454219Y321557D01*
X454339Y321709D01*
X454343Y321717D01*
X454348Y321724D01*
X454434Y321896D01*
X454521Y322068D01*
X454524Y322076D01*
X454528Y322085D01*
X454578Y322271D01*
X454629Y322456D01*
X454630Y322465D01*
X454632Y322473D01*
X454659Y322804D01*
X454659Y334374D01*
X454657Y334400D01*
X454659Y334427D01*
X454637Y334601D01*
X454619Y334774D01*
X454612Y334800D01*
X454608Y334826D01*
X454553Y334992D01*
X454501Y335159D01*
X454488Y335183D01*
X454480Y335208D01*
X454393Y335360D01*
X454309Y335513D01*
X454292Y335534D01*
X454279Y335557D01*
X454064Y335810D01*
X420138Y369736D01*
X420117Y369753D01*
X420100Y369774D01*
X419962Y369881D01*
X419826Y369991D01*
X419803Y370004D01*
X419782Y370020D01*
X419625Y370098D01*
X419471Y370180D01*
X419445Y370188D01*
X419421Y370200D01*
X419252Y370245D01*
X419085Y370295D01*
X419058Y370297D01*
X419032Y370304D01*
X418702Y370331D01*
X367274Y370331D01*
X367243Y370328D01*
X367212Y370330D01*
X367042Y370308D01*
X366873Y370291D01*
X366844Y370282D01*
X366813Y370278D01*
X366497Y370177D01*
X365270Y369669D01*
X365266Y369667D01*
X365262Y369665D01*
X365089Y369572D01*
X364915Y369478D01*
X364912Y369476D01*
X364908Y369473D01*
X364757Y369348D01*
X364605Y369222D01*
X364602Y369219D01*
X364599Y369216D01*
X364477Y369065D01*
X364351Y368909D01*
X364349Y368905D01*
X364346Y368902D01*
X364257Y368730D01*
X364164Y368553D01*
X364163Y368549D01*
X364161Y368545D01*
X364107Y368357D01*
X364051Y368166D01*
X364051Y368162D01*
X364049Y368158D01*
X364033Y367960D01*
X364016Y367765D01*
X364017Y367761D01*
X364016Y367756D01*
X364039Y367561D01*
X364061Y367365D01*
X364063Y367361D01*
X364063Y367357D01*
X364125Y367169D01*
X364185Y366982D01*
X364187Y366978D01*
X364188Y366974D01*
X364286Y366801D01*
X364381Y366630D01*
X364384Y366627D01*
X364386Y366623D01*
X364516Y366473D01*
X364643Y366325D01*
X364646Y366322D01*
X364649Y366318D01*
X364806Y366197D01*
X364960Y366076D01*
X364964Y366074D01*
X364967Y366072D01*
X365144Y365984D01*
X365320Y365896D01*
X365324Y365894D01*
X365328Y365892D01*
X365519Y365841D01*
X365708Y365789D01*
X365712Y365789D01*
X365717Y365788D01*
X366047Y365761D01*
X404611Y365761D01*
X408346Y364214D01*
X451192Y321368D01*
X451199Y321362D01*
X451204Y321355D01*
X451354Y321235D01*
X451503Y321113D01*
X451511Y321108D01*
X451518Y321103D01*
X451689Y321014D01*
X451859Y320924D01*
X451867Y320921D01*
X451875Y320917D01*
X452061Y320864D01*
X452245Y320809D01*
X452254Y320808D01*
X452262Y320806D01*
X452454Y320790D01*
X452646Y320773D01*
X452655Y320774D01*
G37*
%LPC*%
G36*
X681924Y637779D02*
X681924Y637779D01*
X676352Y640087D01*
X672087Y644352D01*
X669779Y649924D01*
X669779Y655956D01*
X672087Y661528D01*
X676352Y665793D01*
X681924Y668101D01*
X687956Y668101D01*
X693528Y665793D01*
X697793Y661528D01*
X700101Y655956D01*
X700101Y649924D01*
X697793Y644352D01*
X693528Y640087D01*
X687956Y637779D01*
X681924Y637779D01*
G37*
%LPD*%
%LPC*%
G36*
X637924Y637779D02*
X637924Y637779D01*
X632352Y640087D01*
X628087Y644352D01*
X625779Y649924D01*
X625779Y655956D01*
X628087Y661528D01*
X632352Y665793D01*
X637924Y668101D01*
X643956Y668101D01*
X649528Y665793D01*
X653793Y661528D01*
X656101Y655956D01*
X656101Y649924D01*
X653793Y644352D01*
X649528Y640087D01*
X643956Y637779D01*
X637924Y637779D01*
G37*
%LPD*%
%LPC*%
G36*
X84347Y60263D02*
X84347Y60263D01*
X82106Y61191D01*
X80391Y62906D01*
X79463Y65147D01*
X79463Y82813D01*
X80391Y85054D01*
X82106Y86769D01*
X84347Y87697D01*
X102013Y87697D01*
X104254Y86769D01*
X105969Y85054D01*
X106897Y82813D01*
X106897Y65147D01*
X105969Y62906D01*
X104254Y61191D01*
X102013Y60263D01*
X84347Y60263D01*
G37*
%LPD*%
%LPC*%
G36*
X221919Y28701D02*
X221919Y28701D01*
X222399Y30178D01*
X223289Y31923D01*
X224440Y33508D01*
X225826Y34894D01*
X227411Y36045D01*
X229156Y36935D01*
X231019Y37540D01*
X232954Y37847D01*
X240539Y37847D01*
X240539Y28701D01*
X221919Y28701D01*
G37*
%LPD*%
%LPC*%
G36*
X279844Y667194D02*
X279844Y667194D01*
X279844Y684280D01*
X281272Y683816D01*
X282884Y682994D01*
X284348Y681931D01*
X285627Y680651D01*
X286691Y679188D01*
X287512Y677576D01*
X288071Y675855D01*
X288354Y674068D01*
X288354Y667194D01*
X279844Y667194D01*
G37*
%LPD*%
%LPC*%
G36*
X457644Y667194D02*
X457644Y667194D01*
X457644Y684280D01*
X459072Y683816D01*
X460684Y682994D01*
X462148Y681931D01*
X463427Y680651D01*
X464491Y679188D01*
X465312Y677576D01*
X465871Y675855D01*
X466154Y674068D01*
X466154Y667194D01*
X457644Y667194D01*
G37*
%LPD*%
%LPC*%
G36*
X457644Y661226D02*
X457644Y661226D01*
X466154Y661226D01*
X466154Y654352D01*
X465871Y652565D01*
X465312Y650844D01*
X464491Y649232D01*
X463427Y647769D01*
X462148Y646489D01*
X460684Y645426D01*
X459072Y644604D01*
X457644Y644140D01*
X457644Y661226D01*
G37*
%LPD*%
%LPC*%
G36*
X279844Y661226D02*
X279844Y661226D01*
X288354Y661226D01*
X288354Y654352D01*
X288071Y652565D01*
X287512Y650844D01*
X286691Y649232D01*
X285627Y647769D01*
X284348Y646489D01*
X282884Y645426D01*
X281272Y644604D01*
X279844Y644140D01*
X279844Y661226D01*
G37*
%LPD*%
%LPC*%
G36*
X265366Y667194D02*
X265366Y667194D01*
X265366Y674068D01*
X265649Y675855D01*
X266208Y677576D01*
X267029Y679188D01*
X268093Y680651D01*
X269372Y681931D01*
X270836Y682994D01*
X272448Y683816D01*
X273876Y684280D01*
X273876Y667194D01*
X265366Y667194D01*
G37*
%LPD*%
%LPC*%
G36*
X443166Y667194D02*
X443166Y667194D01*
X443166Y674068D01*
X443449Y675855D01*
X444008Y677576D01*
X444829Y679188D01*
X445893Y680651D01*
X447172Y681931D01*
X448636Y682994D01*
X450248Y683816D01*
X451676Y684280D01*
X451676Y667194D01*
X443166Y667194D01*
G37*
%LPD*%
%LPC*%
G36*
X450248Y644604D02*
X450248Y644604D01*
X448636Y645426D01*
X447172Y646489D01*
X445893Y647769D01*
X444829Y649232D01*
X444008Y650844D01*
X443449Y652565D01*
X443166Y654352D01*
X443166Y661226D01*
X451676Y661226D01*
X451676Y644140D01*
X450248Y644604D01*
G37*
%LPD*%
%LPC*%
G36*
X272448Y644604D02*
X272448Y644604D01*
X270836Y645426D01*
X269372Y646489D01*
X268093Y647769D01*
X267029Y649232D01*
X266208Y650844D01*
X265649Y652565D01*
X265366Y654352D01*
X265366Y661226D01*
X273876Y661226D01*
X273876Y644140D01*
X272448Y644604D01*
G37*
%LPD*%
%LPC*%
G36*
X249719Y76519D02*
X249719Y76519D01*
X249719Y84141D01*
X255135Y84141D01*
X255781Y83968D01*
X256360Y83633D01*
X256833Y83160D01*
X257168Y82581D01*
X257341Y81935D01*
X257341Y76519D01*
X249719Y76519D01*
G37*
%LPD*%
%LPC*%
G36*
X237019Y76519D02*
X237019Y76519D01*
X237019Y81935D01*
X237192Y82581D01*
X237527Y83160D01*
X238000Y83633D01*
X238579Y83968D01*
X239225Y84141D01*
X244641Y84141D01*
X244641Y76519D01*
X237019Y76519D01*
G37*
%LPD*%
%LPC*%
G36*
X249719Y63819D02*
X249719Y63819D01*
X249719Y71441D01*
X257341Y71441D01*
X257341Y66025D01*
X257168Y65379D01*
X256833Y64800D01*
X256360Y64327D01*
X255781Y63992D01*
X255135Y63819D01*
X249719Y63819D01*
G37*
%LPD*%
%LPC*%
G36*
X239225Y63819D02*
X239225Y63819D01*
X238579Y63992D01*
X238000Y64327D01*
X237527Y64800D01*
X237192Y65379D01*
X237019Y66025D01*
X237019Y71441D01*
X244641Y71441D01*
X244641Y63819D01*
X239225Y63819D01*
G37*
%LPD*%
%LPC*%
G36*
X351631Y312031D02*
X351631Y312031D01*
X351631Y318872D01*
X351726Y318857D01*
X353086Y318415D01*
X354359Y317767D01*
X355516Y316926D01*
X356526Y315916D01*
X357367Y314759D01*
X358015Y313486D01*
X358457Y312126D01*
X358472Y312031D01*
X351631Y312031D01*
G37*
%LPD*%
%LPC*%
G36*
X340728Y312031D02*
X340728Y312031D01*
X340743Y312126D01*
X341185Y313486D01*
X341833Y314759D01*
X342674Y315916D01*
X343684Y316926D01*
X344841Y317767D01*
X346114Y318415D01*
X347474Y318857D01*
X347569Y318872D01*
X347569Y312031D01*
X340728Y312031D01*
G37*
%LPD*%
%LPC*%
G36*
X351631Y307969D02*
X351631Y307969D01*
X358472Y307969D01*
X358457Y307874D01*
X358015Y306514D01*
X357367Y305241D01*
X356526Y304084D01*
X355516Y303074D01*
X354359Y302233D01*
X353086Y301585D01*
X351726Y301143D01*
X351631Y301128D01*
X351631Y307969D01*
G37*
%LPD*%
%LPC*%
G36*
X347474Y301143D02*
X347474Y301143D01*
X346114Y301585D01*
X344841Y302233D01*
X343684Y303074D01*
X342674Y304084D01*
X341833Y305241D01*
X341185Y306514D01*
X340743Y307874D01*
X340728Y307969D01*
X347569Y307969D01*
X347569Y301128D01*
X347474Y301143D01*
G37*
%LPD*%
D10*
X36068Y477520D02*
X36068Y502920D01*
X256032Y502920D02*
X256032Y477520D01*
D11*
X195180Y367980D03*
X145180Y367980D03*
X247180Y73980D03*
X93180Y73980D03*
D12*
X233934Y25400D02*
X253746Y25400D01*
X103886Y25400D02*
X84074Y25400D01*
D13*
X200660Y655257D02*
X200660Y673164D01*
X149860Y673164D02*
X149860Y655257D01*
X99060Y655257D02*
X99060Y673164D01*
X378460Y673164D02*
X378460Y655257D01*
X327660Y655257D02*
X327660Y673164D01*
X276860Y673164D02*
X276860Y655257D01*
X556260Y655257D02*
X556260Y673164D01*
X505460Y673164D02*
X505460Y655257D01*
X454660Y655257D02*
X454660Y673164D01*
D14*
X349600Y310000D03*
X375000Y335400D03*
X400400Y310000D03*
D15*
X247650Y148590D03*
D16*
X247180Y148120D01*
X247180Y73980D01*
D15*
X356870Y171450D03*
X356870Y210820D03*
D16*
X356870Y171450D01*
D15*
X320040Y556260D03*
X416560Y557530D03*
D16*
X321310Y557530D02*
X320040Y556260D01*
X321310Y557530D02*
X416560Y557530D01*
D15*
X416560Y605790D03*
D16*
X528320Y605790D01*
X568960Y565150D01*
D15*
X568960Y565150D03*
X654050Y115570D03*
X351790Y148590D03*
D16*
X384810Y115570D01*
X654050Y115570D01*
D15*
X320040Y293370D03*
X400050Y233680D03*
X350520Y231140D03*
X321310Y365760D03*
X426720Y302260D03*
X426720Y270510D03*
X720090Y529590D03*
X720090Y488950D03*
X720090Y447040D03*
X374650Y490220D03*
X447040Y476250D03*
X439420Y426720D03*
X474980Y406400D03*
X562610Y457200D03*
X565150Y405130D03*
X648970Y429260D03*
X720090Y406400D03*
X720090Y332740D03*
X718820Y266700D03*
X652780Y265430D03*
X651510Y331470D03*
X604520Y226060D03*
X604520Y204470D03*
X657860Y204470D03*
X657860Y226060D03*
X720090Y187960D03*
X720090Y163830D03*
X654050Y91440D03*
X712470Y92710D03*
X568960Y610870D03*
X594360Y307340D03*
X445770Y335280D03*
X557530Y302260D03*
X567690Y254000D03*
X590550Y264160D03*
X445770Y172720D03*
X547370Y172720D03*
X135890Y54610D03*
X201930Y52070D03*
X82550Y123190D03*
X353060Y684530D03*
X529590Y684530D03*
X410210Y426720D03*
D16*
X439420Y426720D01*
D15*
X302260Y106680D03*
X300990Y209550D03*
D16*
X302260Y208280D02*
X302260Y106680D01*
X302260Y208280D02*
X300990Y209550D01*
X302260Y211860D02*
X400400Y310000D01*
X302260Y211860D02*
X302260Y208280D01*
D15*
X627380Y245110D03*
X627380Y149860D03*
D16*
X627380Y245110D01*
X556260Y633730D02*
X556260Y664210D01*
X556260Y633730D02*
X541020Y618490D01*
X398780Y618490D01*
X377190Y640080D01*
X377190Y662940D01*
X378460Y664210D01*
D15*
X317500Y116840D03*
X317500Y181610D03*
D16*
X317500Y116840D01*
D15*
X551180Y90170D03*
D16*
X344170Y90170D02*
X317500Y116840D01*
X344170Y90170D02*
X551180Y90170D01*
D15*
X525780Y166370D03*
D16*
X525780Y533400D01*
X505460Y553720D01*
D15*
X505460Y553720D03*
X449580Y189230D03*
D16*
X449580Y254000D01*
X449580Y308610D01*
D15*
X449580Y254000D03*
X373380Y443230D03*
D16*
X353060Y355600D02*
X402590Y355600D01*
X353060Y355600D02*
X321310Y387350D01*
X321310Y414020D01*
X350520Y443230D02*
X373380Y443230D01*
X402590Y355600D02*
X449580Y308610D01*
X321310Y414020D02*
X350520Y443230D01*
D15*
X464820Y547370D03*
D16*
X422910Y589280D01*
X353060Y589280D01*
X327660Y614680D01*
X327660Y664210D01*
D15*
X542290Y209550D03*
D16*
X539750Y212090D01*
X539750Y443230D01*
D15*
X539750Y444500D03*
X464820Y444500D03*
D16*
X464820Y547370D01*
D15*
X480060Y166370D03*
D16*
X480060Y351790D01*
D15*
X480060Y351790D03*
X340360Y393700D03*
D17*
X438150Y393700D01*
X480060Y351790D01*
D15*
X563880Y351790D03*
X660400Y364490D03*
D17*
X576580Y364490D01*
X563880Y351790D01*
D15*
X464820Y166370D03*
D16*
X464820Y336550D01*
D15*
X464820Y336550D03*
X360680Y378460D03*
D17*
X422910Y378460D01*
X464820Y336550D01*
D15*
X552450Y332740D03*
X666750Y353060D03*
D17*
X582930Y353060D01*
X562610Y332740D01*
X552450Y332740D01*
D15*
X495300Y166370D03*
D16*
X495300Y472440D01*
D15*
X495300Y472440D03*
X510540Y166370D03*
D16*
X510540Y485140D01*
D15*
X510540Y485140D03*
X674370Y596900D03*
X659130Y565150D03*
D17*
X659130Y581660D01*
X674370Y596900D01*
D15*
X656590Y516890D03*
X589280Y443230D03*
D17*
X589280Y449580D02*
X656590Y516890D01*
X589280Y449580D02*
X589280Y443230D01*
D15*
X687070Y596900D03*
X637540Y565150D03*
D17*
X637540Y580390D01*
X666750Y609600D01*
X681990Y609600D01*
X687070Y604520D01*
X687070Y596900D01*
D10*
X149860Y571500D02*
X149860Y664210D01*
X149860Y571500D02*
X195580Y525780D01*
X195580Y368380D01*
X195180Y367980D01*
M02*
