G04 EAGLE Gerber RS-274X export*
G75*
%MOMM*%
%FSLAX34Y34*%
%LPD*%
%IN*%
%IPPOS*%
%AMOC8*
5,1,8,0,0,1.08239X$1,22.5*%
G01*
%ADD10C,0.254000*%


D10*
X0Y0D02*
X750000Y0D01*
X750000Y710000D01*
X0Y710000D01*
X0Y0D01*
X50000Y129427D02*
X49925Y128284D01*
X49776Y127148D01*
X49552Y126024D01*
X49255Y124917D01*
X48887Y123832D01*
X48449Y122774D01*
X47942Y121746D01*
X47369Y120754D01*
X46732Y119801D01*
X46035Y118892D01*
X45279Y118031D01*
X44469Y117221D01*
X43608Y116465D01*
X42699Y115768D01*
X41746Y115131D01*
X40754Y114558D01*
X39726Y114051D01*
X38668Y113613D01*
X37583Y113245D01*
X36476Y112948D01*
X35352Y112725D01*
X34216Y112575D01*
X33073Y112500D01*
X31927Y112500D01*
X30784Y112575D01*
X29648Y112725D01*
X28524Y112948D01*
X27417Y113245D01*
X26332Y113613D01*
X25274Y114051D01*
X24246Y114558D01*
X23254Y115131D01*
X22301Y115768D01*
X21392Y116465D01*
X20531Y117221D01*
X19721Y118031D01*
X18965Y118892D01*
X18268Y119801D01*
X17631Y120754D01*
X17058Y121746D01*
X16551Y122774D01*
X16113Y123832D01*
X15745Y124917D01*
X15448Y126024D01*
X15225Y127148D01*
X15075Y128284D01*
X15000Y129427D01*
X15000Y130573D01*
X15075Y131716D01*
X15225Y132852D01*
X15448Y133976D01*
X15745Y135083D01*
X16113Y136168D01*
X16551Y137226D01*
X17058Y138254D01*
X17631Y139246D01*
X18268Y140199D01*
X18965Y141108D01*
X19721Y141969D01*
X20531Y142779D01*
X21392Y143535D01*
X22301Y144232D01*
X23254Y144869D01*
X24246Y145442D01*
X25274Y145949D01*
X26332Y146387D01*
X27417Y146755D01*
X28524Y147052D01*
X29648Y147276D01*
X30784Y147425D01*
X31927Y147500D01*
X33073Y147500D01*
X34216Y147425D01*
X35352Y147276D01*
X36476Y147052D01*
X37583Y146755D01*
X38668Y146387D01*
X39726Y145949D01*
X40754Y145442D01*
X41746Y144869D01*
X42699Y144232D01*
X43608Y143535D01*
X44469Y142779D01*
X45279Y141969D01*
X46035Y141108D01*
X46732Y140199D01*
X47369Y139246D01*
X47942Y138254D01*
X48449Y137226D01*
X48887Y136168D01*
X49255Y135083D01*
X49552Y133976D01*
X49776Y132852D01*
X49925Y131716D01*
X50000Y130573D01*
X50000Y129427D01*
X735000Y129427D02*
X734925Y128284D01*
X734776Y127148D01*
X734552Y126024D01*
X734255Y124917D01*
X733887Y123832D01*
X733449Y122774D01*
X732942Y121746D01*
X732369Y120754D01*
X731732Y119801D01*
X731035Y118892D01*
X730279Y118031D01*
X729469Y117221D01*
X728608Y116465D01*
X727699Y115768D01*
X726746Y115131D01*
X725754Y114558D01*
X724726Y114051D01*
X723668Y113613D01*
X722583Y113245D01*
X721476Y112948D01*
X720352Y112725D01*
X719216Y112575D01*
X718073Y112500D01*
X716927Y112500D01*
X715784Y112575D01*
X714648Y112725D01*
X713524Y112948D01*
X712417Y113245D01*
X711332Y113613D01*
X710274Y114051D01*
X709246Y114558D01*
X708254Y115131D01*
X707301Y115768D01*
X706392Y116465D01*
X705531Y117221D01*
X704721Y118031D01*
X703965Y118892D01*
X703268Y119801D01*
X702631Y120754D01*
X702058Y121746D01*
X701551Y122774D01*
X701113Y123832D01*
X700745Y124917D01*
X700448Y126024D01*
X700225Y127148D01*
X700075Y128284D01*
X700000Y129427D01*
X700000Y130573D01*
X700075Y131716D01*
X700225Y132852D01*
X700448Y133976D01*
X700745Y135083D01*
X701113Y136168D01*
X701551Y137226D01*
X702058Y138254D01*
X702631Y139246D01*
X703268Y140199D01*
X703965Y141108D01*
X704721Y141969D01*
X705531Y142779D01*
X706392Y143535D01*
X707301Y144232D01*
X708254Y144869D01*
X709246Y145442D01*
X710274Y145949D01*
X711332Y146387D01*
X712417Y146755D01*
X713524Y147052D01*
X714648Y147276D01*
X715784Y147425D01*
X716927Y147500D01*
X718073Y147500D01*
X719216Y147425D01*
X720352Y147276D01*
X721476Y147052D01*
X722583Y146755D01*
X723668Y146387D01*
X724726Y145949D01*
X725754Y145442D01*
X726746Y144869D01*
X727699Y144232D01*
X728608Y143535D01*
X729469Y142779D01*
X730279Y141969D01*
X731035Y141108D01*
X731732Y140199D01*
X732369Y139246D01*
X732942Y138254D01*
X733449Y137226D01*
X733887Y136168D01*
X734255Y135083D01*
X734552Y133976D01*
X734776Y132852D01*
X734925Y131716D01*
X735000Y130573D01*
X735000Y129427D01*
X735000Y579427D02*
X734925Y578284D01*
X734776Y577148D01*
X734552Y576024D01*
X734255Y574917D01*
X733887Y573832D01*
X733449Y572774D01*
X732942Y571746D01*
X732369Y570754D01*
X731732Y569801D01*
X731035Y568892D01*
X730279Y568031D01*
X729469Y567221D01*
X728608Y566465D01*
X727699Y565768D01*
X726746Y565131D01*
X725754Y564558D01*
X724726Y564051D01*
X723668Y563613D01*
X722583Y563245D01*
X721476Y562948D01*
X720352Y562725D01*
X719216Y562575D01*
X718073Y562500D01*
X716927Y562500D01*
X715784Y562575D01*
X714648Y562725D01*
X713524Y562948D01*
X712417Y563245D01*
X711332Y563613D01*
X710274Y564051D01*
X709246Y564558D01*
X708254Y565131D01*
X707301Y565768D01*
X706392Y566465D01*
X705531Y567221D01*
X704721Y568031D01*
X703965Y568892D01*
X703268Y569801D01*
X702631Y570754D01*
X702058Y571746D01*
X701551Y572774D01*
X701113Y573832D01*
X700745Y574917D01*
X700448Y576024D01*
X700225Y577148D01*
X700075Y578284D01*
X700000Y579427D01*
X700000Y580573D01*
X700075Y581716D01*
X700225Y582852D01*
X700448Y583976D01*
X700745Y585083D01*
X701113Y586168D01*
X701551Y587226D01*
X702058Y588254D01*
X702631Y589246D01*
X703268Y590199D01*
X703965Y591108D01*
X704721Y591969D01*
X705531Y592779D01*
X706392Y593535D01*
X707301Y594232D01*
X708254Y594869D01*
X709246Y595442D01*
X710274Y595949D01*
X711332Y596387D01*
X712417Y596755D01*
X713524Y597052D01*
X714648Y597276D01*
X715784Y597425D01*
X716927Y597500D01*
X718073Y597500D01*
X719216Y597425D01*
X720352Y597276D01*
X721476Y597052D01*
X722583Y596755D01*
X723668Y596387D01*
X724726Y595949D01*
X725754Y595442D01*
X726746Y594869D01*
X727699Y594232D01*
X728608Y593535D01*
X729469Y592779D01*
X730279Y591969D01*
X731035Y591108D01*
X731732Y590199D01*
X732369Y589246D01*
X732942Y588254D01*
X733449Y587226D01*
X733887Y586168D01*
X734255Y585083D01*
X734552Y583976D01*
X734776Y582852D01*
X734925Y581716D01*
X735000Y580573D01*
X735000Y579427D01*
X50000Y579427D02*
X49925Y578284D01*
X49776Y577148D01*
X49552Y576024D01*
X49255Y574917D01*
X48887Y573832D01*
X48449Y572774D01*
X47942Y571746D01*
X47369Y570754D01*
X46732Y569801D01*
X46035Y568892D01*
X45279Y568031D01*
X44469Y567221D01*
X43608Y566465D01*
X42699Y565768D01*
X41746Y565131D01*
X40754Y564558D01*
X39726Y564051D01*
X38668Y563613D01*
X37583Y563245D01*
X36476Y562948D01*
X35352Y562725D01*
X34216Y562575D01*
X33073Y562500D01*
X31927Y562500D01*
X30784Y562575D01*
X29648Y562725D01*
X28524Y562948D01*
X27417Y563245D01*
X26332Y563613D01*
X25274Y564051D01*
X24246Y564558D01*
X23254Y565131D01*
X22301Y565768D01*
X21392Y566465D01*
X20531Y567221D01*
X19721Y568031D01*
X18965Y568892D01*
X18268Y569801D01*
X17631Y570754D01*
X17058Y571746D01*
X16551Y572774D01*
X16113Y573832D01*
X15745Y574917D01*
X15448Y576024D01*
X15225Y577148D01*
X15075Y578284D01*
X15000Y579427D01*
X15000Y580573D01*
X15075Y581716D01*
X15225Y582852D01*
X15448Y583976D01*
X15745Y585083D01*
X16113Y586168D01*
X16551Y587226D01*
X17058Y588254D01*
X17631Y589246D01*
X18268Y590199D01*
X18965Y591108D01*
X19721Y591969D01*
X20531Y592779D01*
X21392Y593535D01*
X22301Y594232D01*
X23254Y594869D01*
X24246Y595442D01*
X25274Y595949D01*
X26332Y596387D01*
X27417Y596755D01*
X28524Y597052D01*
X29648Y597276D01*
X30784Y597425D01*
X31927Y597500D01*
X33073Y597500D01*
X34216Y597425D01*
X35352Y597276D01*
X36476Y597052D01*
X37583Y596755D01*
X38668Y596387D01*
X39726Y595949D01*
X40754Y595442D01*
X41746Y594869D01*
X42699Y594232D01*
X43608Y593535D01*
X44469Y592779D01*
X45279Y591969D01*
X46035Y591108D01*
X46732Y590199D01*
X47369Y589246D01*
X47942Y588254D01*
X48449Y587226D01*
X48887Y586168D01*
X49255Y585083D01*
X49552Y583976D01*
X49776Y582852D01*
X49925Y581716D01*
X50000Y580573D01*
X50000Y579427D01*
X679940Y653221D02*
X680003Y653779D01*
X680128Y654326D01*
X680313Y654856D01*
X680557Y655362D01*
X680856Y655838D01*
X681206Y656277D01*
X681603Y656674D01*
X682042Y657024D01*
X682518Y657323D01*
X683024Y657567D01*
X683554Y657752D01*
X684101Y657877D01*
X684659Y657940D01*
X685221Y657940D01*
X685779Y657877D01*
X686326Y657752D01*
X686856Y657567D01*
X687362Y657323D01*
X687838Y657024D01*
X688277Y656674D01*
X688674Y656277D01*
X689024Y655838D01*
X689323Y655362D01*
X689567Y654856D01*
X689752Y654326D01*
X689877Y653779D01*
X689940Y653221D01*
X689940Y652659D01*
X689877Y652101D01*
X689752Y651554D01*
X689567Y651024D01*
X689323Y650518D01*
X689024Y650042D01*
X688674Y649603D01*
X688277Y649206D01*
X687838Y648856D01*
X687362Y648557D01*
X686856Y648313D01*
X686326Y648128D01*
X685779Y648003D01*
X685221Y647940D01*
X684659Y647940D01*
X684101Y648003D01*
X683554Y648128D01*
X683024Y648313D01*
X682518Y648557D01*
X682042Y648856D01*
X681603Y649206D01*
X681206Y649603D01*
X680856Y650042D01*
X680557Y650518D01*
X680313Y651024D01*
X680128Y651554D01*
X680003Y652101D01*
X679940Y652659D01*
X679940Y653221D01*
X635940Y653221D02*
X636003Y653779D01*
X636128Y654326D01*
X636313Y654856D01*
X636557Y655362D01*
X636856Y655838D01*
X637206Y656277D01*
X637603Y656674D01*
X638042Y657024D01*
X638518Y657323D01*
X639024Y657567D01*
X639554Y657752D01*
X640101Y657877D01*
X640659Y657940D01*
X641221Y657940D01*
X641779Y657877D01*
X642326Y657752D01*
X642856Y657567D01*
X643362Y657323D01*
X643838Y657024D01*
X644277Y656674D01*
X644674Y656277D01*
X645024Y655838D01*
X645323Y655362D01*
X645567Y654856D01*
X645752Y654326D01*
X645877Y653779D01*
X645940Y653221D01*
X645940Y652659D01*
X645877Y652101D01*
X645752Y651554D01*
X645567Y651024D01*
X645323Y650518D01*
X645024Y650042D01*
X644674Y649603D01*
X644277Y649206D01*
X643838Y648856D01*
X643362Y648557D01*
X642856Y648313D01*
X642326Y648128D01*
X641779Y648003D01*
X641221Y647940D01*
X640659Y647940D01*
X640101Y648003D01*
X639554Y648128D01*
X639024Y648313D01*
X638518Y648557D01*
X638042Y648856D01*
X637603Y649206D01*
X637206Y649603D01*
X636856Y650042D01*
X636557Y650518D01*
X636313Y651024D01*
X636128Y651554D01*
X636003Y652101D01*
X635940Y652659D01*
X635940Y653221D01*
M02*
