G04 EAGLE Gerber RS-274X export*
G75*
%MOMM*%
%FSLAX34Y34*%
%LPD*%
%INSoldermask Bottom*%
%IPPOS*%
%AMOC8*
5,1,8,0,0,1.08239X$1,22.5*%
G01*
%ADD10C,3.703200*%
%ADD11C,1.203200*%
%ADD12C,2.743200*%
%ADD13R,1.727200X1.727200*%
%ADD14C,2.184400*%
%ADD15C,1.993900*%
%ADD16C,1.511200*%
%ADD17C,0.959600*%


D10*
X32500Y130000D03*
X717500Y130000D03*
X717500Y580000D03*
X32500Y580000D03*
D11*
X684940Y652940D03*
X640940Y652940D03*
D12*
X36068Y502920D02*
X36068Y477520D01*
X256032Y477520D02*
X256032Y502920D01*
D13*
X195180Y367980D03*
X145180Y367980D03*
X247180Y73980D03*
X93180Y73980D03*
D14*
X233934Y25400D02*
X253746Y25400D01*
X103886Y25400D02*
X84074Y25400D01*
D15*
X200660Y655257D02*
X200660Y673164D01*
X149860Y673164D02*
X149860Y655257D01*
X99060Y655257D02*
X99060Y673164D01*
X378460Y673164D02*
X378460Y655257D01*
X327660Y655257D02*
X327660Y673164D01*
X276860Y673164D02*
X276860Y655257D01*
X556260Y655257D02*
X556260Y673164D01*
X505460Y673164D02*
X505460Y655257D01*
X454660Y655257D02*
X454660Y673164D01*
D16*
X349600Y310000D03*
X375000Y335400D03*
X400400Y310000D03*
D17*
X247650Y148590D03*
X356870Y171450D03*
X356870Y210820D03*
X320040Y556260D03*
X416560Y557530D03*
X416560Y605790D03*
X568960Y565150D03*
X654050Y115570D03*
X351790Y148590D03*
X320040Y293370D03*
X400050Y233680D03*
X350520Y231140D03*
X321310Y365760D03*
X426720Y302260D03*
X426720Y270510D03*
X720090Y529590D03*
X720090Y488950D03*
X720090Y447040D03*
X374650Y490220D03*
X447040Y476250D03*
X439420Y426720D03*
X474980Y406400D03*
X562610Y457200D03*
X565150Y405130D03*
X648970Y429260D03*
X720090Y406400D03*
X720090Y332740D03*
X718820Y266700D03*
X652780Y265430D03*
X651510Y331470D03*
X604520Y226060D03*
X604520Y204470D03*
X657860Y204470D03*
X657860Y226060D03*
X720090Y187960D03*
X720090Y163830D03*
X654050Y91440D03*
X712470Y92710D03*
X568960Y610870D03*
X594360Y307340D03*
X445770Y335280D03*
X557530Y302260D03*
X567690Y254000D03*
X590550Y264160D03*
X445770Y172720D03*
X547370Y172720D03*
X135890Y54610D03*
X201930Y52070D03*
X82550Y123190D03*
X353060Y684530D03*
X529590Y684530D03*
X410210Y426720D03*
X302260Y106680D03*
X300990Y209550D03*
X627380Y245110D03*
X627380Y149860D03*
X317500Y116840D03*
X317500Y181610D03*
X551180Y90170D03*
X525780Y166370D03*
X505460Y553720D03*
X449580Y189230D03*
X449580Y254000D03*
X373380Y443230D03*
X464820Y547370D03*
X542290Y209550D03*
X539750Y444500D03*
X464820Y444500D03*
X480060Y166370D03*
X480060Y351790D03*
X340360Y393700D03*
X563880Y351790D03*
X660400Y364490D03*
X464820Y166370D03*
X464820Y336550D03*
X360680Y378460D03*
X552450Y332740D03*
X666750Y353060D03*
X495300Y166370D03*
X495300Y472440D03*
X510540Y166370D03*
X510540Y485140D03*
X674370Y596900D03*
X659130Y565150D03*
X656590Y516890D03*
X589280Y443230D03*
X687070Y596900D03*
X637540Y565150D03*
M02*
