G04 EAGLE Gerber RS-274X export*
G75*
%MOMM*%
%FSLAX34Y34*%
%LPD*%
%INSoldermask Top*%
%IPPOS*%
%AMOC8*
5,1,8,0,0,1.08239X$1,22.5*%
G01*
%ADD10C,3.703200*%
%ADD11R,1.503200X1.703200*%
%ADD12R,1.703200X1.503200*%
%ADD13R,2.203200X2.603200*%
%ADD14R,0.703200X2.511200*%
%ADD15C,1.203200*%
%ADD16R,1.403200X1.403200*%
%ADD17C,2.743200*%
%ADD18R,1.727200X1.727200*%
%ADD19R,0.703200X0.553200*%
%ADD20R,0.603200X1.703200*%
%ADD21R,1.503200X1.803200*%
%ADD22R,1.203200X1.103200*%
%ADD23C,2.184400*%
%ADD24R,1.103200X0.903200*%
%ADD25C,1.993900*%
%ADD26R,2.203200X1.403200*%
%ADD27R,1.803200X1.503200*%
%ADD28R,1.203200X1.203200*%
%ADD29R,1.603200X1.203200*%
%ADD30C,1.511200*%
%ADD31R,1.203200X1.603200*%
%ADD32C,0.959600*%


D10*
X32500Y130000D03*
X717500Y130000D03*
X717500Y580000D03*
X32500Y580000D03*
D11*
X517500Y309033D03*
X498500Y309033D03*
X517500Y268393D03*
X498500Y268393D03*
X691540Y385233D03*
X710540Y385233D03*
D12*
X416560Y500500D03*
X416560Y519500D03*
X546100Y500500D03*
X546100Y519500D03*
D11*
X605180Y441960D03*
X624180Y441960D03*
D13*
X706940Y627940D03*
D14*
X678940Y622300D03*
X670940Y622300D03*
X662940Y622300D03*
X654940Y622300D03*
X646940Y622300D03*
D13*
X706940Y682940D03*
X618940Y627940D03*
X618940Y682940D03*
D15*
X684940Y652940D03*
X640940Y652940D03*
D16*
X336890Y93980D03*
X315890Y93980D03*
D17*
X36068Y477520D02*
X36068Y502920D01*
X256032Y502920D02*
X256032Y477520D01*
D18*
X195180Y367980D03*
X145180Y367980D03*
X247180Y73980D03*
X93180Y73980D03*
D19*
X711290Y359957D03*
X711290Y353457D03*
X711290Y346957D03*
X711290Y366457D03*
X690790Y353457D03*
X690790Y359957D03*
X690790Y366457D03*
X690790Y346957D03*
D20*
X585130Y473750D03*
X591630Y473750D03*
X598130Y473750D03*
X604630Y473750D03*
X611130Y473750D03*
X617630Y473750D03*
X624130Y473750D03*
X630630Y473750D03*
X637130Y473750D03*
X643630Y473750D03*
X650130Y473750D03*
X656630Y473750D03*
X663130Y473750D03*
X669630Y473750D03*
X669630Y546250D03*
X663130Y546250D03*
X656630Y546250D03*
X650130Y546250D03*
X643630Y546250D03*
X637130Y546250D03*
X630630Y546250D03*
X624130Y546250D03*
X617630Y546250D03*
X611130Y546250D03*
X604630Y546250D03*
X598130Y546250D03*
X591630Y546250D03*
X585130Y546250D03*
D21*
X390500Y93980D03*
X371500Y93980D03*
X607720Y91440D03*
X626720Y91440D03*
X334620Y210820D03*
X315620Y210820D03*
X607720Y131233D03*
X626720Y131233D03*
X371500Y210820D03*
X390500Y210820D03*
D22*
X333120Y129360D03*
X317120Y129360D03*
X317120Y170360D03*
X333120Y170360D03*
X373000Y170360D03*
X389000Y170360D03*
X389000Y129360D03*
X373000Y129360D03*
D23*
X253746Y25400D02*
X233934Y25400D01*
X103886Y25400D02*
X84074Y25400D01*
D24*
X389500Y500500D03*
X389500Y510000D03*
X389500Y519500D03*
X360500Y519500D03*
X360500Y510000D03*
X360500Y500500D03*
D25*
X200660Y655257D02*
X200660Y673164D01*
X149860Y673164D02*
X149860Y655257D01*
X99060Y655257D02*
X99060Y673164D01*
D26*
X575380Y89620D03*
X575380Y109620D03*
X575380Y129620D03*
X575380Y149620D03*
X575380Y169620D03*
X575380Y189620D03*
X575380Y209620D03*
X575380Y229620D03*
X425380Y229620D03*
X425380Y209620D03*
X425380Y189620D03*
X425380Y169620D03*
X425380Y149620D03*
X425380Y129620D03*
X425380Y109620D03*
X425380Y89620D03*
D25*
X378460Y655257D02*
X378460Y673164D01*
X327660Y673164D02*
X327660Y655257D01*
X276860Y655257D02*
X276860Y673164D01*
X556260Y673164D02*
X556260Y655257D01*
X505460Y655257D02*
X505460Y673164D01*
X454660Y673164D02*
X454660Y655257D01*
D21*
X607720Y268393D03*
X626720Y268393D03*
X607720Y309033D03*
X626720Y309033D03*
D27*
X464820Y519500D03*
X464820Y500500D03*
X505460Y519500D03*
X505460Y500500D03*
D28*
X686580Y191440D03*
X720580Y245440D03*
X686580Y245440D03*
D29*
X676480Y167640D03*
X654480Y158140D03*
X654480Y177140D03*
D21*
X607720Y172720D03*
X626720Y172720D03*
D30*
X349600Y310000D03*
X375000Y335400D03*
X400400Y310000D03*
D21*
X380390Y459740D03*
X399390Y459740D03*
D31*
X389890Y436450D03*
X399390Y414450D03*
X380390Y414450D03*
D21*
X380390Y377190D03*
X399390Y377190D03*
D32*
X247650Y148590D03*
X356870Y171450D03*
X356870Y210820D03*
X320040Y556260D03*
X416560Y557530D03*
X416560Y605790D03*
X568960Y565150D03*
X654050Y115570D03*
X351790Y148590D03*
X320040Y293370D03*
X400050Y233680D03*
X350520Y231140D03*
X321310Y365760D03*
X426720Y302260D03*
X426720Y270510D03*
X720090Y529590D03*
X720090Y488950D03*
X720090Y447040D03*
X374650Y490220D03*
X447040Y476250D03*
X439420Y426720D03*
X474980Y406400D03*
X562610Y457200D03*
X565150Y405130D03*
X648970Y429260D03*
X720090Y406400D03*
X720090Y332740D03*
X718820Y266700D03*
X652780Y265430D03*
X651510Y331470D03*
X604520Y226060D03*
X604520Y204470D03*
X657860Y204470D03*
X657860Y226060D03*
X720090Y187960D03*
X720090Y163830D03*
X654050Y91440D03*
X712470Y92710D03*
X568960Y610870D03*
X594360Y307340D03*
X445770Y335280D03*
X557530Y302260D03*
X567690Y254000D03*
X590550Y264160D03*
X445770Y172720D03*
X547370Y172720D03*
X135890Y54610D03*
X201930Y52070D03*
X82550Y123190D03*
X353060Y684530D03*
X529590Y684530D03*
X410210Y426720D03*
X302260Y106680D03*
X300990Y209550D03*
X627380Y245110D03*
X627380Y149860D03*
X317500Y116840D03*
X317500Y181610D03*
X551180Y90170D03*
X525780Y166370D03*
X505460Y553720D03*
X449580Y189230D03*
X449580Y254000D03*
X373380Y443230D03*
X464820Y547370D03*
X542290Y209550D03*
X539750Y444500D03*
X464820Y444500D03*
X480060Y166370D03*
X480060Y351790D03*
X340360Y393700D03*
X563880Y351790D03*
X660400Y364490D03*
X464820Y166370D03*
X464820Y336550D03*
X360680Y378460D03*
X552450Y332740D03*
X666750Y353060D03*
X495300Y166370D03*
X495300Y472440D03*
X510540Y166370D03*
X510540Y485140D03*
X674370Y596900D03*
X659130Y565150D03*
X656590Y516890D03*
X589280Y443230D03*
X687070Y596900D03*
X637540Y565150D03*
M02*
