G04 EAGLE Gerber RS-274X export*
G75*
%MOMM*%
%FSLAX34Y34*%
%LPD*%
%INSolderpaste Top*%
%IPPOS*%
%AMOC8*
5,1,8,0,0,1.08239X$1,22.5*%
G01*
%ADD10R,1.300000X1.500000*%
%ADD11R,1.500000X1.300000*%
%ADD12R,2.000000X2.400000*%
%ADD13R,0.500000X2.308000*%
%ADD14R,1.200000X1.200000*%
%ADD15R,0.500000X0.350000*%
%ADD16R,0.400000X1.500000*%
%ADD17R,1.300000X1.600000*%
%ADD18R,1.000000X0.900000*%
%ADD19R,0.900000X0.700000*%
%ADD20R,2.000000X1.200000*%
%ADD21R,1.600000X1.300000*%
%ADD22R,1.000000X1.000000*%
%ADD23R,1.400000X1.000000*%
%ADD24R,1.000000X1.400000*%


D10*
X517500Y309033D03*
X498500Y309033D03*
X517500Y268393D03*
X498500Y268393D03*
X691540Y385233D03*
X710540Y385233D03*
D11*
X416560Y500500D03*
X416560Y519500D03*
X546100Y500500D03*
X546100Y519500D03*
D10*
X605180Y441960D03*
X624180Y441960D03*
D12*
X706940Y627940D03*
D13*
X678940Y622300D03*
X670940Y622300D03*
X662940Y622300D03*
X654940Y622300D03*
X646940Y622300D03*
D12*
X706940Y682940D03*
X618940Y627940D03*
X618940Y682940D03*
D14*
X336890Y93980D03*
X315890Y93980D03*
D15*
X711290Y359957D03*
X711290Y353457D03*
X711290Y346957D03*
X711290Y366457D03*
X690790Y353457D03*
X690790Y359957D03*
X690790Y366457D03*
X690790Y346957D03*
D16*
X585130Y473750D03*
X591630Y473750D03*
X598130Y473750D03*
X604630Y473750D03*
X611130Y473750D03*
X617630Y473750D03*
X624130Y473750D03*
X630630Y473750D03*
X637130Y473750D03*
X643630Y473750D03*
X650130Y473750D03*
X656630Y473750D03*
X663130Y473750D03*
X669630Y473750D03*
X669630Y546250D03*
X663130Y546250D03*
X656630Y546250D03*
X650130Y546250D03*
X643630Y546250D03*
X637130Y546250D03*
X630630Y546250D03*
X624130Y546250D03*
X617630Y546250D03*
X611130Y546250D03*
X604630Y546250D03*
X598130Y546250D03*
X591630Y546250D03*
X585130Y546250D03*
D17*
X390500Y93980D03*
X371500Y93980D03*
X607720Y91440D03*
X626720Y91440D03*
X334620Y210820D03*
X315620Y210820D03*
X607720Y131233D03*
X626720Y131233D03*
X371500Y210820D03*
X390500Y210820D03*
D18*
X333120Y129360D03*
X317120Y129360D03*
X317120Y170360D03*
X333120Y170360D03*
X373000Y170360D03*
X389000Y170360D03*
X389000Y129360D03*
X373000Y129360D03*
D19*
X389500Y500500D03*
X389500Y510000D03*
X389500Y519500D03*
X360500Y519500D03*
X360500Y510000D03*
X360500Y500500D03*
D20*
X575380Y89620D03*
X575380Y109620D03*
X575380Y129620D03*
X575380Y149620D03*
X575380Y169620D03*
X575380Y189620D03*
X575380Y209620D03*
X575380Y229620D03*
X425380Y229620D03*
X425380Y209620D03*
X425380Y189620D03*
X425380Y169620D03*
X425380Y149620D03*
X425380Y129620D03*
X425380Y109620D03*
X425380Y89620D03*
D17*
X607720Y268393D03*
X626720Y268393D03*
X607720Y309033D03*
X626720Y309033D03*
D21*
X464820Y519500D03*
X464820Y500500D03*
X505460Y519500D03*
X505460Y500500D03*
D22*
X686580Y191440D03*
X720580Y245440D03*
X686580Y245440D03*
D23*
X676480Y167640D03*
X654480Y158140D03*
X654480Y177140D03*
D17*
X607720Y172720D03*
X626720Y172720D03*
X380390Y459740D03*
X399390Y459740D03*
D24*
X389890Y436450D03*
X399390Y414450D03*
X380390Y414450D03*
D17*
X380390Y377190D03*
X399390Y377190D03*
M02*
