M48
;GenerationSoftware,Autodesk,EAGLE,9.4.2*%
;CreationDate,2019-08-17T15:57:34Z*%
FMAT,2
ICI,OFF
METRIC,TZ,000.000
T7C0.350
T6C0.800
T5C1.000
T4C1.016
T3C1.194
T2C1.321
T1C3.500
%
G90
M71
T1
X3250Y13000
X71750Y13000
X71750Y58000
X3250Y58000
T2
X3607Y49022
X25603Y49022
X24384Y2540
X9398Y2540
T3
X20066Y66421
X14986Y66421
X9906Y66421
X37846Y66421
X32766Y66421
X27686Y66421
X55626Y66421
X50546Y66421
X45466Y66421
T4
X9318Y7398
X19518Y36798
X14518Y36798
X24718Y7398
T5
X68494Y65294
X64094Y65294
T6
X40040Y31000
X34960Y31000
X37500Y33540
T7
X72009Y33274
X71882Y26670
X65278Y26543
X65151Y33147
X60452Y22606
X60452Y20447
X65786Y20447
X65786Y22606
X72009Y18796
X72009Y16383
X65405Y9144
X71247Y9271
X56896Y61087
X59436Y30734
X44577Y33528
X55753Y30226
X56769Y25400
X59055Y26416
X44577Y17272
X54737Y17272
X13589Y5461
X20193Y5207
X8255Y12319
X35306Y68453
X52959Y68453
X41021Y42672
X30226Y10668
X30099Y20955
X62738Y24511
X62738Y14986
X31750Y11684
X42672Y27051
X55118Y9017
X52578Y16637
X50546Y55372
X44958Y18923
X44958Y25400
X37338Y44323
X46482Y54737
X54229Y20955
X53975Y44450
X46482Y44450
X48006Y16637
X48006Y35179
X34036Y39370
X56388Y35179
X66040Y36449
X46482Y16637
X46482Y33655
X36068Y37846
X55245Y33274
X66675Y35306
X49530Y16637
X49530Y47244
X51054Y16637
X51054Y48514
X67437Y59690
X65913Y56515
X65659Y51689
X24765Y14859
X68707Y59690
X63754Y56515
X35687Y17145
X35687Y21082
X32004Y55626
X41656Y55753
X41656Y60579
X56896Y56515
X65405Y11557
X35179Y14859
X32004Y29337
X40005Y23368
X35052Y23114
X31750Y18161
X32131Y36576
X42672Y30226
X72009Y52959
X72009Y48895
X72009Y44704
X37465Y49022
X44704Y47625
X43942Y42672
X47498Y40640
X56261Y45720
X56515Y40513
X64897Y42926
X72009Y40640
X58928Y44323
M30